<svg xmlns="http://www.w3.org/2000/svg" viewBox="0 0 800 560">
<defs>
  <clipPath id="c">
    <rect x="24" y="24" width="752" height="512"/>
  </clipPath>
</defs>
<rect width="800" height="560" fill="#B8CEDE"/>
<g clip-path="url(#c)">
<path d="M 1073.4,-281.3 L 1089.3,-289.2 L 1089.3,-276.2 L 1075.6,-275.3 L 1073.4,-281.3 Z M -551.3,187.1 L -557.0,198.3 L -569.1,201.5 L -581.6,221.0 L -570.2,239.0 L -571.4,251.8 L -557.7,274.1 L -557.7,274.1 L -565.2,281.8 L -567.4,286.6 L -572.9,285.3 L -581.5,273.8 L -585.1,273.2 L -592.9,268.8 L -596.8,261.0 L -608.5,257.0 L -616.1,260.0 L -618.3,256.5 L -635.3,247.4 L -653.8,244.3 L -664.4,241.1 L -665.9,243.3 L -681.9,227.3 L -696.2,220.1 L -707.0,209.0 L -697.9,206.0 L -687.5,190.1 L -694.5,182.6 L -676.0,174.9 L -676.3,170.7 L -687.6,173.8 L -687.2,165.3 L -680.7,160.0 L -668.6,158.7 L -666.6,152.3 L -669.4,141.9 L -664.3,131.9 L -664.5,126.4 L -682.9,120.2 L -690.3,120.4 L -698.0,111.5 L -707.6,114.5 L -723.5,107.9 L -723.3,104.1 L -727.7,95.9 L -737.7,95.0 L -738.8,89.1 L -735.6,85.3 L -743.6,74.5 L -756.6,76.4 L -760.4,75.4 L -763.6,79.7 L -768.3,79.0 L -768.3,79.0 L -771.4,66.8 L -774.3,60.5 L -771.9,58.8 L -761.8,59.4 L -756.9,55.3 L -760.5,50.2 L -769.0,46.9 L -768.2,43.4 L -773.3,40.0 L -781.2,27.6 L -778.5,22.5 L -779.7,13.6 L -792.0,9.0 L -798.5,11.3 L -800.3,6.6 L -813.5,1.8 L -817.5,-9.4 L -818.6,-18.6 L -824.7,-22.9 L -819.3,-28.9 L -823.0,-46.6 L -814.1,-57.6 L -816.0,-60.9 L -816.0,-60.9 L -801.7,-71.3 L -814.9,-80.4 L -814.9,-80.4 L -788.0,-104.6 L -776.4,-115.5 L -771.7,-125.2 L -790.2,-138.2 L -785.1,-150.5 L -796.4,-164.7 L -787.9,-180.9 L -802.5,-202.5 L -790.9,-216.8 L -810.1,-229.4 L -808.3,-242.7 L -798.2,-244.5 L -776.9,-252.1 L -776.9,-252.1 L -763.9,-258.7 L -743.3,-247.2 L -709.0,-242.7 L -661.7,-221.2 L -652.0,-212.2 L -651.2,-199.6 L -665.1,-189.6 L -685.6,-184.6 L -741.6,-199.0 L -750.8,-196.6 L -730.3,-182.7 L -729.5,-173.9 L -728.7,-154.5 L -712.6,-148.7 L -702.8,-143.8 L -701.2,-153.0 L -708.7,-161.2 L -700.7,-168.3 L -670.4,-156.5 L -659.9,-161.2 L -668.3,-175.1 L -639.1,-193.6 L -627.5,-192.5 L -615.8,-185.9 L -608.5,-198.9 L -619.0,-210.2 L -612.8,-221.6 L -622.1,-233.3 L -587.0,-227.3 L -579.8,-216.6 L -595.7,-214.3 L -595.6,-203.7 L -585.8,-197.3 L -566.4,-201.4 L -563.3,-213.5 L -537.1,-222.5 L -493.4,-238.8 L -484.0,-237.8 L -496.3,-226.3 L -480.8,-224.4 L -471.8,-230.8 L -448.3,-231.4 L -429.7,-239.2 L -415.4,-227.8 L -401.2,-240.4 L -414.3,-251.3 L -407.8,-257.6 L -370.7,-251.9 L -353.4,-245.9 L -308.0,-224.3 L -299.6,-234.2 L -312.3,-244.2 L -312.7,-248.2 L -327.8,-250.1 L -323.7,-259.1 L -330.4,-273.9 L -330.8,-280.0 L -307.6,-297.1 L -299.4,-314.4 L -290.1,-318.1 L -256.9,-313.1 L -254.3,-302.5 L -266.2,-287.2 L -258.4,-281.1 L -254.3,-267.9 L -257.2,-241.9 L -243.4,-230.3 L -248.7,-217.6 L -273.3,-190.7 L -259.0,-187.9 L -254.0,-194.7 L -240.2,-199.6 L -236.9,-208.9 L -226.0,-218.0 L -233.3,-228.8 L -227.5,-241.3 L -241.2,-242.8 L -244.2,-253.4 L -234.2,-272.4 L -250.5,-287.9 L -228.0,-300.7 L -230.9,-314.2 L -224.7,-314.6 L -218.1,-304.1 L -223.0,-285.8 L -209.6,-282.3 L -215.3,-296.0 L -194.4,-303.4 L -168.4,-304.4 L -145.2,-293.6 L -156.3,-309.4 L -157.6,-329.6 L -135.8,-333.5 L -105.7,-332.6 L -78.5,-335.1 L -88.7,-345.0 L -74.2,-357.5 L -59.8,-358.0 L -35.4,-367.4 L -2.3,-369.9 L 1.9,-375.1 L 34.8,-376.9 L 45.0,-372.6 L 73.2,-382.7 L 96.2,-382.4 L 99.6,-390.6 L 111.6,-398.6 L 141.2,-406.4 L 162.7,-400.3 L 145.6,-395.6 L 174.0,-392.7 L 177.4,-383.3 L 188.9,-387.9 L 225.5,-387.7 L 253.8,-378.4 L 263.8,-371.3 L 260.7,-361.5 L 246.8,-355.9 L 213.9,-345.3 L 204.5,-339.7 L 220.0,-337.1 L 238.6,-332.3 L 249.8,-335.9 L 256.2,-323.7 L 261.7,-328.6 L 281.8,-331.6 L 322.0,-328.5 L 325.1,-319.6 L 377.4,-316.8 L 378.2,-331.3 L 404.8,-328.0 L 424.8,-328.1 L 445.0,-318.1 L 450.8,-305.9 L 443.4,-298.0 L 459.1,-283.1 L 478.8,-275.4 L 490.9,-295.3 L 511.0,-286.7 L 532.4,-291.8 L 556.6,-286.0 L 565.9,-291.3 L 586.4,-288.7 L 577.3,-306.3 L 593.9,-314.5 L 707.1,-302.2 L 717.7,-290.9 L 750.5,-276.4 L 801.2,-280.0 L 826.1,-276.9 L 836.5,-269.0 L 835.0,-255.2 L 850.5,-249.8 L 867.2,-253.7 L 889.5,-254.2 L 913.1,-250.4 L 936.9,-252.5 L 958.7,-235.7 L 974.2,-241.7 L 964.1,-253.9 L 969.7,-262.3 L 1009.7,-257.0 L 1035.7,-258.1 L 1071.8,-249.1 L 1089.3,-240.8 L 1089.3,-165.2 L 1089.2,-165.1 L 1073.1,-156.8 L 1056.9,-158.2 L 1068.2,-148.1 L 1075.7,-132.5 L 1081.4,-127.4 L 1082.9,-119.5 L 1079.7,-114.5 L 1056.3,-118.6 L 1021.3,-104.4 L 1010.1,-102.2 L 990.9,-88.8 L 972.8,-77.2 L 968.1,-68.6 L 950.2,-81.7 L 917.6,-66.8 L 911.9,-73.8 L 899.8,-65.7 L 883.0,-68.3 L 879.0,-55.9 L 864.0,-37.5 L 864.4,-29.8 L 878.7,-25.6 L 877.0,2.0 L 865.4,2.7 L 860.0,18.6 L 865.2,26.7 L 843.3,36.4 L 838.9,58.1 L 820.3,62.7 L 816.5,82.0 L 798.4,99.6 L 793.8,86.6 L 788.4,58.9 L 781.4,16.8 L 787.5,-9.5 L 798.0,-20.8 L 798.7,-29.7 L 818.2,-33.9 L 840.6,-57.8 L 862.1,-77.3 L 884.7,-92.4 L 894.7,-119.2 L 879.5,-117.6 L 872.0,-102.0 L 840.2,-81.1 L 829.9,-104.5 L 797.6,-98.0 L 766.2,-66.2 L 776.5,-54.6 L 748.6,-49.6 L 729.2,-47.7 L 730.1,-61.4 L 710.6,-64.3 L 695.1,-55.0 L 656.8,-58.2 L 615.5,-52.6 L 574.9,-15.6 L 526.9,29.1 L 546.7,31.5 L 552.8,43.4 L 565.0,47.6 L 573.0,38.1 L 586.8,39.4 L 604.9,60.2 L 605.3,76.4 L 595.5,95.3 L 594.4,118.0 L 588.8,148.3 L 569.9,175.7 L 565.7,188.8 L 548.7,210.9 L 531.8,232.8 L 523.7,244.0 L 507.0,255.1 L 499.1,255.4 L 491.2,246.2 L 474.4,260.0 L 472.4,266.3 L 472.4,266.3 L 472.4,266.3 L 472.4,266.3 L 470.7,263.0 L 470.7,263.0 L 470.6,253.4 L 477.0,252.9 L 478.8,230.5 L 475.5,214.2 L 486.3,207.5 L 501.5,210.9 L 509.9,192.4 L 514.2,171.7 L 519.1,164.7 L 525.7,147.7 L 504.9,153.3 L 494.1,160.7 L 475.0,160.7 L 470.0,142.9 L 455.1,129.4 L 433.3,123.4 L 428.7,104.8 L 424.3,93.1 L 419.6,85.0 L 411.9,65.9 L 400.9,58.9 L 382.1,53.2 L 365.5,53.7 L 349.9,57.2 L 339.6,66.6 L 346.4,71.1 L 346.6,81.6 L 339.6,87.6 L 328.3,107.8 L 328.4,116.1 L 310.8,128.1 L 295.7,120.9 L 280.8,122.5 L 274.2,116.2 L 266.7,114.1 L 248.3,127.5 L 231.8,130.6 L 220.3,135.3 L 204.5,132.2 L 192.9,132.4 L 185.3,122.7 L 173.0,113.6 L 160.4,111.1 L 144.6,113.6 L 132.7,117.1 L 114.9,109.1 L 112.6,94.9 L 97.8,90.1 L 86.4,87.8 L 72.4,80.0 L 59.4,99.6 L 64.5,110.8 L 52.3,124.0 L 34.2,119.2 L 21.7,118.6 L 13.3,109.7 L 0.2,109.4 L -10.7,103.6 L -29.7,112.5 L -53.6,128.9 L -66.9,132.1 L -71.8,133.7 L -78.4,122.1 L -94.5,124.6 L -99.9,116.6 L -108.6,112.9 L -114.7,102.0 L -121.6,98.5 L -139.6,103.4 L -156.9,92.5 L -163.6,102.4 L -191.6,54.3 L -207.6,39.6 L -203.0,33.7 L -234.4,51.6 L -246.4,52.6 L -245.4,42.3 L -261.5,35.8 L -274.5,40.4 L -278.5,20.8 L -301.0,16.7 L -312.3,24.6 L -343.6,31.6 L -349.8,36.2 L -396.7,42.8 L -402.4,49.3 L -393.4,62.3 L -405.4,67.2 L -403.0,72.4 L -415.1,81.6 L -394.8,94.7 L -397.9,103.7 L -415.5,102.8 L -419.2,108.5 L -435.2,98.6 L -455.0,99.0 L -468.3,107.0 L -483.2,99.4 L -510.8,86.2 L -530.4,86.7 L -556.3,107.3 L -557.8,121.2 L -570.7,110.2 L -580.7,131.0 L -577.1,134.9 L -584.3,149.3 L -573.6,162.1 L -564.3,161.6 L -556.4,174.3 L -557.6,184.0 L -551.3,187.1 Z M 8.7,-469.5 L 35.8,-473.8 L 60.1,-464.2 L 89.0,-445.9 L 85.9,-428.9 L 58.6,-426.5 L 23.7,-432.0 L 2.9,-439.2 L -6.8,-452.8 L -23.9,-456.5 L 8.7,-469.5 Z M 122.2,-436.4 L 154.0,-425.7 L 150.3,-418.0 L 79.6,-410.7 L 102.5,-435.5 L 112.8,-437.7 L 122.2,-436.4 Z M 573.3,-376.8 L 606.4,-376.0 L 651.7,-365.9 L 641.9,-351.8 L 595.7,-352.4 L 574.9,-347.9 L 550.1,-360.2 L 556.8,-373.3 L 573.3,-376.8 Z M 691.1,-361.8 L 722.5,-356.9 L 708.0,-349.4 L 688.0,-351.1 L 664.7,-358.5 L 667.7,-364.7 L 691.1,-361.8 Z M 586.3,-324.3 L 598.2,-331.8 L 613.8,-333.6 L 631.7,-326.3 L 633.2,-321.4 L 614.2,-321.2 L 588.5,-323.3 L 586.3,-324.3 Z M -604.6,-461.3 L -580.1,-464.7 L -561.1,-464.9 L -558.5,-459.8 L -551.3,-464.4 L -539.5,-467.5 L -520.9,-463.3 L -525.8,-460.5 L -542.6,-458.0 L -553.9,-456.5 L -555.6,-453.4 L -570.3,-450.3 L -583.8,-454.8 L -576.7,-460.7 L -604.6,-461.3 Z M -881.8,36.8 L -904.8,37.0 L -920.3,34.9 L -917.4,26.5 L -900.1,20.4 L -887.0,23.7 L -881.4,26.7 L -882.8,31.9 L -881.8,36.8 Z M -496.0,-331.6 L -466.0,-348.2 L -469.4,-356.8 L -441.4,-366.8 L -400.0,-379.0 L -358.3,-382.5 L -336.8,-389.6 L -312.4,-392.0 L -303.7,-384.6 L -312.1,-378.7 L -356.5,-369.2 L -394.8,-360.2 L -433.8,-342.2 L -452.4,-323.6 L -472.1,-305.4 L -469.5,-289.7 L -445.6,-274.1 L -453.0,-272.4 L -493.9,-274.9 L -497.2,-283.3 L -519.9,-288.4 L -521.8,-298.7 L -508.9,-302.7 L -509.4,-313.1 L -484.5,-329.2 L -496.0,-331.6 Z M 624.5,48.6 L 628.9,66.8 L 628.5,85.5 L 633.7,104.6 L 646.3,138.2 L 627.8,132.0 L 620.1,159.4 L 632.3,178.8 L 631.9,192.1 L 622.4,180.6 L 614.2,195.3 L 611.9,179.4 L 613.3,160.9 L 611.9,140.4 L 614.8,126.1 L 615.3,100.8 L 608.0,82.1 L 609.1,56.2 L 620.7,47.5 L 615.7,38.7 L 621.3,36.0 L 624.5,48.6 Z M -3359.1,-207.5 L -3360.2,-195.7 L -3351.7,-191.0 L -3354.6,-204.7 L -3320.6,-201.9 L -3296.1,-184.2 L -3308.5,-175.9 L -3329.0,-173.9 L -3329.4,-155.4 L -3334.4,-151.5 L -3346.1,-152.0 L -3355.7,-158.6 L -3372.3,-164.2 L -3375.1,-172.4 L -3387.9,-175.5 L -3402.1,-173.0 L -3408.9,-179.7 L -3406.2,-186.7 L -3421.2,-182.2 L -3415.6,-173.3 L -3422.7,-165.2 L -3422.7,-240.8 L -3392.0,-226.3 L -3359.1,-207.5 Z M -3406.3,-277.4 L -3422.7,-276.2 L -3422.7,-289.2 L -3421.1,-290.0 L -3410.4,-289.9 L -3392.3,-284.5 L -3393.4,-281.9 L -3406.3,-277.4 Z M -747.6,195.2 L -744.3,190.5 L -735.4,194.6 L -731.4,195.3 L -729.7,199.1 L -727.8,199.6 L -727.7,201.3 L -721.6,205.9 L -708.8,204.7 L -711.3,211.5 L -725.0,214.8 L -742.0,225.7 L -749.0,221.9 L -746.2,213.0 L -759.9,207.4 L -757.7,203.8 L -745.7,197.5 L -747.6,195.2 Z" fill="#E4E0D4" stroke="#B0A898" stroke-width="0.5" stroke-linejoin="round"/>
<path d="M 88.1,679.8 L 80.9,684.2 L 73.6,692.4 L 64.8,693.2 L 59.1,713.7 L 53.8,717.2 L 59.8,733.8 L 67.8,747.7 L 72.9,760.2 L 68.3,776.7 L 64.0,780.2 L 67.0,789.7 L 75.4,804.8 L 76.8,815.3 L 76.6,824.1 L 81.5,841.4 L 74.6,859.1 L 68.5,878.6 L 67.3,864.5 L 71.2,850.0 L 67.0,838.8 L 68.0,818.1 L 62.9,808.3 L 58.8,785.6 L 56.5,761.6 L 51.1,745.9 L 42.9,755.5 L 28.6,769.0 L 21.6,767.3 L 13.8,762.8 L 18.2,739.3 L 15.5,721.6 L 5.7,699.7 L 7.2,692.9 L -0.1,690.5 L -9.0,675.0 L -9.8,659.7 L -5.4,662.6 L -5.2,649.0 L 1.0,644.5 L -0.3,636.4 L 2.5,630.0 L 3.0,610.4 L 12.8,614.7 L 18.4,599.0 L 19.0,589.8 L 25.9,573.9 L 25.6,563.0 L 41.8,549.9 L 50.7,553.4 L 49.7,541.7 L 54.1,538.2 L 53.2,531.0 L 60.5,529.6 L 64.7,540.8 L 70.2,545.3 L 70.5,559.8 L 70.0,575.5 L 58.1,591.3 L 56.6,613.8 L 69.9,610.7 L 72.9,628.1 L 80.8,631.8 L 77.2,647.5 L 86.5,654.7 L 91.9,658.1 L 101.1,652.6 L 101.5,660.5 L 90.8,672.8 L 88.1,679.8 Z" fill="#E4E0D4" stroke="#B0A898" stroke-width="0.5" stroke-linejoin="round"/>
<path d="M 472.4,266.3 L 472.4,266.3 L 472.4,266.3 L 472.4,266.3 Z M 470.7,263.0 L 470.7,263.0 L 472.4,266.3 L 467.7,265.2 L 462.2,271.6 L 458.5,278.1 L 459.0,291.7 L 452.5,295.9 L 450.3,299.2 L 445.5,304.8 L 437.2,308.0 L 431.8,313.1 L 431.4,321.3 L 429.9,323.4 L 434.9,326.4 L 442.0,334.8 L 440.2,339.3 L 434.8,340.6 L 426.0,341.5 L 421.1,350.1 L 415.5,349.4 L 414.7,351.1 L 408.6,347.5 L 407.1,351.1 L 403.5,352.6 L 403.0,349.1 L 399.8,347.3 L 396.4,344.3 L 399.8,336.0 L 402.8,333.7 L 401.7,330.3 L 404.8,320.1 L 404.0,317.0 L 396.7,314.9 L 390.8,309.8 L 401.0,297.6 L 414.8,287.4 L 423.4,274.0 L 429.4,279.9 L 440.2,280.6 L 438.3,270.6 L 457.6,262.5 L 462.6,251.8 L 470.7,263.0 Z" fill="#E4E0D4" stroke="#B0A898" stroke-width="0.5" stroke-linejoin="round"/>
<path d="M 414.7,351.1 L 415.5,349.4 L 421.1,350.1 L 426.0,341.5 L 434.8,340.6 L 440.2,339.3 L 442.0,334.8 L 452.8,357.1 L 455.9,369.4 L 456.0,391.3 L 451.3,401.7 L 439.9,405.3 L 429.9,413.2 L 418.6,414.8 L 417.2,404.5 L 419.5,390.3 L 414.0,370.5 L 423.3,367.3 L 414.7,351.1 Z" fill="#C8DEC8" stroke="#B0A898" stroke-width="0.5" stroke-linejoin="round"/>
<path d="M -66.9,132.1 L -53.6,128.9 L -29.7,112.5 L -10.7,103.6 L 0.2,109.4 L 13.3,109.7 L 21.7,118.6 L 34.2,119.2 L 52.3,124.0 L 64.5,110.8 L 59.4,99.6 L 72.4,80.0 L 86.4,87.8 L 97.8,90.1 L 112.6,94.9 L 114.9,109.1 L 132.7,117.1 L 144.6,113.6 L 160.4,111.1 L 173.0,113.6 L 185.3,122.7 L 192.9,132.4 L 204.5,132.2 L 220.3,135.3 L 231.8,130.6 L 248.3,127.5 L 266.7,114.1 L 274.2,116.2 L 280.8,122.5 L 295.7,120.9 L 289.6,135.2 L 280.7,154.2 L 284.0,161.9 L 291.1,159.5 L 303.4,162.5 L 313.1,155.5 L 323.1,161.5 L 334.5,174.8 L 333.1,181.5 L 323.2,179.4 L 305.0,181.9 L 296.2,187.3 L 287.0,199.8 L 267.9,207.2 L 255.4,217.3 L 242.5,213.4 L 235.5,211.7 L 228.9,223.9 L 232.9,231.2 L 234.9,237.5 L 226.2,243.8 L 217.2,254.0 L 202.5,260.7 L 183.7,261.4 L 163.5,268.0 L 148.9,278.2 L 143.3,272.3 L 128.2,272.3 L 109.6,260.8 L 97.3,257.9 L 80.6,260.6 L 54.7,256.3 L 40.9,256.8 L 33.6,245.5 L 27.8,228.0 L 20.1,225.9 L 5.0,214.1 L -11.9,211.4 L -26.8,208.2 L -31.3,200.0 L -26.5,177.8 L -35.1,162.6 L -53.0,155.4 L -63.6,145.4 L -66.9,132.1 Z" fill="#E4E0D4" stroke="#B0A898" stroke-width="0.5" stroke-linejoin="round"/>
<path d="M 53.2,531.0 L 54.1,538.2 L 49.7,541.7 L 50.7,553.4 L 41.8,549.9 L 25.6,563.0 L 25.9,573.9 L 19.0,589.8 L 18.4,599.0 L 12.8,614.7 L 3.0,610.4 L 2.5,630.0 L -0.3,636.4 L 1.0,644.5 L -5.2,649.0 L -11.8,618.9 L -15.2,619.0 L -17.3,631.1 L -24.1,621.3 L -20.3,610.5 L -14.7,609.4 L -8.9,593.3 L -16.1,590.1 L -27.7,590.4 L -39.7,587.8 L -40.8,574.6 L -46.7,573.7 L -56.7,565.5 L -61.1,578.3 L -52.1,588.4 L -59.9,595.4 L -62.7,602.3 L -55.0,607.4 L -57.1,618.8 L -52.8,633.1 L -50.8,648.7 L -52.6,655.6 L -61.1,655.4 L -76.6,659.3 L -75.9,673.6 L -82.5,684.8 L -100.6,697.6 L -114.6,719.9 L -124.0,731.9 L -136.5,744.3 L -136.5,753.0 L -142.8,757.7 L -154.1,764.5 L -159.9,765.5 L -163.7,779.9 L -161.1,804.6 L -160.4,820.3 L -165.7,838.3 L -165.8,870.6 L -172.3,871.5 L -178.0,885.9 L -174.2,892.2 L -185.6,897.6 L -189.8,910.5 L -194.8,915.9 L -206.7,898.2 L -212.5,871.7 L -217.3,852.5 L -221.7,843.6 L -228.4,825.3 L -231.5,801.6 L -233.6,789.8 L -245.0,763.7 L -250.2,727.0 L -254.0,702.7 L -253.9,679.7 L -256.4,662.0 L -274.6,673.3 L -283.4,671.1 L -299.8,648.1 L -293.8,641.2 L -297.5,633.8 L -312.2,617.7 L -303.8,605.0 L -276.3,605.1 L -278.7,588.8 L -285.8,579.2 L -287.2,564.6 L -295.4,556.1 L -281.6,536.2 L -267.1,537.6 L -253.9,517.8 L -246.1,498.5 L -233.9,479.5 L -234.1,466.0 L -223.4,455.0 L -233.5,445.6 L -237.9,432.8 L -242.3,416.2 L -236.2,408.0 L -217.2,412.6 L -203.2,409.8 L -191.1,393.9 L -177.6,416.1 L -178.9,431.6 L -173.9,441.3 L -174.3,451.0 L -183.3,448.4 L -179.8,469.3 L -167.5,481.3 L -150.1,494.6 L -158.0,503.2 L -162.9,520.9 L -150.7,528.1 L -138.9,537.4 L -122.6,548.1 L -105.4,550.5 L -98.2,560.2 L -88.5,562.0 L -73.4,566.4 L -63.0,566.1 L -61.5,558.6 L -63.2,546.5 L -62.2,538.3 L -54.6,534.4 L -53.5,549.3 L -53.3,553.1 L -41.9,560.3 L -34.0,557.3 L -23.4,558.6 L -13.2,558.0 L -12.3,546.4 L -17.4,540.3 L -7.3,538.0 L 4.1,523.9 L 18.6,511.8 L 29.1,516.4 L 38.0,508.5 L 43.9,520.2 L 39.7,528.2 L 53.2,531.0 Z" fill="#E4E0D4" stroke="#B0A898" stroke-width="0.5" stroke-linejoin="round"/>
<path d="M 205.4,721.9 L 195.1,716.0 L 194.8,699.7 L 201.0,691.1 L 214.7,685.8 L 221.9,686.2 L 224.7,693.5 L 219.2,701.8 L 216.3,712.8 L 205.4,721.9 Z M -160.7,263.9 L -161.7,253.1 L -153.1,248.1 L -164.4,215.2 L -139.6,207.6 L -133.2,203.4 L -124.1,169.4 L -99.3,175.7 L -92.3,167.1 L -91.7,148.1 L -81.3,146.3 L -71.8,133.7 L -66.9,132.1 L -63.6,145.4 L -53.0,155.4 L -35.1,162.6 L -26.5,177.8 L -31.3,200.0 L -26.8,208.2 L -11.9,211.4 L 5.0,214.1 L 20.1,225.9 L 27.8,228.0 L 33.6,245.5 L 40.9,256.8 L 54.7,256.3 L 80.6,260.6 L 97.3,257.9 L 109.6,260.8 L 128.2,272.3 L 143.3,272.3 L 148.9,278.2 L 163.5,268.0 L 183.7,261.4 L 202.5,260.7 L 217.2,254.0 L 226.2,243.8 L 234.9,237.5 L 232.9,231.2 L 228.9,223.9 L 235.5,211.7 L 242.5,213.4 L 255.4,217.3 L 267.9,207.2 L 287.0,199.8 L 296.2,187.3 L 305.0,181.9 L 323.2,179.4 L 333.1,181.5 L 334.5,174.8 L 323.1,161.5 L 313.1,155.5 L 303.4,162.5 L 291.1,159.5 L 284.0,161.9 L 280.7,154.2 L 289.6,135.2 L 295.7,120.9 L 310.8,128.1 L 328.4,116.1 L 328.3,107.8 L 339.6,87.6 L 346.6,81.6 L 346.4,71.1 L 339.6,66.6 L 349.9,57.2 L 365.5,53.7 L 382.1,53.2 L 400.9,58.9 L 411.9,65.9 L 419.6,85.0 L 424.3,93.1 L 428.7,104.8 L 433.3,123.4 L 455.1,129.4 L 470.0,142.9 L 475.0,160.7 L 494.1,160.7 L 504.9,153.3 L 525.7,147.7 L 519.1,164.7 L 514.2,171.7 L 509.9,192.4 L 501.5,210.9 L 486.3,207.5 L 475.5,214.2 L 478.8,230.5 L 477.0,252.9 L 470.6,253.4 L 470.7,263.0 L 462.6,251.8 L 457.6,262.5 L 438.3,270.6 L 440.2,280.6 L 429.4,279.9 L 423.4,274.0 L 414.8,287.4 L 401.0,297.6 L 390.8,309.8 L 373.3,315.3 L 364.0,324.2 L 350.6,329.4 L 357.2,320.6 L 354.6,313.2 L 364.5,300.4 L 357.9,290.5 L 347.0,297.2 L 332.8,310.4 L 325.1,322.6 L 312.8,323.5 L 306.4,332.4 L 313.0,345.2 L 323.3,348.3 L 323.7,356.8 L 333.6,362.4 L 347.7,348.8 L 358.8,356.2 L 366.9,356.7 L 368.9,366.6 L 351.2,371.9 L 345.3,382.2 L 333.1,391.7 L 326.7,405.0 L 340.2,415.4 L 345.1,434.0 L 352.7,451.4 L 361.2,466.0 L 361.0,480.1 L 353.2,485.3 L 356.2,495.4 L 363.6,501.2 L 361.6,516.7 L 358.4,531.7 L 351.4,533.4 L 342.3,554.0 L 332.1,578.8 L 320.5,601.5 L 303.3,619.0 L 285.8,634.9 L 271.7,637.1 L 264.0,645.5 L 259.7,639.4 L 252.6,648.8 L 235.1,658.3 L 221.8,661.2 L 217.6,681.2 L 210.6,682.3 L 207.3,668.6 L 210.3,661.2 L 193.5,655.2 L 187.6,658.3 L 174.9,653.3 L 169.0,645.6 L 171.0,634.7 L 159.5,631.3 L 153.5,624.1 L 142.8,634.2 L 130.6,636.4 L 120.6,636.3 L 113.9,641.0 L 107.4,643.7 L 109.3,665.4 L 102.6,664.9 L 101.5,660.5 L 101.1,652.6 L 91.9,658.1 L 86.5,654.7 L 77.2,647.5 L 80.8,631.8 L 72.9,628.1 L 69.9,610.7 L 56.6,613.8 L 58.1,591.3 L 70.0,575.5 L 70.5,559.8 L 70.2,545.3 L 64.7,540.8 L 60.5,529.6 L 53.2,531.0 L 39.7,528.2 L 43.9,520.2 L 38.0,508.5 L 29.1,516.4 L 18.6,511.8 L 4.1,523.9 L -7.3,538.0 L -17.4,540.3 L -22.9,535.2 L -29.5,534.8 L -38.5,530.4 L -45.2,535.2 L -53.5,549.3 L -54.6,534.4 L -62.2,538.3 L -76.8,536.5 L -91.0,532.1 L -101.2,523.8 L -110.9,520.1 L -115.1,511.0 L -122.2,508.2 L -134.8,495.9 L -144.9,490.1 L -150.1,494.6 L -167.5,481.3 L -179.8,469.3 L -183.3,448.4 L -174.3,451.0 L -173.9,441.3 L -178.9,431.6 L -177.6,416.1 L -191.1,393.9 L -211.7,386.2 L -215.4,371.7 L -224.7,362.8 L -226.9,357.4 L -228.8,346.6 L -228.4,339.2 L -236.0,334.9 L -240.1,336.8 L -243.3,319.2 L -239.7,314.9 L -241.4,310.5 L -229.5,301.5 L -220.8,297.8 L -207.5,300.3 L -202.8,288.2 L -186.7,286.0 L -182.3,278.4 L -162.5,268.2 L -160.7,263.9 Z" fill="#E4E0D4" stroke="#B0A898" stroke-width="0.5" stroke-linejoin="round"/>
<path d="M 611.6,324.0 L 600.0,343.1 L 600.2,362.6 L 595.5,377.8 L 597.7,387.3 L 591.2,400.6 L 575.2,409.6 L 553.1,410.7 L 535.3,432.4 L 526.8,425.1 L 526.3,410.9 L 504.5,415.1 L 489.7,424.0 L 475.0,424.4 L 487.7,438.3 L 479.4,470.6 L 471.3,478.6 L 465.2,471.2 L 468.3,454.1 L 460.3,448.6 L 455.3,435.6 L 467.1,429.7 L 473.7,417.8 L 486.3,408.0 L 495.5,395.0 L 520.4,389.4 L 533.8,393.3 L 546.9,359.5 L 555.3,368.6 L 573.7,349.6 L 580.8,342.3 L 588.7,319.1 L 586.5,297.8 L 591.8,285.8 L 605.2,282.3 L 612.0,308.6 L 611.6,324.0 Z M 645.8,233.3 L 654.7,225.3 L 657.5,246.6 L 638.9,251.8 L 627.9,270.6 L 608.2,257.6 L 601.4,278.4 L 587.4,278.7 L 585.7,259.8 L 591.9,245.2 L 605.3,244.2 L 609.0,218.0 L 612.7,203.2 L 627.4,222.9 L 637.0,229.3 L 645.8,233.3 Z M 492.4,432.4 L 499.3,421.1 L 506.4,423.3 L 511.6,415.3 L 520.8,419.4 L 522.4,425.9 L 515.3,437.4 L 510.2,431.3 L 503.8,435.7 L 500.5,446.8 L 492.3,441.4 L 492.4,432.4 Z" fill="#E4E0D4" stroke="#B0A898" stroke-width="0.5" stroke-linejoin="round"/>
<text x="349.9" y="450.7" text-anchor="middle" dominant-baseline="middle" font-family="Helvetica,Arial,sans-serif" font-size="9" fill="#4A6880" font-style="italic" opacity="0.85">Mar Amarelo</text>
<text x="550.4" y="346.4" text-anchor="middle" dominant-baseline="middle" font-family="Helvetica,Arial,sans-serif" font-size="9" fill="#4A6880" font-style="italic" opacity="0.85">Mar do Japão</text>
<text x="550.4" y="357.4" text-anchor="middle" dominant-baseline="middle" font-family="Helvetica,Arial,sans-serif" font-size="9" fill="#4A6880" font-style="italic" opacity="0.85">(Mar do Leste)</text>
<text x="725.9" y="194.7" text-anchor="middle" dominant-baseline="middle" font-family="Helvetica,Arial,sans-serif" font-size="9" fill="#4A6880" font-style="italic" opacity="0.85">Oceano Pacífico</text>
<text x="435.1" y="331.2" font-family="Helvetica,Arial,sans-serif" font-size="8" font-weight="normal" text-anchor="middle" dominant-baseline="middle" fill="white" stroke="white" stroke-width="3" stroke-linejoin="round" opacity="0.75">Pen. Coreana</text>
<text x="435.1" y="331.2" font-family="Helvetica,Arial,sans-serif" font-size="8" font-weight="normal" text-anchor="middle" dominant-baseline="middle" fill="#3A4A30">Pen. Coreana</text>
<text x="418.8" y="299.0" font-family="Helvetica,Arial,sans-serif" font-size="9" font-weight="normal" text-anchor="middle" dominant-baseline="middle" fill="white" stroke="white" stroke-width="3" stroke-linejoin="round" opacity="0.75">Coreia do Norte</text>
<text x="418.8" y="299.0" font-family="Helvetica,Arial,sans-serif" font-size="9" font-weight="normal" text-anchor="middle" dominant-baseline="middle" fill="#2A2228">Coreia do Norte</text>
<text x="431.3" y="384.3" font-family="Helvetica,Arial,sans-serif" font-size="11" font-weight="bold" text-anchor="middle" dominant-baseline="middle" fill="white" stroke="white" stroke-width="3" stroke-linejoin="round" opacity="0.75">Coreia do Sul</text>
<text x="431.3" y="384.3" font-family="Helvetica,Arial,sans-serif" font-size="11" font-weight="bold" text-anchor="middle" dominant-baseline="middle" fill="#2A2228">Coreia do Sul</text>
<text x="136.8" y="185.2" font-family="Helvetica,Arial,sans-serif" font-size="9" font-weight="normal" text-anchor="middle" dominant-baseline="middle" fill="white" stroke="white" stroke-width="3" stroke-linejoin="round" opacity="0.75">Mongólia</text>
<text x="136.8" y="185.2" font-family="Helvetica,Arial,sans-serif" font-size="9" font-weight="normal" text-anchor="middle" dominant-baseline="middle" fill="#2A2228">Mongólia</text>
<text x="136.8" y="384.3" font-family="Helvetica,Arial,sans-serif" font-size="9" font-weight="normal" text-anchor="middle" dominant-baseline="middle" fill="white" stroke="white" stroke-width="3" stroke-linejoin="round" opacity="0.75">China</text>
<text x="136.8" y="384.3" font-family="Helvetica,Arial,sans-serif" font-size="9" font-weight="normal" text-anchor="middle" dominant-baseline="middle" fill="#2A2228">China</text>
<text x="562.9" y="365.3" font-family="Helvetica,Arial,sans-serif" font-size="9" font-weight="normal" text-anchor="middle" dominant-baseline="middle" fill="white" stroke="white" stroke-width="3" stroke-linejoin="round" opacity="0.75">Japão</text>
<text x="562.9" y="365.3" font-family="Helvetica,Arial,sans-serif" font-size="9" font-weight="normal" text-anchor="middle" dominant-baseline="middle" fill="#2A2228">Japão</text>
</g>
<rect x="24" y="24" width="752" height="512" fill="none" stroke="#90A4B8" stroke-width="1"/>
<text x="774" y="555" text-anchor="end" font-family="Helvetica,Arial,sans-serif" font-size="7" fill="#909098" opacity="0.85">Natural Earth · domínio público</text>
</svg>