<svg xmlns="http://www.w3.org/2000/svg" viewBox="0 0 740 700">
<defs>
  <clipPath id="c">
    <rect x="24" y="24" width="692" height="652"/>
  </clipPath>
</defs>
<rect width="740" height="700" fill="#B8CEDE"/>
<g clip-path="url(#c)">
<path d="M 521.4,362.6 L 522.9,363.6 L 556.4,381.3 L 557.0,386.3 L 570.2,395.0 L 566.0,405.7 L 566.5,410.6 L 572.4,413.8 L 572.7,416.1 L 570.2,421.3 L 570.7,424.0 L 570.1,428.1 L 573.3,433.6 L 577.1,442.1 L 580.5,444.0 L 580.5,444.0 L 573.2,449.1 L 563.1,452.5 L 557.6,452.3 L 554.3,454.9 L 547.8,455.1 L 545.4,456.2 L 534.3,453.8 L 527.4,454.5 L 524.8,442.7 L 521.7,438.6 L 519.8,436.2 L 510.8,434.6 L 505.6,432.0 L 499.7,430.5 L 496.0,429.1 L 492.2,426.8 L 492.2,426.8 L 487.2,415.9 L 481.8,411.0 L 480.0,406.0 L 480.9,401.5 L 479.2,393.5 L 483.1,393.1 L 486.4,389.9 L 490.0,385.4 L 492.3,383.6 L 492.2,380.7 L 490.2,378.8 L 489.7,375.3 L 489.7,375.3 L 492.3,374.2 L 492.9,369.1 L 489.2,364.2 L 492.4,363.2 L 502.6,363.3 L 521.4,362.6 Z" fill="#E4E0D4" stroke="#B0A898" stroke-width="0.5" stroke-linejoin="round"/>
<path d="M 128.6,113.9 L 128.6,114.5 L 128.4,116.2 L 128.4,129.4 L 98.1,128.9 L 98.4,151.1 L 89.7,151.9 L 87.5,156.4 L 89.2,168.9 L 53.1,168.9 L 51.1,171.8 L 51.5,168.1 L 51.7,168.1 L 72.4,167.4 L 73.5,164.3 L 77.3,160.4 L 80.4,148.4 L 93.2,139.0 L 97.5,128.1 L 100.4,127.4 L 103.4,120.6 L 111.2,119.7 L 114.5,120.8 L 118.7,120.8 L 121.7,118.9 L 127.4,118.6 L 127.2,113.9 L 128.6,113.9 Z" fill="#E4E0D4" stroke="#B0A898" stroke-width="0.5" stroke-linejoin="round"/>
<path d="M 479.2,393.5 L 480.9,401.5 L 480.0,406.0 L 481.8,411.0 L 487.2,415.9 L 492.2,426.8 L 492.2,426.8 L 488.5,426.0 L 476.1,427.4 L 473.7,428.5 L 471.0,434.0 L 473.1,437.9 L 471.5,448.1 L 470.3,456.9 L 472.8,458.4 L 479.3,461.8 L 481.8,460.2 L 482.6,469.6 L 475.5,469.5 L 471.7,464.7 L 468.3,461.0 L 461.2,459.8 L 459.2,455.3 L 453.5,458.0 L 446.1,456.8 L 443.1,452.9 L 437.2,452.0 L 432.9,452.3 L 432.3,449.6 L 429.2,449.3 L 425.0,448.8 L 419.2,450.1 L 415.2,449.9 L 413.0,450.7 L 413.4,440.4 L 410.4,437.1 L 409.7,431.8 L 411.1,426.6 L 409.2,423.2 L 409.0,417.7 L 397.8,417.8 L 398.6,414.7 L 393.9,414.7 L 393.4,416.2 L 387.7,416.6 L 385.4,421.6 L 384.0,423.8 L 378.9,422.6 L 375.9,423.8 L 369.8,424.5 L 366.2,419.9 L 364.1,417.1 L 361.4,411.9 L 359.2,405.4 L 331.9,405.3 L 328.7,406.4 L 326.0,406.2 L 322.2,407.4 L 320.9,404.7 L 323.3,403.8 L 323.6,400.0 L 325.1,397.7 L 328.4,395.9 L 330.9,396.8 L 334.0,393.5 L 339.0,393.6 L 339.6,396.0 L 343.1,397.6 L 348.5,392.1 L 353.9,387.9 L 356.2,385.1 L 355.9,377.9 L 359.9,369.5 L 364.1,365.0 L 370.2,360.8 L 371.3,358.0 L 371.5,354.9 L 373.0,351.8 L 372.5,346.9 L 373.7,339.2 L 375.5,333.8 L 378.2,329.1 L 378.8,323.9 L 379.6,317.8 L 383.2,313.4 L 388.2,310.6 L 395.7,313.6 L 401.6,316.8 L 408.4,317.6 L 415.3,319.3 L 418.0,314.1 L 419.3,313.4 L 423.5,314.3 L 433.8,309.9 L 437.4,311.8 L 440.4,311.5 L 441.8,309.4 L 445.2,308.7 L 452.1,309.6 L 458.1,309.8 L 461.1,308.8 L 466.7,316.0 L 470.8,317.1 L 473.3,315.6 L 477.6,316.2 L 482.7,314.4 L 484.9,318.1 L 493.0,323.8 L 493.0,323.8 L 492.5,334.0 L 496.2,335.2 L 493.2,338.3 L 489.7,340.6 L 486.1,345.1 L 484.2,349.2 L 483.7,356.1 L 481.5,359.5 L 481.5,366.0 L 478.8,368.4 L 478.5,373.6 L 477.2,374.3 L 476.3,379.0 L 478.7,383.0 L 479.2,393.5 Z" fill="#E4E0D4" stroke="#B0A898" stroke-width="0.5" stroke-linejoin="round"/>
<path d="M 592.2,369.0 L 586.8,361.8 L 586.7,330.1 L 594.7,320.3 L 597.2,317.5 L 603.2,317.4 L 611.4,311.2 L 623.4,310.9 L 649.5,284.8 L 655.9,277.5 L 660.1,272.2 L 660.1,267.6 L 660.1,258.9 L 660.1,255.3 L 660.2,255.2 L 660.2,255.2 L 663.1,255.0 L 667.4,253.7 L 672.3,252.8 L 676.6,249.8 L 680.1,249.8 L 680.3,252.2 L 679.5,257.3 L 679.5,261.8 L 677.6,265.0 L 675.0,274.4 L 670.5,284.1 L 664.8,295.2 L 656.9,307.9 L 649.0,317.7 L 638.2,329.5 L 628.9,336.6 L 615.1,345.2 L 606.5,351.8 L 596.4,362.3 L 594.3,366.9 L 592.2,369.0 Z" fill="#E4E0D4" stroke="#B0A898" stroke-width="0.5" stroke-linejoin="round"/>
<path d="M 570.2,395.0 L 557.0,386.3 L 556.4,381.3 L 522.9,363.6 L 521.4,362.6 L 521.3,353.4 L 523.9,349.9 L 528.4,344.1 L 531.8,337.8 L 527.7,327.8 L 526.7,323.4 L 522.3,317.4 L 528.0,312.2 L 534.2,306.5 L 539.0,307.9 L 539.0,312.8 L 542.2,315.7 L 548.6,315.7 L 560.3,323.1 L 563.2,323.2 L 565.3,322.9 L 567.4,323.9 L 573.5,324.6 L 576.3,321.0 L 584.7,317.3 L 588.4,320.3 L 594.7,320.3 L 586.7,330.1 L 586.8,361.8 L 592.2,369.0 L 585.8,372.5 L 583.5,376.1 L 580.0,376.7 L 578.7,382.8 L 575.8,386.3 L 574.0,392.1 L 570.2,395.0 Z" fill="#E4E0D4" stroke="#B0A898" stroke-width="0.5" stroke-linejoin="round"/>
<path d="M 435.2,282.8 L 428.2,279.0 L 425.0,276.5 L 424.4,273.8 L 425.9,270.2 L 425.9,266.6 L 420.5,261.2 L 419.5,257.5 L 419.6,255.4 L 416.2,252.8 L 416.1,247.8 L 414.2,244.4 L 410.9,244.9 L 411.9,241.7 L 414.3,238.1 L 413.2,234.5 L 416.2,231.8 L 414.3,229.8 L 416.8,224.4 L 421.0,218.0 L 428.9,218.6 L 428.5,184.1 L 428.6,180.5 L 439.2,180.5 L 439.2,163.1 L 476.3,163.1 L 512.1,163.1 L 548.7,163.1 L 551.7,171.6 L 549.6,173.2 L 551.0,182.1 L 554.4,192.5 L 557.9,194.7 L 562.9,197.9 L 558.3,202.8 L 551.5,204.3 L 548.6,206.9 L 547.6,212.7 L 543.7,225.5 L 544.7,229.0 L 543.2,236.4 L 539.4,245.0 L 533.9,249.3 L 529.9,255.9 L 529.0,259.5 L 524.6,261.9 L 521.9,271.0 L 522.0,278.8 L 521.9,272.1 L 520.6,271.9 L 520.8,267.6 L 519.7,264.6 L 514.9,261.2 L 513.8,254.9 L 514.9,248.5 L 510.6,247.9 L 510.0,249.8 L 504.5,250.3 L 506.7,252.8 L 507.5,258.0 L 502.4,262.8 L 497.8,269.1 L 493.1,270.0 L 485.3,264.9 L 481.8,266.7 L 480.9,269.2 L 476.1,270.9 L 475.8,272.6 L 466.6,272.6 L 465.3,270.9 L 458.7,270.6 L 455.4,272.0 L 452.8,271.3 L 448.1,266.2 L 446.5,263.8 L 439.8,265.0 L 437.3,269.1 L 434.9,276.8 L 431.8,278.5 L 428.9,279.4 L 435.2,282.8 Z" fill="#E4E0D4" stroke="#B0A898" stroke-width="0.5" stroke-linejoin="round"/>
<path d="M 428.5,184.1 L 428.9,218.6 L 421.0,218.0 L 416.8,224.4 L 414.3,229.8 L 416.2,231.8 L 413.2,234.5 L 414.3,238.1 L 411.9,241.7 L 410.9,244.9 L 414.2,244.4 L 416.1,247.8 L 416.2,252.8 L 419.6,255.4 L 419.5,257.5 L 413.7,259.0 L 409.0,262.5 L 402.3,272.0 L 393.6,276.0 L 384.7,275.5 L 382.1,276.3 L 383.0,279.3 L 378.2,282.4 L 374.3,285.7 L 362.7,289.1 L 360.4,287.1 L 358.8,286.9 L 357.1,289.2 L 349.5,289.8 L 351.0,287.5 L 348.0,281.5 L 346.7,277.9 L 342.7,276.4 L 337.3,271.3 L 339.3,267.2 L 343.5,268.1 L 346.1,267.5 L 351.3,267.6 L 346.2,259.7 L 346.6,253.9 L 345.9,248.1 L 342.3,242.6 L 343.2,238.5 L 337.3,238.3 L 337.3,232.7 L 333.5,229.4 L 337.4,218.0 L 349.2,209.8 L 349.7,198.5 L 353.3,180.9 L 355.3,177.1 L 351.4,174.1 L 351.3,171.4 L 347.8,169.1 L 345.6,155.6 L 354.9,150.8 L 391.7,167.5 L 428.5,184.1 Z" fill="#E4E0D4" stroke="#B0A898" stroke-width="0.5" stroke-linejoin="round"/>
<path d="M 359.3,602.8 L 363.8,598.5 L 367.4,600.9 L 369.0,604.6 L 373.1,605.2 L 378.9,606.8 L 383.9,606.2 L 392.1,601.8 L 392.1,569.7 L 394.6,571.0 L 400.1,579.2 L 399.2,584.5 L 401.3,587.6 L 407.9,586.7 L 412.5,582.8 L 416.9,580.2 L 419.1,576.0 L 423.6,574.0 L 427.5,575.1 L 431.9,577.5 L 439.4,577.9 L 445.3,575.9 L 446.3,573.2 L 447.9,569.0 L 452.9,568.3 L 455.7,565.1 L 458.8,559.3 L 467.0,552.8 L 480.1,546.4 L 483.8,546.5 L 488.3,548.0 L 491.4,546.9 L 496.3,547.8 L 500.7,560.0 L 503.1,566.2 L 501.5,575.9 L 502.3,579.0 L 497.6,577.4 L 495.0,578.0 L 494.1,580.6 L 491.6,583.8 L 491.7,586.8 L 497.2,591.6 L 502.6,590.6 L 504.4,586.8 L 511.4,586.8 L 509.1,593.2 L 508.1,600.4 L 505.7,604.3 L 499.4,608.7 L 497.6,609.9 L 493.7,614.4 L 491.1,618.8 L 485.8,625.1 L 475.4,634.0 L 468.9,639.2 L 461.9,643.2 L 452.3,646.6 L 447.6,647.0 L 446.4,649.4 L 440.8,648.2 L 436.2,649.8 L 426.2,648.1 L 420.6,649.2 L 416.8,648.7 L 407.3,652.2 L 399.4,653.5 L 393.7,656.8 L 389.5,657.0 L 385.6,653.9 L 382.5,653.8 L 378.5,649.9 L 378.1,651.1 L 376.9,648.8 L 376.9,643.7 L 373.9,637.8 L 376.9,636.3 L 376.7,629.6 L 370.6,621.5 L 366.0,614.1 L 366.0,614.1 L 359.3,602.8 Z M 475.9,606.1 L 471.9,603.4 L 467.6,605.2 L 462.6,608.6 L 457.6,614.1 L 464.6,620.8 L 467.9,619.9 L 469.6,617.1 L 474.7,615.8 L 476.3,612.9 L 479.1,608.7 L 475.9,606.1 Z" fill="#E4E0D4" stroke="#B0A898" stroke-width="0.5" stroke-linejoin="round"/>
<path d="M 475.9,606.1 L 479.1,608.7 L 476.3,612.9 L 474.7,615.8 L 469.6,617.1 L 467.9,619.9 L 464.6,620.8 L 457.6,614.1 L 462.6,608.6 L 467.6,605.2 L 471.9,603.4 L 475.9,606.1 Z" fill="#E4E0D4" stroke="#B0A898" stroke-width="0.5" stroke-linejoin="round"/>
<path d="M 496.3,547.8 L 491.4,546.9 L 488.3,548.0 L 483.8,546.5 L 480.1,546.4 L 474.2,542.5 L 467.1,541.1 L 464.4,535.6 L 464.3,532.6 L 460.4,531.6 L 449.9,522.1 L 447.0,517.0 L 445.2,515.5 L 441.6,508.5 L 452.0,509.5 L 454.9,510.5 L 458.1,510.3 L 463.2,504.7 L 471.2,497.5 L 474.5,496.8 L 475.6,493.8 L 480.9,490.4 L 487.9,489.2 L 488.5,492.4 L 496.2,492.2 L 500.4,494.1 L 502.4,496.2 L 506.8,496.8 L 511.6,499.6 L 511.6,510.6 L 509.8,516.7 L 509.4,523.2 L 510.9,525.7 L 509.9,530.9 L 508.5,531.6 L 506.0,537.9 L 496.3,547.8 Z" fill="#E4E0D4" stroke="#B0A898" stroke-width="0.5" stroke-linejoin="round"/>
<path d="M 480.1,546.4 L 467.0,552.8 L 458.8,559.3 L 455.7,565.1 L 452.9,568.3 L 447.9,569.0 L 446.3,573.2 L 445.3,575.9 L 439.4,577.9 L 431.9,577.5 L 427.5,575.1 L 423.6,574.0 L 419.1,576.0 L 416.9,580.2 L 412.5,582.8 L 407.9,586.7 L 401.3,587.6 L 399.2,584.5 L 400.1,579.2 L 394.6,571.0 L 392.1,569.7 L 392.1,544.3 L 401.2,544.0 L 401.5,513.0 L 408.3,512.7 L 422.6,509.7 L 426.1,513.3 L 432.0,509.9 L 434.8,509.8 L 440.0,507.9 L 441.6,508.5 L 445.2,515.5 L 447.0,517.0 L 449.9,522.1 L 460.4,531.6 L 464.3,532.6 L 464.4,535.6 L 467.1,541.1 L 474.2,542.5 L 480.1,546.4 Z" fill="#E4E0D4" stroke="#B0A898" stroke-width="0.5" stroke-linejoin="round"/>
<path d="M 392.1,569.7 L 392.1,601.8 L 383.9,606.2 L 378.9,606.8 L 373.1,605.2 L 369.0,604.6 L 367.4,600.9 L 363.8,598.5 L 359.3,602.8 L 352.5,596.2 L 348.9,589.9 L 346.8,581.4 L 344.6,575.1 L 341.5,561.7 L 341.3,551.3 L 340.1,546.6 L 336.5,543.0 L 331.7,535.8 L 326.9,525.4 L 324.9,519.9 L 317.4,511.4 L 316.8,504.8 L 321.2,503.1 L 326.8,501.6 L 332.7,501.9 L 338.2,505.8 L 339.6,505.2 L 377.0,504.8 L 383.4,509.0 L 405.8,510.2 L 422.7,506.7 L 430.3,504.7 L 436.3,505.2 L 439.9,507.2 L 440.0,507.9 L 434.8,509.8 L 432.0,509.9 L 426.1,513.3 L 422.6,509.7 L 408.3,512.7 L 401.5,513.0 L 401.2,544.0 L 392.1,544.3 L 392.1,569.7 Z" fill="#E4E0D4" stroke="#B0A898" stroke-width="0.5" stroke-linejoin="round"/>
<path d="M 54.3,236.2 L 50.5,229.4 L 45.9,226.3 L 50.0,224.6 L 54.4,218.5 L 56.6,214.1 L 59.8,211.3 L 64.4,212.0 L 68.9,210.1 L 74.0,210.1 L 78.4,212.6 L 84.6,214.9 L 90.1,221.3 L 96.2,227.3 L 96.7,232.7 L 98.5,237.7 L 101.9,240.1 L 102.7,243.5 L 102.3,246.2 L 101.0,246.7 L 95.9,246.0 L 95.2,246.9 L 93.2,247.1 L 86.6,245.0 L 82.1,244.9 L 65.1,244.6 L 62.6,245.5 L 59.5,245.3 L 54.7,246.7 L 53.1,240.0 L 61.5,240.2 L 63.8,239.0 L 65.4,238.9 L 68.8,236.9 L 72.8,238.7 L 76.8,238.9 L 80.8,236.9 L 78.9,234.4 L 75.9,235.9 L 73.0,235.9 L 69.4,233.7 L 66.5,233.9 L 64.4,235.9 L 54.3,236.2 Z" fill="#E4E0D4" stroke="#B0A898" stroke-width="0.5" stroke-linejoin="round"/>
<path d="M 102.3,246.2 L 102.7,243.5 L 101.9,240.1 L 98.5,237.7 L 96.7,232.7 L 96.2,227.3 L 99.3,225.7 L 100.9,220.6 L 103.8,220.4 L 110.3,222.8 L 115.5,221.1 L 119.0,221.7 L 120.4,219.7 L 157.4,219.6 L 159.5,213.5 L 157.9,212.4 L 153.4,174.9 L 149.0,137.4 L 163.1,137.2 L 194.2,156.2 L 225.4,175.2 L 227.5,179.2 L 233.3,181.7 L 237.6,183.1 L 237.7,188.7 L 247.9,187.8 L 247.9,207.8 L 242.9,213.7 L 242.1,219.0 L 233.9,220.4 L 221.3,221.1 L 217.9,224.2 L 212.0,224.6 L 206.1,224.6 L 203.8,222.9 L 198.7,224.2 L 190.1,227.8 L 188.3,230.5 L 181.2,234.4 L 179.9,236.6 L 176.0,238.4 L 171.6,237.2 L 169.0,239.3 L 167.7,245.3 L 160.4,252.5 L 160.6,255.5 L 158.1,259.1 L 158.7,264.2 L 154.9,265.5 L 152.7,266.6 L 151.3,262.9 L 148.6,263.8 L 147.0,263.7 L 145.3,266.2 L 138.2,266.1 L 135.6,264.8 L 134.4,265.6 L 131.6,263.1 L 132.1,260.5 L 131.0,259.5 L 129.0,260.4 L 129.4,257.5 L 131.2,255.3 L 127.5,251.7 L 126.4,249.3 L 124.3,247.3 L 122.5,247.1 L 120.3,248.3 L 117.3,249.5 L 114.7,251.4 L 110.8,250.7 L 108.2,248.5 L 106.7,248.2 L 104.3,249.3 L 102.8,249.4 L 102.3,246.2 Z" fill="#E4E0D4" stroke="#B0A898" stroke-width="0.5" stroke-linejoin="round"/>
<path d="M 51.1,171.8 L 53.1,168.9 L 89.2,168.9 L 87.5,156.4 L 89.7,151.9 L 98.4,151.1 L 98.1,128.9 L 128.4,129.4 L 128.4,116.2 L 163.1,137.2 L 149.0,137.4 L 153.4,174.9 L 157.9,212.4 L 159.5,213.5 L 157.4,219.6 L 120.4,219.7 L 119.0,221.7 L 115.5,221.1 L 110.3,222.8 L 103.8,220.4 L 100.9,220.6 L 99.3,225.7 L 96.2,227.3 L 90.1,221.3 L 84.6,214.9 L 78.4,212.6 L 74.0,210.1 L 68.9,210.1 L 64.4,212.0 L 59.8,211.3 L 56.6,214.1 L 55.8,209.4 L 58.4,205.1 L 59.6,196.9 L 58.5,188.3 L 57.4,184.0 L 58.3,179.7 L 56.0,175.5 L 51.1,171.8 Z" fill="#E4E0D4" stroke="#B0A898" stroke-width="0.5" stroke-linejoin="round"/>
<path d="M 233.4,299.9 L 225.7,301.0 L 223.5,295.0 L 223.9,275.0 L 222.0,273.2 L 221.7,268.9 L 218.5,265.9 L 215.7,263.3 L 216.8,258.7 L 220.0,257.8 L 221.9,254.0 L 226.4,253.1 L 228.4,250.5 L 231.5,248.0 L 234.8,248.0 L 241.9,253.0 L 241.5,255.9 L 243.6,261.0 L 241.7,264.5 L 242.7,266.9 L 238.2,272.2 L 235.4,274.9 L 233.7,280.4 L 233.9,285.9 L 233.4,299.9 Z" fill="#E4E0D4" stroke="#B0A898" stroke-width="0.5" stroke-linejoin="round"/>
<path d="M 345.6,155.6 L 347.8,169.1 L 351.3,171.4 L 351.4,174.1 L 355.3,177.1 L 353.3,180.9 L 349.7,198.5 L 349.2,209.8 L 337.4,218.0 L 333.5,229.4 L 337.3,232.7 L 337.3,238.3 L 343.2,238.5 L 342.3,242.6 L 339.7,243.1 L 339.4,245.8 L 337.7,246.0 L 331.4,236.5 L 329.3,236.2 L 322.0,241.0 L 314.9,238.5 L 309.9,238.0 L 307.3,239.2 L 301.9,238.9 L 296.4,242.6 L 291.7,242.8 L 280.5,238.3 L 276.2,240.5 L 271.5,240.3 L 268.0,237.0 L 258.8,233.8 L 248.8,234.8 L 246.4,236.7 L 245.1,241.7 L 242.5,245.2 L 241.9,253.0 L 234.8,248.0 L 231.5,248.0 L 228.4,250.5 L 228.6,244.6 L 218.0,242.6 L 217.7,238.4 L 212.5,232.7 L 211.3,228.8 L 212.0,224.6 L 217.9,224.2 L 221.3,221.1 L 233.9,220.4 L 242.1,219.0 L 242.9,213.7 L 247.9,207.8 L 247.9,187.8 L 260.9,183.9 L 287.6,166.9 L 319.2,150.3 L 333.8,154.0 L 339.0,158.8 L 345.6,155.6 Z" fill="#E4E0D4" stroke="#B0A898" stroke-width="0.5" stroke-linejoin="round"/>
<path d="M 233.4,299.9 L 233.9,285.9 L 233.7,280.4 L 235.4,274.9 L 238.2,272.2 L 242.7,266.9 L 241.7,264.5 L 243.6,261.0 L 241.5,255.9 L 241.9,253.0 L 242.5,245.2 L 245.1,241.7 L 246.4,236.7 L 248.8,234.8 L 258.8,233.8 L 268.0,237.0 L 271.5,240.3 L 276.2,240.5 L 280.5,238.3 L 291.7,242.8 L 296.4,242.6 L 301.9,238.9 L 307.3,239.2 L 309.9,238.0 L 314.9,238.5 L 322.0,241.0 L 329.3,236.2 L 331.4,236.5 L 337.7,246.0 L 339.4,245.8 L 343.0,249.3 L 342.0,250.9 L 341.5,253.7 L 333.8,260.5 L 331.3,266.0 L 330.0,270.5 L 328.1,272.5 L 326.2,278.6 L 321.3,282.1 L 319.8,286.5 L 317.8,290.0 L 316.9,293.7 L 310.6,296.6 L 305.4,293.0 L 301.9,293.2 L 296.4,298.2 L 293.7,298.3 L 289.3,306.7 L 287.0,312.9 L 277.4,316.0 L 273.9,315.5 L 270.3,317.5 L 263.0,317.3 L 258.0,311.9 L 255.0,305.6 L 248.4,299.8 L 241.5,299.9 L 233.4,299.9 Z" fill="#C8DEC8" stroke="#B0A898" stroke-width="0.5" stroke-linejoin="round"/>
<path d="M 342.3,242.6 L 345.9,248.1 L 346.6,253.9 L 346.2,259.7 L 351.3,267.6 L 346.1,267.5 L 343.5,268.1 L 339.3,267.2 L 337.3,271.3 L 342.7,276.4 L 346.7,277.9 L 348.0,281.5 L 351.0,287.5 L 349.5,289.8 L 344.9,298.6 L 342.7,300.2 L 341.9,307.0 L 342.9,310.6 L 342.1,313.2 L 346.5,317.7 L 347.3,320.9 L 350.7,325.4 L 354.9,328.1 L 355.3,332.1 L 356.3,334.6 L 355.6,339.3 L 348.3,337.3 L 340.8,335.0 L 329.2,334.6 L 328.0,334.2 L 322.6,335.3 L 317.0,334.1 L 312.6,334.7 L 297.6,334.5 L 298.9,327.6 L 295.3,321.9 L 291.1,320.4 L 289.2,316.5 L 286.9,315.3 L 287.0,312.9 L 289.3,306.7 L 293.7,298.3 L 296.4,298.2 L 301.9,293.2 L 305.4,293.0 L 310.6,296.6 L 316.9,293.7 L 317.8,290.0 L 319.8,286.5 L 321.3,282.1 L 326.2,278.6 L 328.1,272.5 L 330.0,270.5 L 331.3,266.0 L 333.8,260.5 L 341.5,253.7 L 342.0,250.9 L 343.0,249.3 L 339.4,245.8 L 339.7,243.1 L 342.3,242.6 Z" fill="#E4E0D4" stroke="#B0A898" stroke-width="0.5" stroke-linejoin="round"/>
<path d="M 216.8,258.7 L 215.7,263.3 L 218.5,265.9 L 221.7,268.9 L 222.0,273.2 L 223.9,275.0 L 223.5,295.0 L 225.7,301.0 L 218.3,302.8 L 216.3,299.8 L 213.8,294.2 L 213.1,289.9 L 215.1,282.1 L 212.8,278.9 L 211.9,272.1 L 211.9,265.8 L 208.1,261.3 L 208.8,258.6 L 216.8,258.7 Z" fill="#E4E0D4" stroke="#B0A898" stroke-width="0.5" stroke-linejoin="round"/>
<path d="M 208.8,258.6 L 208.1,261.3 L 211.9,265.8 L 211.9,272.1 L 212.8,278.9 L 215.1,282.1 L 213.1,289.9 L 213.8,294.2 L 216.3,299.8 L 218.3,302.8 L 203.8,307.9 L 198.7,310.9 L 190.4,313.4 L 182.2,310.9 L 182.6,307.5 L 178.6,300.0 L 181.0,290.2 L 184.9,282.9 L 182.4,270.5 L 181.2,264.0 L 181.4,259.0 L 197.4,258.6 L 201.5,259.3 L 204.5,257.9 L 208.8,258.6 Z" fill="#E4E0D4" stroke="#B0A898" stroke-width="0.5" stroke-linejoin="round"/>
<path d="M 134.4,265.6 L 135.6,264.8 L 138.2,266.1 L 145.3,266.2 L 147.0,263.7 L 148.6,263.8 L 151.3,262.9 L 152.7,266.6 L 154.9,265.5 L 158.7,264.2 L 162.8,266.1 L 164.4,269.0 L 168.6,270.8 L 171.8,268.6 L 176.1,268.3 L 182.4,270.5 L 184.9,282.9 L 181.0,290.2 L 178.6,300.0 L 182.6,307.5 L 182.2,310.9 L 178.0,311.0 L 171.5,309.3 L 165.6,309.4 L 154.7,310.9 L 148.3,313.4 L 139.2,316.6 L 137.4,316.4 L 138.1,309.2 L 139.0,308.2 L 138.7,304.7 L 134.8,301.1 L 131.8,300.5 L 129.2,298.1 L 131.2,294.3 L 130.2,290.1 L 130.7,287.5 L 132.1,287.5 L 132.7,283.7 L 132.0,282.0 L 132.8,280.8 L 136.3,279.8 L 134.0,272.8 L 131.9,269.2 L 132.6,266.3 L 134.4,265.6 Z" fill="#E4E0D4" stroke="#B0A898" stroke-width="0.5" stroke-linejoin="round"/>
<path d="M 82.1,244.9 L 86.6,245.0 L 93.2,247.1 L 95.2,246.9 L 95.9,246.0 L 101.0,246.7 L 102.3,246.2 L 102.8,249.4 L 104.3,249.3 L 106.7,248.2 L 108.2,248.5 L 110.8,250.7 L 114.7,251.4 L 117.3,249.5 L 120.3,248.3 L 122.5,247.1 L 124.3,247.3 L 126.4,249.3 L 127.5,251.7 L 131.2,255.3 L 129.4,257.5 L 129.0,260.4 L 131.0,259.5 L 132.1,260.5 L 131.6,263.1 L 134.4,265.6 L 132.6,266.3 L 131.9,269.2 L 134.0,272.8 L 136.3,279.8 L 132.8,280.8 L 132.0,282.0 L 132.7,283.7 L 132.1,287.5 L 130.7,287.5 L 128.1,287.3 L 126.2,290.8 L 123.6,290.8 L 121.8,288.9 L 122.4,285.4 L 118.5,280.1 L 116.1,281.1 L 114.1,281.3 L 111.6,281.8 L 111.7,278.6 L 110.2,276.3 L 110.5,273.8 L 108.5,270.1 L 106.0,267.0 L 98.6,267.0 L 96.4,268.6 L 93.9,268.8 L 92.3,270.7 L 91.2,273.1 L 86.3,276.9 L 82.3,271.8 L 78.7,268.4 L 76.3,267.3 L 74.0,265.5 L 73.0,261.7 L 71.6,259.8 L 68.9,258.4 L 73.0,254.1 L 75.8,254.3 L 78.2,252.8 L 80.3,252.8 L 81.7,251.7 L 80.9,248.8 L 82.0,247.9 L 82.1,244.9 Z" fill="#E4E0D4" stroke="#B0A898" stroke-width="0.5" stroke-linejoin="round"/>
<path d="M 54.7,246.7 L 59.5,245.3 L 62.6,245.5 L 65.1,244.6 L 82.1,244.9 L 82.0,247.9 L 80.9,248.8 L 81.7,251.7 L 80.3,252.8 L 78.2,252.8 L 75.8,254.3 L 73.0,254.1 L 68.9,258.4 L 64.0,254.7 L 60.1,254.2 L 58.0,251.7 L 58.1,250.4 L 55.2,248.5 L 54.7,246.7 Z" fill="#E4E0D4" stroke="#B0A898" stroke-width="0.5" stroke-linejoin="round"/>
<path d="M 130.7,287.5 L 130.2,290.1 L 131.2,294.3 L 129.2,298.1 L 131.8,300.5 L 134.8,301.1 L 138.7,304.7 L 139.0,308.2 L 138.1,309.2 L 137.4,316.4 L 135.0,316.5 L 125.4,312.3 L 117.1,305.7 L 109.2,301.0 L 103.0,295.4 L 105.2,292.6 L 105.7,290.0 L 109.8,285.3 L 114.1,281.3 L 116.1,281.1 L 118.5,280.1 L 122.4,285.4 L 121.8,288.9 L 123.6,290.8 L 126.2,290.8 L 128.1,287.3 L 130.7,287.5 Z" fill="#E4E0D4" stroke="#B0A898" stroke-width="0.5" stroke-linejoin="round"/>
<path d="M 86.3,276.9 L 91.2,273.1 L 92.3,270.7 L 93.9,268.8 L 96.4,268.6 L 98.6,267.0 L 106.0,267.0 L 108.5,270.1 L 110.5,273.8 L 110.2,276.3 L 111.7,278.6 L 111.6,281.8 L 114.1,281.3 L 109.8,285.3 L 105.7,290.0 L 105.2,292.6 L 103.0,295.4 L 100.5,294.7 L 93.9,291.2 L 89.1,286.6 L 87.4,283.4 L 86.3,276.9 Z" fill="#E4E0D4" stroke="#B0A898" stroke-width="0.5" stroke-linejoin="round"/>
<path d="M 158.7,264.2 L 158.1,259.1 L 160.6,255.5 L 160.4,252.5 L 167.7,245.3 L 169.0,239.3 L 171.6,237.2 L 176.0,238.4 L 179.9,236.6 L 181.2,234.4 L 188.3,230.5 L 190.1,227.8 L 198.7,224.2 L 203.8,222.9 L 206.1,224.6 L 212.0,224.6 L 211.3,228.8 L 212.5,232.7 L 217.7,238.4 L 218.0,242.6 L 228.6,244.6 L 228.4,250.5 L 226.4,253.1 L 221.9,254.0 L 220.0,257.8 L 216.8,258.7 L 208.8,258.6 L 204.5,257.9 L 201.5,259.3 L 197.4,258.6 L 181.4,259.0 L 181.2,264.0 L 182.4,270.5 L 176.1,268.3 L 171.8,268.6 L 168.6,270.8 L 164.4,269.0 L 162.8,266.1 L 158.7,264.2 Z" fill="#E4E0D4" stroke="#B0A898" stroke-width="0.5" stroke-linejoin="round"/>
<path d="M 461.1,308.8 L 458.1,309.8 L 452.1,309.6 L 445.2,308.7 L 441.8,309.4 L 440.4,311.5 L 437.4,311.8 L 433.8,309.9 L 423.5,314.3 L 419.3,313.4 L 418.0,314.1 L 415.3,319.3 L 408.4,317.6 L 401.6,316.8 L 395.7,313.6 L 388.2,310.6 L 383.2,313.4 L 379.6,317.8 L 378.8,323.9 L 372.9,323.4 L 366.6,321.9 L 361.1,326.5 L 356.3,334.6 L 355.3,332.1 L 354.9,328.1 L 350.7,325.4 L 347.3,320.9 L 346.5,317.7 L 342.1,313.2 L 342.9,310.6 L 341.9,307.0 L 342.7,300.2 L 344.9,298.6 L 349.5,289.8 L 357.1,289.2 L 358.8,286.9 L 360.4,287.1 L 362.7,289.1 L 374.3,285.7 L 378.2,282.4 L 383.0,279.3 L 382.1,276.3 L 384.7,275.5 L 393.6,276.0 L 402.3,272.0 L 409.0,262.5 L 413.7,259.0 L 419.5,257.5 L 420.5,261.2 L 425.9,266.6 L 425.9,270.2 L 424.4,273.8 L 425.0,276.5 L 428.2,279.0 L 435.2,282.8 L 440.3,286.3 L 440.3,289.1 L 446.6,293.7 L 450.4,297.4 L 452.7,302.6 L 459.6,306.1 L 461.1,308.8 Z" fill="#E4E0D4" stroke="#B0A898" stroke-width="0.5" stroke-linejoin="round"/>
<path d="M 378.8,323.9 L 378.2,329.1 L 375.5,333.8 L 373.7,339.2 L 372.5,346.9 L 373.0,351.8 L 371.5,354.9 L 371.3,358.0 L 370.2,360.8 L 364.1,365.0 L 359.9,369.5 L 355.9,377.9 L 356.2,385.1 L 353.9,387.9 L 348.5,392.1 L 343.1,397.6 L 339.6,396.0 L 339.0,393.6 L 334.0,393.5 L 330.9,396.8 L 328.4,395.9 L 325.0,392.9 L 322.2,394.4 L 318.5,398.1 L 310.9,388.9 L 317.9,384.1 L 314.4,378.4 L 317.6,376.2 L 323.8,375.1 L 324.6,371.3 L 329.5,375.5 L 337.6,375.8 L 340.5,371.7 L 341.6,365.9 L 340.6,359.2 L 336.3,354.0 L 340.3,343.9 L 338.0,342.2 L 331.1,342.9 L 328.5,338.4 L 329.2,334.6 L 340.8,335.0 L 348.3,337.3 L 355.6,339.3 L 356.3,334.6 L 361.1,326.5 L 366.6,321.9 L 372.9,323.4 L 378.8,323.9 Z" fill="#E4E0D4" stroke="#B0A898" stroke-width="0.5" stroke-linejoin="round"/>
<path d="M 312.6,334.7 L 317.0,334.1 L 322.6,335.3 L 328.0,334.2 L 329.2,334.6 L 328.5,338.4 L 331.1,342.9 L 338.0,342.2 L 340.3,343.9 L 336.3,354.0 L 340.6,359.2 L 341.6,365.9 L 340.5,371.7 L 337.6,375.8 L 329.5,375.5 L 324.6,371.3 L 323.8,375.1 L 317.6,376.2 L 314.4,378.4 L 317.9,384.1 L 310.9,388.9 L 301.4,380.2 L 295.3,373.0 L 289.7,364.0 L 290.0,361.1 L 292.0,358.3 L 294.3,352.0 L 296.1,345.6 L 299.2,345.1 L 312.7,345.2 L 312.6,334.7 Z" fill="#E4E0D4" stroke="#B0A898" stroke-width="0.5" stroke-linejoin="round"/>
<path d="M 297.6,334.5 L 312.6,334.7 L 312.7,345.2 L 299.2,345.1 L 296.1,345.6 L 294.4,344.3 L 297.6,334.5 Z" fill="#E4E0D4" stroke="#B0A898" stroke-width="0.5" stroke-linejoin="round"/>
<path d="M 492.2,426.8 L 496.0,429.1 L 499.7,430.5 L 505.6,432.0 L 510.8,434.6 L 515.1,438.5 L 517.5,445.8 L 515.9,448.2 L 514.1,455.3 L 515.8,462.5 L 512.9,465.5 L 510.1,473.6 L 515.0,475.8 L 487.0,483.0 L 487.9,489.2 L 480.9,490.4 L 475.6,493.8 L 474.5,496.8 L 471.2,497.5 L 463.2,504.7 L 458.1,510.3 L 454.9,510.5 L 452.0,509.5 L 441.6,508.5 L 440.0,507.9 L 439.9,507.2 L 436.3,505.2 L 430.3,504.7 L 422.7,506.7 L 416.7,501.3 L 410.5,494.1 L 410.9,466.5 L 430.1,466.6 L 429.3,463.6 L 430.7,460.3 L 429.1,456.3 L 430.1,452.0 L 429.2,449.3 L 432.3,449.6 L 432.9,452.3 L 437.2,452.0 L 443.1,452.9 L 446.1,456.8 L 453.5,458.0 L 459.2,455.3 L 461.2,459.8 L 468.3,461.0 L 471.7,464.7 L 475.5,469.5 L 482.6,469.6 L 481.8,460.2 L 479.3,461.8 L 472.8,458.4 L 470.3,456.9 L 471.5,448.1 L 473.1,437.9 L 471.0,434.0 L 473.7,428.5 L 476.1,427.4 L 488.5,426.0 L 492.2,426.8 Z" fill="#E4E0D4" stroke="#B0A898" stroke-width="0.5" stroke-linejoin="round"/>
<path d="M 510.8,434.6 L 519.8,436.2 L 521.7,438.6 L 524.8,442.7 L 527.4,454.5 L 524.8,461.1 L 527.4,472.4 L 530.6,472.3 L 533.9,475.1 L 537.8,481.4 L 538.6,492.5 L 534.6,494.4 L 531.8,500.4 L 525.8,495.0 L 525.1,488.9 L 527.0,484.9 L 526.5,481.4 L 522.8,479.2 L 520.3,480.0 L 515.0,475.8 L 510.1,473.6 L 512.9,465.5 L 515.8,462.5 L 514.1,455.3 L 515.9,448.2 L 517.5,445.8 L 515.1,438.5 L 510.8,434.6 Z" fill="#E4E0D4" stroke="#B0A898" stroke-width="0.5" stroke-linejoin="round"/>
<path d="M 527.4,454.5 L 534.3,453.8 L 545.4,456.2 L 547.8,455.1 L 554.3,454.9 L 557.6,452.3 L 563.1,452.5 L 573.2,449.1 L 580.5,444.0 L 580.5,444.0 L 580.5,444.0 L 582.0,447.9 L 581.6,456.6 L 582.8,464.2 L 583.1,477.8 L 584.8,482.1 L 582.0,488.3 L 578.4,494.3 L 572.5,499.7 L 564.1,503.0 L 553.7,507.2 L 543.3,516.6 L 539.7,518.1 L 533.3,524.3 L 529.5,526.3 L 528.7,532.5 L 533.1,539.1 L 534.9,544.2 L 535.0,546.8 L 536.7,546.4 L 536.4,554.9 L 534.9,558.9 L 537.1,560.4 L 535.7,564.1 L 531.8,567.1 L 524.2,570.1 L 513.1,574.8 L 509.1,578.0 L 509.9,581.7 L 512.2,582.2 L 511.4,586.8 L 504.4,586.8 L 503.7,582.9 L 502.3,579.0 L 501.5,575.9 L 503.1,566.2 L 500.7,560.0 L 496.3,547.8 L 506.0,537.9 L 508.5,531.6 L 509.9,530.9 L 510.9,525.7 L 509.4,523.2 L 509.8,516.7 L 511.6,510.6 L 511.6,499.6 L 506.8,496.8 L 502.4,496.2 L 500.4,494.1 L 496.2,492.2 L 488.5,492.4 L 487.9,489.2 L 487.0,483.0 L 515.0,475.8 L 520.3,480.0 L 522.8,479.2 L 526.5,481.4 L 527.0,484.9 L 525.1,488.9 L 525.8,495.0 L 531.8,500.4 L 534.6,494.4 L 538.6,492.5 L 537.8,481.4 L 533.9,475.1 L 530.6,472.3 L 527.4,472.4 L 524.8,461.1 L 527.4,454.5 Z" fill="#E4E0D4" stroke="#B0A898" stroke-width="0.5" stroke-linejoin="round"/>
<path d="M 504.4,586.8 L 502.6,590.6 L 497.2,591.6 L 491.7,586.8 L 491.6,583.8 L 494.1,580.6 L 495.0,578.0 L 497.6,577.4 L 502.3,579.0 L 503.7,582.9 L 504.4,586.8 Z" fill="#E4E0D4" stroke="#B0A898" stroke-width="0.5" stroke-linejoin="round"/>
<path d="M 328.4,395.9 L 325.1,397.7 L 323.6,400.0 L 323.3,403.8 L 320.9,404.7 L 318.5,398.1 L 322.2,394.4 L 325.0,392.9 L 328.4,395.9 Z M 322.2,407.4 L 326.0,406.2 L 328.7,406.4 L 331.9,405.3 L 359.2,405.4 L 361.4,411.9 L 364.1,417.1 L 366.2,419.9 L 369.8,424.5 L 375.9,423.8 L 378.9,422.6 L 384.0,423.8 L 385.4,421.6 L 387.7,416.6 L 393.4,416.2 L 393.9,414.7 L 398.6,414.7 L 397.8,417.8 L 409.0,417.7 L 409.2,423.2 L 411.1,426.6 L 409.7,431.8 L 410.4,437.1 L 413.4,440.4 L 413.0,450.7 L 415.2,449.9 L 419.2,450.1 L 425.0,448.8 L 429.2,449.3 L 430.1,452.0 L 429.1,456.3 L 430.7,460.3 L 429.3,463.6 L 430.1,466.6 L 410.9,466.5 L 410.5,494.1 L 416.7,501.3 L 422.7,506.7 L 405.8,510.2 L 383.4,509.0 L 377.0,504.8 L 339.6,505.2 L 338.2,505.8 L 332.7,501.9 L 326.8,501.6 L 321.2,503.1 L 316.8,504.8 L 315.9,499.3 L 317.2,491.6 L 320.4,483.7 L 320.9,480.0 L 323.9,472.1 L 326.1,468.6 L 331.4,462.9 L 334.3,459.0 L 335.3,452.6 L 334.8,447.6 L 332.1,444.5 L 329.6,439.3 L 327.3,434.0 L 327.8,432.2 L 330.7,428.8 L 327.9,420.4 L 326.0,414.6 L 321.4,409.1 L 322.2,407.4 Z" fill="#E4E0D4" stroke="#B0A898" stroke-width="0.5" stroke-linejoin="round"/>
<path d="M 489.7,375.3 L 490.2,378.8 L 492.2,380.7 L 492.3,383.6 L 490.0,385.4 L 486.4,389.9 L 483.1,393.1 L 479.2,393.5 L 478.7,383.0 L 476.3,379.0 L 481.9,379.7 L 484.8,374.8 L 489.7,375.3 Z" fill="#E4E0D4" stroke="#B0A898" stroke-width="0.5" stroke-linejoin="round"/>
<path d="M 538.1,70.0 L 536.5,72.7 L 533.2,71.5 L 531.2,77.3 L 533.6,78.3 L 531.2,79.5 L 530.8,81.8 L 535.1,80.6 L 535.4,84.0 L 530.8,97.9 L 529.8,95.6 L 524.7,82.9 L 524.7,82.9 L 524.7,82.9 L 527.4,80.1 L 526.7,79.6 L 529.2,75.5 L 531.1,69.0 L 532.4,66.8 L 532.6,66.7 L 535.7,66.7 L 536.6,65.2 L 539.0,65.1 L 539.2,68.6 L 537.9,69.9 L 538.1,70.0 Z" fill="#E4E0D4" stroke="#B0A898" stroke-width="0.5" stroke-linejoin="round"/>
<path d="M 539.0,65.1 L 536.6,65.2 L 535.7,66.7 L 532.6,66.7 L 535.9,59.6 L 540.5,53.5 L 540.7,53.2 L 544.8,53.6 L 546.3,57.0 L 541.3,60.3 L 539.0,65.1 Z" fill="#E4E0D4" stroke="#B0A898" stroke-width="0.5" stroke-linejoin="round"/>
<path d="M 665.7,462.8 L 668.1,466.4 L 670.4,472.2 L 671.9,482.6 L 674.3,486.7 L 673.3,490.9 L 671.7,493.4 L 668.6,488.3 L 666.8,490.9 L 668.6,497.4 L 667.8,501.0 L 665.2,503.1 L 664.7,510.4 L 661.0,520.6 L 656.5,532.5 L 650.8,549.0 L 647.2,561.1 L 643.1,571.2 L 635.6,573.2 L 627.5,576.9 L 622.2,574.7 L 614.9,571.6 L 612.3,567.0 L 611.7,559.3 L 608.5,552.4 L 607.6,546.1 L 609.3,539.8 L 613.5,538.3 L 613.6,535.4 L 618.0,528.8 L 618.8,523.3 L 616.7,519.2 L 614.9,513.7 L 614.2,505.7 L 617.4,500.8 L 618.6,495.3 L 623.2,495.0 L 628.4,493.2 L 631.8,491.6 L 635.8,491.5 L 641.1,486.6 L 648.7,481.2 L 651.5,476.8 L 650.2,473.1 L 654.1,474.2 L 659.2,468.1 L 659.4,462.9 L 662.4,459.0 L 665.7,462.8 Z" fill="#E4E0D4" stroke="#B0A898" stroke-width="0.5" stroke-linejoin="round"/>
<path d="M 535.1,80.6 L 530.8,81.8 L 531.2,79.5 L 533.6,78.3 L 531.2,77.3 L 533.2,71.5 L 536.5,72.7 L 536.5,78.1 L 535.1,80.6 Z" fill="#E4E0D4" stroke="#B0A898" stroke-width="0.5" stroke-linejoin="round"/>
<path d="M 54.3,236.2 L 64.4,235.9 L 66.5,233.9 L 69.4,233.7 L 73.0,235.9 L 75.9,235.9 L 78.9,234.4 L 80.8,236.9 L 76.8,238.9 L 72.8,238.7 L 68.8,236.9 L 65.4,238.9 L 63.8,239.0 L 61.5,240.2 L 53.1,240.0 L 54.3,236.2 Z" fill="#E4E0D4" stroke="#B0A898" stroke-width="0.5" stroke-linejoin="round"/>
<path d="M 296.0,90.9 L 292.1,75.3 L 286.4,71.8 L 286.3,69.7 L 278.8,64.5 L 278.0,57.9 L 283.6,53.1 L 285.8,45.9 L 284.4,37.6 L 286.2,33.2 L 296.3,29.7 L 302.7,30.7 L 302.5,35.1 L 310.3,31.9 L 310.9,33.6 L 306.3,37.8 L 306.3,41.8 L 309.5,44.0 L 308.3,51.5 L 302.2,55.9 L 303.9,60.6 L 308.7,60.8 L 311.0,64.9 L 314.5,66.3 L 314.0,73.0 L 309.5,75.4 L 306.7,78.2 L 300.3,81.6 L 301.3,85.2 L 300.5,88.9 L 296.0,90.9 Z" fill="#E4E0D4" stroke="#B0A898" stroke-width="0.5" stroke-linejoin="round"/>
<path d="M 128.4,116.2 L 128.6,114.5 L 128.6,113.9 L 128.5,103.6 L 143.4,97.2 L 152.6,95.9 L 160.2,93.5 L 163.7,89.2 L 174.5,85.7 L 174.9,79.3 L 180.2,78.6 L 184.4,75.3 L 196.5,73.9 L 198.2,70.5 L 195.7,68.6 L 192.5,59.5 L 192.0,54.2 L 188.5,48.6 L 197.4,43.9 L 207.4,42.4 L 213.2,38.8 L 222.1,36.1 L 237.7,34.6 L 253.0,33.9 L 257.6,35.2 L 266.3,31.7 L 276.2,31.7 L 279.9,33.7 L 286.2,33.2 L 284.4,37.6 L 285.8,45.9 L 283.6,53.1 L 278.0,57.9 L 278.8,64.5 L 286.3,69.7 L 286.4,71.8 L 292.1,75.3 L 296.0,90.9 L 299.0,98.5 L 299.5,102.6 L 297.9,109.7 L 298.5,113.6 L 297.4,118.4 L 298.2,123.9 L 294.5,127.5 L 300.0,133.8 L 300.3,137.6 L 303.6,142.4 L 307.9,140.8 L 315.2,144.9 L 319.2,150.3 L 287.6,166.9 L 260.9,183.9 L 247.9,187.8 L 237.7,188.7 L 237.6,183.1 L 233.3,181.7 L 227.5,179.2 L 225.4,175.2 L 194.2,156.2 L 163.1,137.2 L 128.4,116.2 Z" fill="#E4E0D4" stroke="#B0A898" stroke-width="0.5" stroke-linejoin="round"/>
<path d="M 536.5,72.7 L 538.1,70.0 L 548.4,73.4 L 566.5,64.2 L 570.2,74.8 L 568.4,76.1 L 549.9,80.4 L 559.1,89.1 L 556.1,90.6 L 554.6,93.5 L 547.5,94.7 L 545.3,97.8 L 541.3,100.5 L 531.1,99.1 L 530.8,97.9 L 535.4,84.0 L 535.1,80.6 L 536.5,78.1 L 536.5,72.7 Z" fill="#E4E0D4" stroke="#B0A898" stroke-width="0.5" stroke-linejoin="round"/>
<path d="M 684.4,143.6 L 686.1,143.2 L 686.4,145.5 L 693.6,144.2 L 701.3,144.4 L 706.8,144.6 L 713.2,138.8 L 720.1,133.2 L 725.9,127.8 L 727.6,130.8 L 728.9,137.7 L 724.2,137.7 L 723.4,143.4 L 725.1,144.6 L 720.9,146.3 L 720.9,149.8 L 718.2,153.4 L 717.9,156.9 L 716.1,158.8 L 688.3,154.4 L 684.8,145.6 L 684.4,143.6 Z" fill="#E4E0D4" stroke="#B0A898" stroke-width="0.5" stroke-linejoin="round"/>
<path d="M 677.3,139.1 L 676.7,132.8 L 679.2,128.3 L 681.7,127.3 L 684.5,130.0 L 684.7,135.1 L 682.7,140.3 L 680.1,140.9 L 677.3,139.1 Z" fill="#E4E0D4" stroke="#B0A898" stroke-width="0.5" stroke-linejoin="round"/>
<path d="M 651.2,93.8 L 653.1,97.6 L 652.3,99.6 L 655.3,106.1 L 648.7,106.4 L 646.4,102.2 L 638.2,101.4 L 645.0,93.0 L 651.2,93.8 Z" fill="#E4E0D4" stroke="#B0A898" stroke-width="0.5" stroke-linejoin="round"/>
<path d="M 570.2,74.8 L 566.5,64.2 L 586.9,55.1 L 590.4,44.6 L 589.5,38.3 L 594.5,36.1 L 599.3,30.7 L 603.2,29.3 L 614.0,30.5 L 617.2,32.7 L 621.6,31.2 L 627.6,41.6 L 633.7,44.2 L 634.4,49.3 L 629.7,52.3 L 627.6,59.1 L 634.0,67.3 L 645.3,72.1 L 650.0,78.7 L 648.5,85.0 L 651.5,85.0 L 651.5,89.6 L 656.7,94.2 L 651.2,93.8 L 645.0,93.0 L 638.2,101.4 L 621.1,100.7 L 595.0,83.2 L 581.3,77.1 L 570.2,74.8 Z" fill="#E4E0D4" stroke="#B0A898" stroke-width="0.5" stroke-linejoin="round"/>
<path d="M 717.9,156.9 L 718.2,153.4 L 720.9,149.8 L 720.9,146.3 L 725.1,144.6 L 723.4,143.4 L 724.2,137.7 L 728.9,137.7 L 733.0,143.6 L 738.2,146.8 L 744.9,147.9 L 750.4,149.5 L 754.6,154.5 L 757.1,157.4 L 760.4,158.5 L 760.3,160.4 L 757.0,165.6 L 755.5,168.0 L 751.6,170.8 L 748.2,176.8 L 744.0,176.3 L 742.1,178.4 L 740.6,182.8 L 741.7,188.6 L 740.9,189.7 L 736.6,189.6 L 730.9,192.9 L 730.0,197.1 L 727.8,198.9 L 722.1,198.9 L 718.5,201.1 L 718.5,204.6 L 714.1,207.0 L 709.0,206.2 L 702.8,209.1 L 698.5,209.6 L 695.5,203.5 L 688.3,189.2 L 716.0,180.5 L 722.2,163.1 L 717.9,156.9 Z M 727.6,130.8 L 725.9,127.8 L 728.6,124.9 L 729.7,125.6 L 728.8,129.2 L 727.6,130.8 Z" fill="#E4E0D4" stroke="#B0A898" stroke-width="0.5" stroke-linejoin="round"/>
<path d="M 693.0,-8.9 L 697.0,-11.8 L 707.5,-13.6 L 713.7,-11.2 L 720.2,-4.3 L 724.9,-4.8 L 735.3,-4.9 L 733.8,-9.3 L 741.7,-12.3 L 749.5,-17.3 L 761.9,-12.7 L 762.9,-5.8 L 766.4,-4.0 L 776.4,-4.4 L 779.5,-2.8 L 784.0,6.1 L 794.6,12.1 L 800.6,16.2 L 810.3,20.5 L 822.5,24.2 L 822.3,29.5 L 819.5,29.3 L 815.1,26.9 L 813.7,30.0 L 805.9,31.7 L 804.1,38.7 L 798.9,41.3 L 791.6,42.6 L 789.7,46.6 L 782.7,47.7 L 773.3,44.4 L 772.5,37.1 L 765.6,36.8 L 755.1,29.1 L 747.7,28.2 L 737.5,23.7 L 730.9,22.9 L 726.9,24.6 L 720.7,24.3 L 714.2,29.3 L 706.0,31.0 L 704.3,24.8 L 705.7,15.7 L 698.5,12.8 L 700.8,6.8 L 694.7,6.3 L 696.8,-1.0 L 705.5,1.1 L 713.6,-1.7 L 706.9,-6.9 L 704.2,-11.8 L 696.8,-9.6 L 695.8,-3.3 L 693.0,-8.9 Z" fill="#E4E0D4" stroke="#B0A898" stroke-width="0.5" stroke-linejoin="round"/>
<path d="M 656.7,94.2 L 651.5,89.6 L 651.5,85.0 L 648.5,85.0 L 650.0,78.7 L 645.3,72.1 L 634.0,67.3 L 627.6,59.1 L 629.7,52.3 L 634.4,49.3 L 633.7,44.2 L 627.6,41.6 L 621.6,31.2 L 621.6,31.2 L 616.6,24.2 L 618.4,21.6 L 615.5,11.6 L 621.8,9.1 L 623.3,12.4 L 628.0,16.4 L 634.3,17.6 L 637.6,17.3 L 648.5,10.9 L 652.0,10.2 L 654.7,12.8 L 651.5,17.1 L 657.3,21.6 L 659.6,21.2 L 662.5,27.6 L 671.2,29.4 L 677.6,33.8 L 690.8,35.3 L 705.2,33.0 L 706.0,31.0 L 714.2,29.3 L 720.7,24.3 L 726.9,24.6 L 730.9,22.9 L 737.5,23.7 L 747.7,28.2 L 755.1,29.1 L 765.6,36.8 L 772.5,37.1 L 773.3,44.4 L 769.5,55.3 L 767.0,61.6 L 771.0,62.9 L 767.1,67.6 L 770.1,74.6 L 770.8,80.1 L 777.8,81.6 L 778.6,87.1 L 770.2,95.0 L 774.8,99.6 L 778.5,104.9 L 787.3,108.7 L 787.6,116.3 L 792.0,117.7 L 792.7,121.7 L 779.4,126.2 L 775.9,136.3 L 758.6,133.7 L 748.5,131.7 L 738.1,130.6 L 734.2,119.9 L 729.8,118.4 L 722.7,119.9 L 713.4,124.1 L 702.1,121.3 L 692.8,114.6 L 683.9,112.1 L 677.7,103.9 L 670.9,92.3 L 666.0,93.7 L 660.1,90.8 L 656.7,94.2 Z" fill="#E4E0D4" stroke="#B0A898" stroke-width="0.5" stroke-linejoin="round"/>
<path d="M 538.1,70.0 L 537.9,69.9 L 539.2,68.6 L 539.0,65.1 L 541.3,60.3 L 546.3,57.0 L 544.8,53.6 L 540.7,53.2 L 539.8,46.5 L 542.1,42.9 L 544.5,41.0 L 547.0,39.1 L 547.5,34.3 L 550.5,36.0 L 560.7,33.6 L 565.6,35.2 L 573.2,35.2 L 583.8,31.9 L 588.8,32.0 L 599.3,30.7 L 594.5,36.1 L 589.5,38.3 L 590.4,44.6 L 586.9,55.1 L 566.5,64.2 L 548.4,73.4 L 538.1,70.0 Z" fill="#E4E0D4" stroke="#B0A898" stroke-width="0.5" stroke-linejoin="round"/>
<path d="M 637.6,17.3 L 634.3,17.6 L 630.5,12.5 L 630.6,11.2 L 626.5,11.2 L 623.8,8.9 L 621.8,9.1 L 618.2,6.6 L 611.3,4.4 L 612.2,0.2 L 610.7,-2.9 L 623.5,-4.2 L 625.4,-2.0 L 628.9,-0.4 L 627.0,1.7 L 632.0,4.7 L 629.4,7.5 L 633.3,9.8 L 637.4,11.3 L 637.6,17.3 Z" fill="#E4E0D4" stroke="#B0A898" stroke-width="0.5" stroke-linejoin="round"/>
<path d="M 451.1,47.5 L 449.9,50.0 L 436.7,50.8 L 436.8,49.3 L 425.5,47.6 L 427.2,44.0 L 432.2,46.9 L 439.4,46.4 L 446.3,47.0 L 446.1,48.5 L 451.1,47.5 Z M 420.3,-5.0 L 427.1,-4.8 L 434.5,-7.2 L 441.0,-4.1 L 449.4,-4.9 L 449.5,-9.3 L 454.0,-7.0 L 451.1,-1.5 L 449.0,-0.6 L 443.3,-0.8 L 438.5,-1.6 L 427.3,0.6 L 433.7,5.5 L 429.1,6.9 L 423.9,7.0 L 419.0,2.5 L 417.3,4.4 L 419.4,9.6 L 424.0,13.7 L 420.5,15.6 L 425.6,19.6 L 430.2,22.1 L 430.3,27.0 L 421.8,24.7 L 424.5,29.1 L 418.7,30.0 L 422.2,37.7 L 416.0,37.8 L 408.5,34.0 L 405.0,27.1 L 403.4,21.3 L 399.8,17.3 L 395.1,12.3 L 394.5,9.9 L 398.7,5.7 L 399.3,2.8 L 402.3,1.6 L 402.5,-0.7 L 408.5,-1.5 L 412.0,-3.4 L 417.0,-3.2 L 418.5,-4.7 L 420.3,-5.0 Z" fill="#E4E0D4" stroke="#B0A898" stroke-width="0.5" stroke-linejoin="round"/>
<path d="M 621.6,31.2 L 617.2,32.7 L 614.0,30.5 L 603.2,29.3 L 599.3,30.7 L 588.8,32.0 L 583.8,31.9 L 573.2,35.2 L 565.6,35.2 L 560.7,33.6 L 550.5,36.0 L 547.5,34.3 L 547.0,39.1 L 544.5,41.0 L 542.1,42.9 L 538.7,39.0 L 542.2,35.7 L 536.5,36.5 L 528.8,34.5 L 522.5,39.5 L 508.5,40.5 L 501.0,35.8 L 491.1,35.5 L 488.9,39.1 L 482.6,40.1 L 473.6,35.5 L 463.6,35.7 L 458.1,27.0 L 451.4,22.2 L 455.9,15.4 L 450.0,11.3 L 460.2,3.0 L 474.4,2.6 L 478.3,-4.0 L 495.9,-2.8 L 507.0,-8.5 L 517.7,-10.9 L 533.0,-11.1 L 549.1,-5.0 L 562.4,-1.6 L 573.1,-3.0 L 581.0,-2.2 L 591.9,-6.7 L 601.8,-7.1 L 610.7,-2.9 L 612.2,0.2 L 611.3,4.4 L 618.2,6.6 L 621.8,9.1 L 615.5,11.6 L 618.4,21.6 L 616.6,24.2 L 621.6,31.2 L 621.6,31.2 Z M 449.5,-9.3 L 458.9,-12.0 L 466.8,-10.8 L 467.9,-7.5 L 476.0,-4.7 L 474.3,-2.6 L 463.4,-2.1 L 459.4,0.6 L 451.7,5.3 L 448.8,1.2 L 449.0,-0.6 L 451.1,-1.5 L 454.0,-7.0 L 449.5,-9.3 Z" fill="#E4E0D4" stroke="#B0A898" stroke-width="0.5" stroke-linejoin="round"/>
<path d="M 402.5,-0.7 L 402.3,1.6 L 399.3,2.8 L 398.7,5.7 L 394.5,9.9 L 392.9,9.3 L 392.7,7.4 L 387.6,4.4 L 386.8,0.3 L 387.6,-5.6 L 388.8,-8.3 L 387.3,-9.7 L 387.3,-9.7 L 386.6,-12.5 L 390.6,-16.8 L 391.2,-15.1 L 393.7,-15.9 L 395.7,-13.6 L 397.9,-12.7 L 398.5,-9.5 L 398.5,-9.5 L 397.3,-6.6 L 398.7,-2.8 L 402.5,-0.7 Z" fill="#E4E0D4" stroke="#B0A898" stroke-width="0.5" stroke-linejoin="round"/>
<path d="M 125.2,-9.7 L 128.5,-11.9 L 132.3,-13.2 L 134.6,-9.0 L 140.0,-9.0 L 141.6,-10.1 L 147.0,-9.8 L 149.6,-5.4 L 145.3,-3.0 L 145.2,3.7 L 143.7,5.0 L 143.3,9.1 L 139.3,9.8 L 143.0,15.0 L 140.5,20.8 L 143.7,23.3 L 142.4,25.7 L 139.0,29.0 L 139.8,31.8 L 136.1,34.1 L 131.2,32.9 L 126.4,33.8 L 127.8,27.0 L 127.0,21.7 L 122.8,20.9 L 120.6,17.6 L 121.4,11.9 L 125.0,8.7 L 125.7,5.2 L 127.6,0.0 L 127.4,-3.7 L 125.6,-6.8 L 125.2,-9.7 Z" fill="#E4E0D4" stroke="#B0A898" stroke-width="0.5" stroke-linejoin="round"/>
<path d="M 139.8,31.8 L 139.0,29.0 L 142.4,25.7 L 143.7,23.3 L 140.5,20.8 L 143.0,15.0 L 139.3,9.8 L 143.3,9.1 L 143.7,5.0 L 145.2,3.7 L 145.3,-3.0 L 149.6,-5.4 L 147.0,-9.8 L 141.6,-10.1 L 140.0,-9.0 L 134.6,-9.0 L 132.3,-13.2 L 128.5,-11.9 L 125.2,-9.7 L 125.6,-15.9 L 121.9,-19.7 L 134.9,-26.0 L 146.2,-24.4 L 158.6,-24.5 L 168.4,-23.0 L 176.1,-23.4 L 191.0,-23.1 L 194.7,-19.8 L 211.7,-15.8 L 215.0,-17.7 L 225.4,-13.8 L 236.1,-14.9 L 236.6,-9.8 L 227.8,-4.0 L 216.0,-2.2 L 215.2,0.7 L 209.5,5.5 L 206.0,12.6 L 209.6,17.6 L 204.2,21.5 L 202.2,27.1 L 195.3,28.8 L 188.7,35.5 L 177.0,35.7 L 168.2,35.5 L 162.4,38.6 L 158.9,41.8 L 154.4,41.1 L 151.0,38.2 L 148.4,33.2 L 139.8,31.8 Z" fill="#E4E0D4" stroke="#B0A898" stroke-width="0.5" stroke-linejoin="round"/>
<path d="M 304.9,-53.3 L 310.5,-52.1 L 311.5,-53.7 L 320.7,-55.2 L 322.7,-52.2 L 335.9,-50.0 L 334.9,-45.7 L 337.1,-42.0 L 329.8,-43.3 L 322.3,-40.2 L 322.8,-35.9 L 321.7,-33.4 L 324.7,-29.0 L 333.3,-24.6 L 338.0,-17.4 L 348.2,-10.4 L 355.5,-10.4 L 357.7,-8.5 L 355.1,-6.8 L 363.4,-3.6 L 370.2,-1.0 L 378.1,3.5 L 379.0,5.1 L 377.3,8.3 L 372.2,4.2 L 364.2,2.8 L 360.3,8.4 L 367.0,11.6 L 365.9,16.2 L 362.0,16.7 L 357.1,24.1 L 353.2,24.8 L 353.3,22.1 L 355.2,17.5 L 357.2,15.6 L 353.6,10.6 L 350.7,6.2 L 346.9,5.1 L 344.2,1.4 L 338.3,-0.2 L 334.3,-3.7 L 327.4,-4.3 L 320.2,-8.2 L 311.8,-13.9 L 305.5,-18.9 L 302.6,-27.5 L 298.1,-28.5 L 290.5,-31.3 L 286.3,-30.2 L 281.0,-26.1 L 277.1,-25.5 L 278.2,-29.3 L 273.2,-30.4 L 270.8,-37.1 L 274.0,-39.7 L 271.3,-43.0 L 271.7,-45.5 L 275.6,-43.6 L 280.1,-44.0 L 285.3,-47.0 L 286.9,-45.6 L 291.3,-45.9 L 293.3,-49.4 L 300.1,-48.3 L 304.2,-49.8 L 304.9,-53.3 Z M 344.7,22.7 L 351.7,22.0 L 348.4,28.8 L 349.8,31.5 L 347.9,36.0 L 340.8,32.7 L 336.1,31.8 L 323.2,27.4 L 324.5,22.9 L 335.3,23.7 L 344.7,22.7 Z M 288.9,-1.2 L 293.5,-3.9 L 299.0,2.3 L 297.8,13.8 L 293.6,13.2 L 289.8,16.1 L 286.3,13.8 L 285.9,3.3 L 283.8,-1.6 L 288.9,-1.2 Z" fill="#E4E0D4" stroke="#B0A898" stroke-width="0.5" stroke-linejoin="round"/>
<path d="M 636.7,-9.6 L 639.3,-9.3 L 645.6,-4.0 L 649.7,-3.4 L 651.3,-5.6 L 656.8,-9.1 L 661.7,-4.5 L 666.4,1.6 L 670.6,2.0 L 673.5,4.4 L 665.9,5.1 L 664.3,11.8 L 662.7,14.9 L 659.3,16.9 L 659.6,21.2 L 657.3,21.6 L 651.5,17.1 L 654.7,12.8 L 652.0,10.2 L 648.5,10.9 L 637.6,17.3 L 637.4,11.3 L 633.3,9.8 L 629.4,7.5 L 632.0,4.7 L 627.0,1.7 L 628.9,-0.4 L 625.4,-2.0 L 623.5,-4.2 L 625.7,-5.7 L 632.6,-3.2 L 637.6,-2.6 L 638.8,-3.7 L 634.3,-8.4 L 636.7,-9.6 Z M 634.3,17.6 L 628.0,16.4 L 623.3,12.4 L 621.8,9.1 L 623.8,8.9 L 626.5,11.2 L 630.6,11.2 L 630.5,12.5 L 634.3,17.6 Z" fill="#E4E0D4" stroke="#B0A898" stroke-width="0.5" stroke-linejoin="round"/>
<path d="M 544.7,229.0 L 543.7,225.5 L 547.6,212.7 L 548.6,206.9 L 551.5,204.3 L 558.3,202.8 L 562.9,197.9 L 568.3,207.9 L 570.8,215.9 L 575.9,220.2 L 588.5,228.4 L 593.6,233.3 L 598.6,238.3 L 601.5,241.3 L 606.0,243.9 L 603.2,246.1 L 599.3,245.3 L 596.1,242.5 L 592.3,237.4 L 588.3,234.6 L 585.9,231.6 L 577.8,228.1 L 571.5,228.0 L 569.3,226.2 L 563.9,228.2 L 558.3,224.3 L 555.4,230.8 L 544.7,229.0 Z" fill="#E4E0D4" stroke="#B0A898" stroke-width="0.5" stroke-linejoin="round"/>
<path d="M 688.3,189.2 L 695.5,203.5 L 698.5,209.6 L 691.9,211.9 L 690.1,215.8 L 689.9,218.8 L 680.7,222.4 L 665.9,226.5 L 657.7,232.6 L 653.6,233.1 L 650.8,232.6 L 645.5,236.2 L 639.6,237.9 L 631.8,238.3 L 629.5,238.8 L 627.5,241.1 L 625.1,241.7 L 623.6,243.9 L 619.1,243.8 L 616.1,244.9 L 609.7,244.5 L 607.3,239.4 L 607.6,234.7 L 606.1,232.1 L 604.3,225.7 L 601.6,222.1 L 603.5,221.7 L 602.5,217.7 L 603.7,216.0 L 603.2,212.2 L 607.3,209.5 L 606.3,205.8 L 608.8,201.5 L 612.6,203.8 L 615.1,203.0 L 625.7,202.8 L 627.4,203.7 L 636.3,204.5 L 639.9,204.1 L 642.2,207.0 L 646.5,205.5 L 653.1,196.4 L 661.7,192.5 L 688.3,189.2 Z" fill="#E4E0D4" stroke="#B0A898" stroke-width="0.5" stroke-linejoin="round"/>
<path d="M 531.1,99.1 L 541.3,100.5 L 545.3,97.8 L 547.5,94.7 L 554.6,93.5 L 556.1,90.6 L 559.1,89.1 L 549.9,80.4 L 568.4,76.1 L 570.2,74.8 L 581.3,77.1 L 595.0,83.2 L 621.1,100.7 L 638.2,101.4 L 646.4,102.2 L 648.7,106.4 L 655.3,106.1 L 658.9,113.6 L 663.4,115.6 L 665.0,118.7 L 671.3,122.3 L 671.8,125.9 L 670.9,128.8 L 672.1,131.7 L 674.7,134.2 L 676.0,137.0 L 677.3,139.1 L 680.1,140.9 L 682.7,140.3 L 684.4,143.6 L 684.8,145.6 L 688.3,154.4 L 716.1,158.8 L 717.9,156.9 L 722.2,163.1 L 716.0,180.5 L 688.3,189.2 L 661.7,192.5 L 653.1,196.4 L 646.5,205.5 L 642.2,207.0 L 639.9,204.1 L 636.3,204.5 L 627.4,203.7 L 625.7,202.8 L 615.1,203.0 L 612.6,203.8 L 608.8,201.5 L 606.3,205.8 L 607.3,209.5 L 603.2,212.2 L 602.0,208.5 L 599.3,205.9 L 598.6,202.4 L 593.8,199.3 L 588.9,192.0 L 586.3,184.9 L 579.9,179.0 L 575.8,177.5 L 569.7,169.2 L 568.6,163.2 L 569.0,158.1 L 563.7,148.4 L 559.4,145.0 L 554.4,143.2 L 551.3,138.2 L 551.9,136.3 L 549.3,131.8 L 546.6,129.8 L 543.0,123.4 L 537.4,116.4 L 532.7,110.4 L 528.1,110.4 L 529.5,105.7 L 529.9,102.6 L 531.1,99.1 Z" fill="#E4E0D4" stroke="#B0A898" stroke-width="0.5" stroke-linejoin="round"/>
<path d="M 510.5,48.9 L 511.2,48.8 L 512.5,46.7 L 519.2,46.8 L 527.6,44.2 L 521.3,47.9 L 522.0,49.6 L 521.0,49.3 L 519.2,49.9 L 517.9,49.7 L 517.4,50.1 L 517.2,49.2 L 516.6,48.7 L 514.8,48.6 L 512.3,49.3 L 510.5,48.9 Z" fill="#E4E0D4" stroke="#B0A898" stroke-width="0.5" stroke-linejoin="round"/>
<path d="M 510.5,48.9 L 512.3,49.3 L 514.8,48.6 L 516.6,48.7 L 517.2,49.2 L 517.4,50.1 L 517.9,49.7 L 519.2,49.9 L 521.0,49.3 L 522.0,49.6 L 522.3,50.3 L 512.8,53.8 L 508.3,52.7 L 506.2,49.2 L 510.5,48.9 Z" fill="#E4E0D4" stroke="#B0A898" stroke-width="0.5" stroke-linejoin="round"/>
<path d="M 188.5,48.6 L 192.0,54.2 L 192.5,59.5 L 195.7,68.6 L 198.2,70.5 L 196.5,73.9 L 184.4,75.3 L 180.2,78.6 L 174.9,79.3 L 174.5,85.7 L 163.7,89.2 L 160.2,93.5 L 152.6,95.9 L 143.4,97.2 L 128.5,103.6 L 128.6,113.9 L 127.2,113.9 L 127.4,118.6 L 121.7,118.9 L 118.7,120.8 L 114.5,120.8 L 111.2,119.7 L 103.4,120.6 L 100.4,127.4 L 97.5,128.1 L 93.2,139.0 L 80.4,148.4 L 77.3,160.4 L 73.5,164.3 L 72.4,167.4 L 51.7,168.1 L 51.5,168.1 L 51.9,164.1 L 55.5,161.7 L 58.5,157.2 L 57.9,154.2 L 61.1,148.1 L 66.2,142.6 L 69.3,141.2 L 71.8,136.1 L 72.0,131.5 L 75.3,126.1 L 81.4,122.9 L 87.3,114.1 L 87.5,113.9 L 92.1,110.6 L 100.7,109.6 L 108.0,103.7 L 112.6,101.4 L 120.3,94.1 L 118.0,83.3 L 121.5,75.8 L 122.7,71.3 L 128.7,65.4 L 137.9,61.4 L 144.8,57.8 L 150.9,48.8 L 153.8,43.5 L 160.6,43.5 L 166.2,47.2 L 174.9,46.6 L 184.5,48.5 L 188.5,48.6 Z" fill="#E4E0D4" stroke="#B0A898" stroke-width="0.5" stroke-linejoin="round"/>
<path d="M 548.7,163.1 L 512.1,163.1 L 476.3,163.1 L 439.2,163.1 L 439.2,131.1 L 439.2,100.2 L 436.4,93.2 L 438.8,87.8 L 437.4,84.1 L 440.7,79.9 L 453.0,79.8 L 461.9,82.1 L 471.0,84.6 L 475.3,86.0 L 482.4,83.2 L 486.2,80.7 L 494.3,80.0 L 500.9,81.1 L 503.4,85.4 L 505.6,82.6 L 513.0,84.6 L 520.1,85.1 L 524.7,82.9 L 524.7,82.9 L 529.8,95.6 L 530.8,97.9 L 528.2,101.4 L 526.2,107.9 L 523.7,112.5 L 521.5,114.0 L 518.4,111.2 L 514.3,107.3 L 507.7,94.8 L 506.7,95.6 L 510.6,104.8 L 516.2,113.5 L 523.2,127.1 L 526.6,131.8 L 529.6,136.7 L 537.9,146.3 L 536.0,147.9 L 536.3,153.5 L 547.1,161.3 L 548.7,163.1 Z" fill="#E4E0D4" stroke="#B0A898" stroke-width="0.5" stroke-linejoin="round"/>
<path d="M 439.2,163.1 L 439.2,180.5 L 428.6,180.5 L 428.5,184.1 L 391.7,167.5 L 354.9,150.8 L 345.6,155.6 L 339.0,158.8 L 333.8,154.0 L 319.2,150.3 L 315.2,144.9 L 307.9,140.8 L 303.6,142.4 L 300.3,137.6 L 300.0,133.8 L 294.5,127.5 L 298.2,123.9 L 297.4,118.4 L 298.5,113.6 L 297.9,109.7 L 299.5,102.6 L 299.0,98.5 L 296.0,90.9 L 300.5,88.9 L 301.3,85.2 L 300.3,81.6 L 306.7,78.2 L 309.5,75.4 L 314.0,73.0 L 314.5,66.3 L 325.4,69.3 L 329.2,68.5 L 337.0,70.0 L 349.2,73.9 L 353.5,81.6 L 361.8,83.3 L 374.8,86.9 L 384.6,91.2 L 389.1,89.0 L 393.6,85.0 L 391.4,78.3 L 394.3,74.1 L 401.0,70.0 L 407.3,68.8 L 419.8,70.6 L 422.9,74.5 L 426.4,74.5 L 429.3,76.0 L 438.5,77.0 L 440.7,79.9 L 437.4,84.1 L 438.8,87.8 L 436.4,93.2 L 439.2,100.2 L 439.2,131.1 L 439.2,163.1 Z" fill="#E4E0D4" stroke="#B0A898" stroke-width="0.5" stroke-linejoin="round"/>
<path d="M 649.5,284.8 L 623.4,310.9 L 611.4,311.2 L 603.2,317.4 L 597.2,317.5 L 594.7,320.3 L 588.4,320.3 L 584.7,317.3 L 576.3,321.0 L 573.5,324.6 L 567.4,323.9 L 565.3,322.9 L 563.2,323.2 L 560.3,323.1 L 548.6,315.7 L 542.2,315.7 L 539.0,312.8 L 539.0,307.9 L 534.2,306.5 L 528.8,297.0 L 524.5,295.0 L 522.9,291.5 L 518.3,287.3 L 512.6,286.7 L 515.7,281.7 L 520.6,281.5 L 522.0,278.8 L 521.9,271.0 L 524.6,261.9 L 529.0,259.5 L 529.9,255.9 L 533.9,249.3 L 539.4,245.0 L 543.2,236.4 L 544.7,229.0 L 555.4,230.8 L 558.3,224.3 L 563.9,228.2 L 569.3,226.2 L 571.5,228.0 L 577.8,228.1 L 585.9,231.6 L 588.3,234.6 L 592.3,237.4 L 596.1,242.5 L 599.3,245.3 L 596.1,249.2 L 592.9,253.2 L 593.7,255.6 L 593.8,258.3 L 599.0,258.4 L 601.2,257.8 L 603.2,259.4 L 601.2,262.4 L 604.6,267.2 L 608.0,271.4 L 611.5,274.5 L 641.7,284.8 L 649.5,284.8 Z" fill="#E4E0D4" stroke="#B0A898" stroke-width="0.5" stroke-linejoin="round"/>
<path d="M 599.3,245.3 L 603.2,246.1 L 606.0,243.9 L 608.2,246.6 L 607.9,250.2 L 602.7,252.3 L 606.6,254.7 L 603.2,259.4 L 601.2,257.8 L 599.0,258.4 L 593.8,258.3 L 593.7,255.6 L 592.9,253.2 L 596.1,249.2 L 599.3,245.3 Z" fill="#E4E0D4" stroke="#B0A898" stroke-width="0.5" stroke-linejoin="round"/>
<path d="M 660.2,255.2 L 660.2,255.2 L 660.1,255.3 L 660.1,258.9 L 660.1,267.6 L 660.1,272.2 L 655.9,277.5 L 649.5,284.8 L 641.7,284.8 L 611.5,274.5 L 608.0,271.4 L 604.6,267.2 L 601.2,262.4 L 603.2,259.4 L 606.6,254.7 L 609.6,256.3 L 611.4,259.9 L 615.6,263.5 L 620.2,263.6 L 628.9,261.3 L 638.9,260.3 L 647.0,257.6 L 651.6,257.0 L 654.9,255.5 L 660.2,255.2 L 660.2,255.2 Z" fill="#E4E0D4" stroke="#B0A898" stroke-width="0.5" stroke-linejoin="round"/>
<path d="M 521.4,362.6 L 502.6,363.3 L 492.4,363.2 L 489.2,364.2 L 483.7,366.9 L 481.5,366.0 L 481.5,359.5 L 483.7,356.1 L 484.2,349.2 L 486.1,345.1 L 489.7,340.6 L 493.2,338.3 L 496.2,335.2 L 492.5,334.0 L 493.0,323.8 L 493.0,323.8 L 496.8,321.5 L 502.7,323.4 L 510.1,321.4 L 516.6,321.4 L 522.3,317.4 L 526.7,323.4 L 527.7,327.8 L 531.8,337.8 L 528.4,344.1 L 523.9,349.9 L 521.3,353.4 L 521.4,362.6 Z" fill="#E4E0D4" stroke="#B0A898" stroke-width="0.5" stroke-linejoin="round"/>
<path d="M 489.2,364.2 L 492.9,369.1 L 492.3,374.2 L 489.7,375.3 L 489.7,375.3 L 484.8,374.8 L 481.9,379.7 L 476.3,379.0 L 477.2,374.3 L 478.5,373.6 L 478.8,368.4 L 481.5,366.0 L 483.7,366.9 L 489.2,364.2 Z" fill="#E4E0D4" stroke="#B0A898" stroke-width="0.5" stroke-linejoin="round"/>
<path d="M 493.0,323.8 L 484.9,318.1 L 482.7,314.4 L 477.6,316.2 L 473.3,315.6 L 470.8,317.1 L 466.7,316.0 L 461.1,308.8 L 459.6,306.1 L 452.7,302.6 L 450.4,297.4 L 446.6,293.7 L 440.3,289.1 L 440.3,286.3 L 435.2,282.8 L 428.9,279.4 L 431.8,278.5 L 434.9,276.8 L 437.3,269.1 L 439.8,265.0 L 446.5,263.8 L 448.1,266.2 L 452.8,271.3 L 455.4,272.0 L 458.7,270.6 L 465.3,270.9 L 466.6,272.6 L 475.8,272.6 L 476.1,270.9 L 480.9,269.2 L 481.8,266.7 L 485.3,264.9 L 493.1,270.0 L 497.8,269.1 L 502.4,262.8 L 507.5,258.0 L 506.7,252.8 L 504.5,250.3 L 510.0,249.8 L 510.6,247.9 L 514.9,248.5 L 513.8,254.9 L 514.9,261.2 L 519.7,264.6 L 520.8,267.6 L 520.6,271.9 L 521.9,272.1 L 522.0,278.8 L 520.6,281.5 L 515.7,281.7 L 512.6,286.7 L 518.3,287.3 L 522.9,291.5 L 524.5,295.0 L 528.8,297.0 L 534.2,306.5 L 528.0,312.2 L 522.3,317.4 L 516.6,321.4 L 510.1,321.4 L 502.7,323.4 L 496.8,321.5 L 493.0,323.8 Z" fill="#E4E0D4" stroke="#B0A898" stroke-width="0.5" stroke-linejoin="round"/>
<text x="236.2" y="371.7" text-anchor="middle" dominant-baseline="middle" font-family="Helvetica,Arial,sans-serif" font-size="9" fill="#4A6880" font-style="italic" opacity="0.85">Golfo da Guiné</text>
<text x="51.7" y="267.4" text-anchor="middle" dominant-baseline="middle" font-family="Helvetica,Arial,sans-serif" font-size="9" fill="#4A6880" font-style="italic" opacity="0.85">Oceano Atlântico</text>
<text x="623.7" y="267.4" text-anchor="middle" dominant-baseline="middle" font-family="Helvetica,Arial,sans-serif" font-size="9" fill="#4A6880" font-style="italic" opacity="0.85">Oceano Índico</text>
<text x="531.5" y="410.9" font-family="Helvetica,Arial,sans-serif" font-size="9" font-weight="normal" text-anchor="middle" dominant-baseline="middle" fill="white" stroke="white" stroke-width="3" stroke-linejoin="round" opacity="0.75">Tanzânia</text>
<text x="531.5" y="410.9" font-family="Helvetica,Arial,sans-serif" font-size="9" font-weight="normal" text-anchor="middle" dominant-baseline="middle" fill="#2A2228">Tanzânia</text>
<text x="89.8" y="142.9" font-family="Helvetica,Arial,sans-serif" font-size="9" font-weight="normal" text-anchor="middle" dominant-baseline="middle" fill="white" stroke="white" stroke-width="3" stroke-linejoin="round" opacity="0.75">W. Sahara</text>
<text x="89.8" y="142.9" font-family="Helvetica,Arial,sans-serif" font-size="9" font-weight="normal" text-anchor="middle" dominant-baseline="middle" fill="#2A2228">W. Sahara</text>
<text x="408.6" y="389.1" font-family="Helvetica,Arial,sans-serif" font-size="9" font-weight="normal" text-anchor="middle" dominant-baseline="middle" fill="white" stroke="white" stroke-width="3" stroke-linejoin="round" opacity="0.75">R. D. Congo</text>
<text x="408.6" y="389.1" font-family="Helvetica,Arial,sans-serif" font-size="9" font-weight="normal" text-anchor="middle" dominant-baseline="middle" fill="#2A2228">R. D. Congo</text>
<text x="633.5" y="309.4" font-family="Helvetica,Arial,sans-serif" font-size="9" font-weight="normal" text-anchor="middle" dominant-baseline="middle" fill="white" stroke="white" stroke-width="3" stroke-linejoin="round" opacity="0.75">Somália</text>
<text x="633.5" y="309.4" font-family="Helvetica,Arial,sans-serif" font-size="9" font-weight="normal" text-anchor="middle" dominant-baseline="middle" fill="#2A2228">Somália</text>
<text x="559.1" y="350.0" font-family="Helvetica,Arial,sans-serif" font-size="9" font-weight="normal" text-anchor="middle" dominant-baseline="middle" fill="white" stroke="white" stroke-width="3" stroke-linejoin="round" opacity="0.75">Quênia</text>
<text x="559.1" y="350.0" font-family="Helvetica,Arial,sans-serif" font-size="9" font-weight="normal" text-anchor="middle" dominant-baseline="middle" fill="#2A2228">Quênia</text>
<text x="485.3" y="223.9" font-family="Helvetica,Arial,sans-serif" font-size="9" font-weight="normal" text-anchor="middle" dominant-baseline="middle" fill="white" stroke="white" stroke-width="3" stroke-linejoin="round" opacity="0.75">Sudão</text>
<text x="485.3" y="223.9" font-family="Helvetica,Arial,sans-serif" font-size="9" font-weight="normal" text-anchor="middle" dominant-baseline="middle" fill="#2A2228">Sudão</text>
<text x="379.2" y="219.6" font-family="Helvetica,Arial,sans-serif" font-size="9" font-weight="normal" text-anchor="middle" dominant-baseline="middle" fill="white" stroke="white" stroke-width="3" stroke-linejoin="round" opacity="0.75">Chade</text>
<text x="379.2" y="219.6" font-family="Helvetica,Arial,sans-serif" font-size="9" font-weight="normal" text-anchor="middle" dominant-baseline="middle" fill="#2A2228">Chade</text>
<text x="439.2" y="615.1" font-family="Helvetica,Arial,sans-serif" font-size="9" font-weight="normal" text-anchor="middle" dominant-baseline="middle" fill="white" stroke="white" stroke-width="3" stroke-linejoin="round" opacity="0.75">África do Sul</text>
<text x="439.2" y="615.1" font-family="Helvetica,Arial,sans-serif" font-size="9" font-weight="normal" text-anchor="middle" dominant-baseline="middle" fill="#2A2228">África do Sul</text>
<text x="468.4" y="612.1" font-family="Helvetica,Arial,sans-serif" font-size="9" font-weight="normal" text-anchor="middle" dominant-baseline="middle" fill="white" stroke="white" stroke-width="3" stroke-linejoin="round" opacity="0.75">Lesoto</text>
<text x="468.4" y="612.1" font-family="Helvetica,Arial,sans-serif" font-size="9" font-weight="normal" text-anchor="middle" dominant-baseline="middle" fill="#2A2228">Lesoto</text>
<text x="476.6" y="518.6" font-family="Helvetica,Arial,sans-serif" font-size="9" font-weight="normal" text-anchor="middle" dominant-baseline="middle" fill="white" stroke="white" stroke-width="3" stroke-linejoin="round" opacity="0.75">Zimbábue</text>
<text x="476.6" y="518.6" font-family="Helvetica,Arial,sans-serif" font-size="9" font-weight="normal" text-anchor="middle" dominant-baseline="middle" fill="#2A2228">Zimbábue</text>
<text x="430.0" y="549.9" font-family="Helvetica,Arial,sans-serif" font-size="9" font-weight="normal" text-anchor="middle" dominant-baseline="middle" fill="white" stroke="white" stroke-width="3" stroke-linejoin="round" opacity="0.75">Botsuana</text>
<text x="430.0" y="549.9" font-family="Helvetica,Arial,sans-serif" font-size="9" font-weight="normal" text-anchor="middle" dominant-baseline="middle" fill="#2A2228">Botsuana</text>
<text x="374.6" y="545.6" font-family="Helvetica,Arial,sans-serif" font-size="9" font-weight="normal" text-anchor="middle" dominant-baseline="middle" fill="white" stroke="white" stroke-width="3" stroke-linejoin="round" opacity="0.75">Namíbia</text>
<text x="374.6" y="545.6" font-family="Helvetica,Arial,sans-serif" font-size="9" font-weight="normal" text-anchor="middle" dominant-baseline="middle" fill="#2A2228">Namíbia</text>
<text x="74.3" y="228.6" font-family="Helvetica,Arial,sans-serif" font-size="9" font-weight="normal" text-anchor="middle" dominant-baseline="middle" fill="white" stroke="white" stroke-width="3" stroke-linejoin="round" opacity="0.75">Senegal</text>
<text x="74.3" y="228.6" font-family="Helvetica,Arial,sans-serif" font-size="9" font-weight="normal" text-anchor="middle" dominant-baseline="middle" fill="#2A2228">Senegal</text>
<text x="190.1" y="197.9" font-family="Helvetica,Arial,sans-serif" font-size="9" font-weight="normal" text-anchor="middle" dominant-baseline="middle" fill="white" stroke="white" stroke-width="3" stroke-linejoin="round" opacity="0.75">Mali</text>
<text x="190.1" y="197.9" font-family="Helvetica,Arial,sans-serif" font-size="9" font-weight="normal" text-anchor="middle" dominant-baseline="middle" fill="#2A2228">Mali</text>
<text x="116.3" y="180.5" font-family="Helvetica,Arial,sans-serif" font-size="9" font-weight="normal" text-anchor="middle" dominant-baseline="middle" fill="white" stroke="white" stroke-width="3" stroke-linejoin="round" opacity="0.75">Mauritânia</text>
<text x="116.3" y="180.5" font-family="Helvetica,Arial,sans-serif" font-size="9" font-weight="normal" text-anchor="middle" dominant-baseline="middle" fill="#2A2228">Mauritânia</text>
<text x="229.8" y="271.8" font-family="Helvetica,Arial,sans-serif" font-size="9" font-weight="normal" text-anchor="middle" dominant-baseline="middle" fill="white" stroke="white" stroke-width="3" stroke-linejoin="round" opacity="0.75">Benim</text>
<text x="229.8" y="271.8" font-family="Helvetica,Arial,sans-serif" font-size="9" font-weight="normal" text-anchor="middle" dominant-baseline="middle" fill="#2A2228">Benim</text>
<text x="291.6" y="206.6" font-family="Helvetica,Arial,sans-serif" font-size="9" font-weight="normal" text-anchor="middle" dominant-baseline="middle" fill="white" stroke="white" stroke-width="3" stroke-linejoin="round" opacity="0.75">Níger</text>
<text x="291.6" y="206.6" font-family="Helvetica,Arial,sans-serif" font-size="9" font-weight="normal" text-anchor="middle" dominant-baseline="middle" fill="#2A2228">Níger</text>
<text x="287.0" y="271.8" font-family="Helvetica,Arial,sans-serif" font-size="11" font-weight="bold" text-anchor="middle" dominant-baseline="middle" fill="white" stroke="white" stroke-width="3" stroke-linejoin="round" opacity="0.75">Nigéria</text>
<text x="287.0" y="271.8" font-family="Helvetica,Arial,sans-serif" font-size="11" font-weight="bold" text-anchor="middle" dominant-baseline="middle" fill="#2A2228">Nigéria</text>
<text x="323.9" y="306.5" font-family="Helvetica,Arial,sans-serif" font-size="9" font-weight="normal" text-anchor="middle" dominant-baseline="middle" fill="white" stroke="white" stroke-width="3" stroke-linejoin="round" opacity="0.75">Camarões</text>
<text x="323.9" y="306.5" font-family="Helvetica,Arial,sans-serif" font-size="9" font-weight="normal" text-anchor="middle" dominant-baseline="middle" fill="#2A2228">Camarões</text>
<text x="216.9" y="280.7" font-family="Helvetica,Arial,sans-serif" font-size="9" font-weight="normal" text-anchor="middle" dominant-baseline="middle" fill="white" stroke="white" stroke-width="3" stroke-linejoin="round" opacity="0.75">Togo</text>
<text x="216.9" y="280.7" font-family="Helvetica,Arial,sans-serif" font-size="9" font-weight="normal" text-anchor="middle" dominant-baseline="middle" fill="#2A2228">Togo</text>
<text x="198.5" y="285.6" font-family="Helvetica,Arial,sans-serif" font-size="9" font-weight="normal" text-anchor="middle" dominant-baseline="middle" fill="white" stroke="white" stroke-width="3" stroke-linejoin="round" opacity="0.75">Gana</text>
<text x="198.5" y="285.6" font-family="Helvetica,Arial,sans-serif" font-size="9" font-weight="normal" text-anchor="middle" dominant-baseline="middle" fill="#2A2228">Gana</text>
<text x="157.0" y="289.7" font-family="Helvetica,Arial,sans-serif" font-size="9" font-weight="normal" text-anchor="middle" dominant-baseline="middle" fill="white" stroke="white" stroke-width="3" stroke-linejoin="round" opacity="0.75">Costa do Marfim</text>
<text x="157.0" y="289.7" font-family="Helvetica,Arial,sans-serif" font-size="9" font-weight="normal" text-anchor="middle" dominant-baseline="middle" fill="#2A2228">Costa do Marfim</text>
<text x="102.6" y="267.9" font-family="Helvetica,Arial,sans-serif" font-size="9" font-weight="normal" text-anchor="middle" dominant-baseline="middle" fill="white" stroke="white" stroke-width="3" stroke-linejoin="round" opacity="0.75">Guiné</text>
<text x="102.6" y="267.9" font-family="Helvetica,Arial,sans-serif" font-size="9" font-weight="normal" text-anchor="middle" dominant-baseline="middle" fill="#2A2228">Guiné</text>
<text x="68.4" y="251.5" font-family="Helvetica,Arial,sans-serif" font-size="9" font-weight="normal" text-anchor="middle" dominant-baseline="middle" fill="white" stroke="white" stroke-width="3" stroke-linejoin="round" opacity="0.75">Guiné-Bissau</text>
<text x="68.4" y="251.5" font-family="Helvetica,Arial,sans-serif" font-size="9" font-weight="normal" text-anchor="middle" dominant-baseline="middle" fill="#2A2228">Guiné-Bissau</text>
<text x="121.0" y="298.3" font-family="Helvetica,Arial,sans-serif" font-size="9" font-weight="normal" text-anchor="middle" dominant-baseline="middle" fill="white" stroke="white" stroke-width="3" stroke-linejoin="round" opacity="0.75">Libéria</text>
<text x="121.0" y="298.3" font-family="Helvetica,Arial,sans-serif" font-size="9" font-weight="normal" text-anchor="middle" dominant-baseline="middle" fill="#2A2228">Libéria</text>
<text x="100.2" y="281.2" font-family="Helvetica,Arial,sans-serif" font-size="9" font-weight="normal" text-anchor="middle" dominant-baseline="middle" fill="white" stroke="white" stroke-width="3" stroke-linejoin="round" opacity="0.75">Serra Leoa</text>
<text x="100.2" y="281.2" font-family="Helvetica,Arial,sans-serif" font-size="9" font-weight="normal" text-anchor="middle" dominant-baseline="middle" fill="#2A2228">Serra Leoa</text>
<text x="193.3" y="246.9" font-family="Helvetica,Arial,sans-serif" font-size="9" font-weight="normal" text-anchor="middle" dominant-baseline="middle" fill="white" stroke="white" stroke-width="3" stroke-linejoin="round" opacity="0.75">Burkina Faso</text>
<text x="193.3" y="246.9" font-family="Helvetica,Arial,sans-serif" font-size="9" font-weight="normal" text-anchor="middle" dominant-baseline="middle" fill="#2A2228">Burkina Faso</text>
<text x="401.5" y="296.1" font-family="Helvetica,Arial,sans-serif" font-size="9" font-weight="normal" text-anchor="middle" dominant-baseline="middle" fill="white" stroke="white" stroke-width="3" stroke-linejoin="round" opacity="0.75">R. Centro-Africana</text>
<text x="401.5" y="296.1" font-family="Helvetica,Arial,sans-serif" font-size="9" font-weight="normal" text-anchor="middle" dominant-baseline="middle" fill="#2A2228">R. Centro-Africana</text>
<text x="344.8" y="360.0" font-family="Helvetica,Arial,sans-serif" font-size="9" font-weight="normal" text-anchor="middle" dominant-baseline="middle" fill="white" stroke="white" stroke-width="3" stroke-linejoin="round" opacity="0.75">Congo</text>
<text x="344.8" y="360.0" font-family="Helvetica,Arial,sans-serif" font-size="9" font-weight="normal" text-anchor="middle" dominant-baseline="middle" fill="#2A2228">Congo</text>
<text x="315.7" y="361.5" font-family="Helvetica,Arial,sans-serif" font-size="9" font-weight="normal" text-anchor="middle" dominant-baseline="middle" fill="white" stroke="white" stroke-width="3" stroke-linejoin="round" opacity="0.75">Gabão</text>
<text x="315.7" y="361.5" font-family="Helvetica,Arial,sans-serif" font-size="9" font-weight="normal" text-anchor="middle" dominant-baseline="middle" fill="#2A2228">Gabão</text>
<text x="303.5" y="340.0" font-family="Helvetica,Arial,sans-serif" font-size="9" font-weight="normal" text-anchor="middle" dominant-baseline="middle" fill="white" stroke="white" stroke-width="3" stroke-linejoin="round" opacity="0.75">Guiné Equatorial</text>
<text x="303.5" y="340.0" font-family="Helvetica,Arial,sans-serif" font-size="9" font-weight="normal" text-anchor="middle" dominant-baseline="middle" fill="#2A2228">Guiné Equatorial</text>
<text x="464.0" y="468.2" font-family="Helvetica,Arial,sans-serif" font-size="9" font-weight="normal" text-anchor="middle" dominant-baseline="middle" fill="white" stroke="white" stroke-width="3" stroke-linejoin="round" opacity="0.75">Zâmbia</text>
<text x="464.0" y="468.2" font-family="Helvetica,Arial,sans-serif" font-size="9" font-weight="normal" text-anchor="middle" dominant-baseline="middle" fill="#2A2228">Zâmbia</text>
<text x="524.4" y="467.5" font-family="Helvetica,Arial,sans-serif" font-size="9" font-weight="normal" text-anchor="middle" dominant-baseline="middle" fill="white" stroke="white" stroke-width="3" stroke-linejoin="round" opacity="0.75">Malauí</text>
<text x="524.4" y="467.5" font-family="Helvetica,Arial,sans-serif" font-size="9" font-weight="normal" text-anchor="middle" dominant-baseline="middle" fill="#2A2228">Malauí</text>
<text x="536.1" y="510.8" font-family="Helvetica,Arial,sans-serif" font-size="9" font-weight="normal" text-anchor="middle" dominant-baseline="middle" fill="white" stroke="white" stroke-width="3" stroke-linejoin="round" opacity="0.75">Moçambique</text>
<text x="536.1" y="510.8" font-family="Helvetica,Arial,sans-serif" font-size="9" font-weight="normal" text-anchor="middle" dominant-baseline="middle" fill="#2A2228">Moçambique</text>
<text x="498.0" y="584.5" font-family="Helvetica,Arial,sans-serif" font-size="9" font-weight="normal" text-anchor="middle" dominant-baseline="middle" fill="white" stroke="white" stroke-width="3" stroke-linejoin="round" opacity="0.75">Essuatíni</text>
<text x="498.0" y="584.5" font-family="Helvetica,Arial,sans-serif" font-size="9" font-weight="normal" text-anchor="middle" dominant-baseline="middle" fill="#2A2228">Essuatíni</text>
<text x="373.3" y="457.8" font-family="Helvetica,Arial,sans-serif" font-size="9" font-weight="normal" text-anchor="middle" dominant-baseline="middle" fill="white" stroke="white" stroke-width="3" stroke-linejoin="round" opacity="0.75">Angola</text>
<text x="373.3" y="457.8" font-family="Helvetica,Arial,sans-serif" font-size="9" font-weight="normal" text-anchor="middle" dominant-baseline="middle" fill="#2A2228">Angola</text>
<text x="484.3" y="384.1" font-family="Helvetica,Arial,sans-serif" font-size="9" font-weight="normal" text-anchor="middle" dominant-baseline="middle" fill="white" stroke="white" stroke-width="3" stroke-linejoin="round" opacity="0.75">Burundi</text>
<text x="484.3" y="384.1" font-family="Helvetica,Arial,sans-serif" font-size="9" font-weight="normal" text-anchor="middle" dominant-baseline="middle" fill="#2A2228">Burundi</text>
<text x="531.9" y="81.5" font-family="Helvetica,Arial,sans-serif" font-size="9" font-weight="normal" text-anchor="middle" dominant-baseline="middle" fill="white" stroke="white" stroke-width="3" stroke-linejoin="round" opacity="0.75">Israel</text>
<text x="531.9" y="81.5" font-family="Helvetica,Arial,sans-serif" font-size="9" font-weight="normal" text-anchor="middle" dominant-baseline="middle" fill="#2A2228">Israel</text>
<text x="539.5" y="59.9" font-family="Helvetica,Arial,sans-serif" font-size="9" font-weight="normal" text-anchor="middle" dominant-baseline="middle" fill="white" stroke="white" stroke-width="3" stroke-linejoin="round" opacity="0.75">Lebanon</text>
<text x="539.5" y="59.9" font-family="Helvetica,Arial,sans-serif" font-size="9" font-weight="normal" text-anchor="middle" dominant-baseline="middle" fill="#2A2228">Lebanon</text>
<text x="640.9" y="518.0" font-family="Helvetica,Arial,sans-serif" font-size="9" font-weight="normal" text-anchor="middle" dominant-baseline="middle" fill="white" stroke="white" stroke-width="3" stroke-linejoin="round" opacity="0.75">Madagáscar</text>
<text x="640.9" y="518.0" font-family="Helvetica,Arial,sans-serif" font-size="9" font-weight="normal" text-anchor="middle" dominant-baseline="middle" fill="#2A2228">Madagáscar</text>
<text x="533.6" y="76.7" font-family="Helvetica,Arial,sans-serif" font-size="9" font-weight="normal" text-anchor="middle" dominant-baseline="middle" fill="white" stroke="white" stroke-width="3" stroke-linejoin="round" opacity="0.75">Palestine</text>
<text x="533.6" y="76.7" font-family="Helvetica,Arial,sans-serif" font-size="9" font-weight="normal" text-anchor="middle" dominant-baseline="middle" fill="#2A2228">Palestine</text>
<text x="67.0" y="237.0" font-family="Helvetica,Arial,sans-serif" font-size="9" font-weight="normal" text-anchor="middle" dominant-baseline="middle" fill="white" stroke="white" stroke-width="3" stroke-linejoin="round" opacity="0.75">Gambia</text>
<text x="67.0" y="237.0" font-family="Helvetica,Arial,sans-serif" font-size="9" font-weight="normal" text-anchor="middle" dominant-baseline="middle" fill="#2A2228">Gambia</text>
<text x="296.2" y="60.3" font-family="Helvetica,Arial,sans-serif" font-size="9" font-weight="normal" text-anchor="middle" dominant-baseline="middle" fill="white" stroke="white" stroke-width="3" stroke-linejoin="round" opacity="0.75">Tunísia</text>
<text x="296.2" y="60.3" font-family="Helvetica,Arial,sans-serif" font-size="9" font-weight="normal" text-anchor="middle" dominant-baseline="middle" fill="#2A2228">Tunísia</text>
<text x="236.2" y="110.9" font-family="Helvetica,Arial,sans-serif" font-size="9" font-weight="normal" text-anchor="middle" dominant-baseline="middle" fill="white" stroke="white" stroke-width="3" stroke-linejoin="round" opacity="0.75">Argélia</text>
<text x="236.2" y="110.9" font-family="Helvetica,Arial,sans-serif" font-size="9" font-weight="normal" text-anchor="middle" dominant-baseline="middle" fill="#2A2228">Argélia</text>
<text x="550.5" y="82.3" font-family="Helvetica,Arial,sans-serif" font-size="9" font-weight="normal" text-anchor="middle" dominant-baseline="middle" fill="white" stroke="white" stroke-width="3" stroke-linejoin="round" opacity="0.75">Jordan</text>
<text x="550.5" y="82.3" font-family="Helvetica,Arial,sans-serif" font-size="9" font-weight="normal" text-anchor="middle" dominant-baseline="middle" fill="#2A2228">Jordan</text>
<text x="706.7" y="143.3" font-family="Helvetica,Arial,sans-serif" font-size="9" font-weight="normal" text-anchor="middle" dominant-baseline="middle" fill="white" stroke="white" stroke-width="3" stroke-linejoin="round" opacity="0.75">United Arab Emirates</text>
<text x="706.7" y="143.3" font-family="Helvetica,Arial,sans-serif" font-size="9" font-weight="normal" text-anchor="middle" dominant-baseline="middle" fill="#2A2228">United Arab Emirates</text>
<text x="680.7" y="134.1" font-family="Helvetica,Arial,sans-serif" font-size="9" font-weight="normal" text-anchor="middle" dominant-baseline="middle" fill="white" stroke="white" stroke-width="3" stroke-linejoin="round" opacity="0.75">Qatar</text>
<text x="680.7" y="134.1" font-family="Helvetica,Arial,sans-serif" font-size="9" font-weight="normal" text-anchor="middle" dominant-baseline="middle" fill="#2A2228">Qatar</text>
<text x="646.7" y="99.7" font-family="Helvetica,Arial,sans-serif" font-size="9" font-weight="normal" text-anchor="middle" dominant-baseline="middle" fill="white" stroke="white" stroke-width="3" stroke-linejoin="round" opacity="0.75">Kuwait</text>
<text x="646.7" y="99.7" font-family="Helvetica,Arial,sans-serif" font-size="9" font-weight="normal" text-anchor="middle" dominant-baseline="middle" fill="#2A2228">Kuwait</text>
<text x="611.6" y="65.4" font-family="Helvetica,Arial,sans-serif" font-size="9" font-weight="normal" text-anchor="middle" dominant-baseline="middle" fill="white" stroke="white" stroke-width="3" stroke-linejoin="round" opacity="0.75">Iraque</text>
<text x="611.6" y="65.4" font-family="Helvetica,Arial,sans-serif" font-size="9" font-weight="normal" text-anchor="middle" dominant-baseline="middle" fill="#2A2228">Iraque</text>
<text x="697.5" y="71.8" font-family="Helvetica,Arial,sans-serif" font-size="9" font-weight="normal" text-anchor="middle" dominant-baseline="middle" fill="white" stroke="white" stroke-width="3" stroke-linejoin="round" opacity="0.75">Irã</text>
<text x="697.5" y="71.8" font-family="Helvetica,Arial,sans-serif" font-size="9" font-weight="normal" text-anchor="middle" dominant-baseline="middle" fill="#2A2228">Irã</text>
<text x="568.6" y="52.1" font-family="Helvetica,Arial,sans-serif" font-size="9" font-weight="normal" text-anchor="middle" dominant-baseline="middle" fill="white" stroke="white" stroke-width="3" stroke-linejoin="round" opacity="0.75">Syria</text>
<text x="568.6" y="52.1" font-family="Helvetica,Arial,sans-serif" font-size="9" font-weight="normal" text-anchor="middle" dominant-baseline="middle" fill="#2A2228">Syria</text>
<text x="574.9" y="222.0" font-family="Helvetica,Arial,sans-serif" font-size="9" font-weight="normal" text-anchor="middle" dominant-baseline="middle" fill="white" stroke="white" stroke-width="3" stroke-linejoin="round" opacity="0.75">Eritreia</text>
<text x="574.9" y="222.0" font-family="Helvetica,Arial,sans-serif" font-size="9" font-weight="normal" text-anchor="middle" dominant-baseline="middle" fill="#2A2228">Eritreia</text>
<text x="650.1" y="217.1" font-family="Helvetica,Arial,sans-serif" font-size="9" font-weight="normal" text-anchor="middle" dominant-baseline="middle" fill="white" stroke="white" stroke-width="3" stroke-linejoin="round" opacity="0.75">Yemen</text>
<text x="650.1" y="217.1" font-family="Helvetica,Arial,sans-serif" font-size="9" font-weight="normal" text-anchor="middle" dominant-baseline="middle" fill="#2A2228">Yemen</text>
<text x="625.1" y="143.5" font-family="Helvetica,Arial,sans-serif" font-size="9" font-weight="normal" text-anchor="middle" dominant-baseline="middle" fill="white" stroke="white" stroke-width="3" stroke-linejoin="round" opacity="0.75">Arábia Saudita</text>
<text x="625.1" y="143.5" font-family="Helvetica,Arial,sans-serif" font-size="9" font-weight="normal" text-anchor="middle" dominant-baseline="middle" fill="#2A2228">Arábia Saudita</text>
<text x="519.0" y="47.2" font-family="Helvetica,Arial,sans-serif" font-size="9" font-weight="normal" text-anchor="middle" dominant-baseline="middle" fill="white" stroke="white" stroke-width="3" stroke-linejoin="round" opacity="0.75">N. Cyprus</text>
<text x="519.0" y="47.2" font-family="Helvetica,Arial,sans-serif" font-size="9" font-weight="normal" text-anchor="middle" dominant-baseline="middle" fill="#2A2228">N. Cyprus</text>
<text x="514.2" y="51.2" font-family="Helvetica,Arial,sans-serif" font-size="9" font-weight="normal" text-anchor="middle" dominant-baseline="middle" fill="white" stroke="white" stroke-width="3" stroke-linejoin="round" opacity="0.75">Cyprus</text>
<text x="514.2" y="51.2" font-family="Helvetica,Arial,sans-serif" font-size="9" font-weight="normal" text-anchor="middle" dominant-baseline="middle" fill="#2A2228">Cyprus</text>
<text x="157.8" y="76.2" font-family="Helvetica,Arial,sans-serif" font-size="9" font-weight="normal" text-anchor="middle" dominant-baseline="middle" fill="white" stroke="white" stroke-width="3" stroke-linejoin="round" opacity="0.75">Marrocos</text>
<text x="157.8" y="76.2" font-family="Helvetica,Arial,sans-serif" font-size="9" font-weight="normal" text-anchor="middle" dominant-baseline="middle" fill="#2A2228">Marrocos</text>
<text x="480.7" y="119.6" font-family="Helvetica,Arial,sans-serif" font-size="9" font-weight="normal" text-anchor="middle" dominant-baseline="middle" fill="white" stroke="white" stroke-width="3" stroke-linejoin="round" opacity="0.75">Egito</text>
<text x="480.7" y="119.6" font-family="Helvetica,Arial,sans-serif" font-size="9" font-weight="normal" text-anchor="middle" dominant-baseline="middle" fill="#2A2228">Egito</text>
<text x="365.4" y="119.6" font-family="Helvetica,Arial,sans-serif" font-size="9" font-weight="normal" text-anchor="middle" dominant-baseline="middle" fill="white" stroke="white" stroke-width="3" stroke-linejoin="round" opacity="0.75">Líbia</text>
<text x="365.4" y="119.6" font-family="Helvetica,Arial,sans-serif" font-size="9" font-weight="normal" text-anchor="middle" dominant-baseline="middle" fill="#2A2228">Líbia</text>
<text x="577.6" y="276.1" font-family="Helvetica,Arial,sans-serif" font-size="9" font-weight="normal" text-anchor="middle" dominant-baseline="middle" fill="white" stroke="white" stroke-width="3" stroke-linejoin="round" opacity="0.75">Etiópia</text>
<text x="577.6" y="276.1" font-family="Helvetica,Arial,sans-serif" font-size="9" font-weight="normal" text-anchor="middle" dominant-baseline="middle" fill="#2A2228">Etiópia</text>
<text x="600.6" y="251.7" font-family="Helvetica,Arial,sans-serif" font-size="9" font-weight="normal" text-anchor="middle" dominant-baseline="middle" fill="white" stroke="white" stroke-width="3" stroke-linejoin="round" opacity="0.75">Djibuti</text>
<text x="600.6" y="251.7" font-family="Helvetica,Arial,sans-serif" font-size="9" font-weight="normal" text-anchor="middle" dominant-baseline="middle" fill="#2A2228">Djibuti</text>
<text x="630.7" y="269.8" font-family="Helvetica,Arial,sans-serif" font-size="9" font-weight="normal" text-anchor="middle" dominant-baseline="middle" fill="white" stroke="white" stroke-width="3" stroke-linejoin="round" opacity="0.75">Somaliland</text>
<text x="630.7" y="269.8" font-family="Helvetica,Arial,sans-serif" font-size="9" font-weight="normal" text-anchor="middle" dominant-baseline="middle" fill="#2A2228">Somaliland</text>
<text x="506.6" y="342.1" font-family="Helvetica,Arial,sans-serif" font-size="9" font-weight="normal" text-anchor="middle" dominant-baseline="middle" fill="white" stroke="white" stroke-width="3" stroke-linejoin="round" opacity="0.75">Uganda</text>
<text x="506.6" y="342.1" font-family="Helvetica,Arial,sans-serif" font-size="9" font-weight="normal" text-anchor="middle" dominant-baseline="middle" fill="#2A2228">Uganda</text>
<text x="484.6" y="372.0" font-family="Helvetica,Arial,sans-serif" font-size="9" font-weight="normal" text-anchor="middle" dominant-baseline="middle" fill="white" stroke="white" stroke-width="3" stroke-linejoin="round" opacity="0.75">Ruanda</text>
<text x="484.6" y="372.0" font-family="Helvetica,Arial,sans-serif" font-size="9" font-weight="normal" text-anchor="middle" dominant-baseline="middle" fill="#2A2228">Ruanda</text>
<text x="481.6" y="285.9" font-family="Helvetica,Arial,sans-serif" font-size="9" font-weight="normal" text-anchor="middle" dominant-baseline="middle" fill="white" stroke="white" stroke-width="3" stroke-linejoin="round" opacity="0.75">Sudão do Sul</text>
<text x="481.6" y="285.9" font-family="Helvetica,Arial,sans-serif" font-size="9" font-weight="normal" text-anchor="middle" dominant-baseline="middle" fill="#2A2228">Sudão do Sul</text>
</g>
<rect x="24" y="24" width="692" height="652" fill="none" stroke="#90A4B8" stroke-width="1"/>
<text x="714" y="695" text-anchor="end" font-family="Helvetica,Arial,sans-serif" font-size="7" fill="#909098" opacity="0.85">Natural Earth · domínio público</text>
</svg>