<svg xmlns="http://www.w3.org/2000/svg" viewBox="0 0 700 800">
<defs>
  <clipPath id="c">
    <rect x="24" y="24" width="652" height="752"/>
  </clipPath>
</defs>
<rect width="700" height="800" fill="#B8CEDE"/>
<g clip-path="url(#c)">
<path d="M 218.0,729.8 L 222.6,734.7 L 228.5,742.6 L 243.9,749.0 L 260.5,751.6 L 255.2,756.9 L 243.9,757.5 L 237.9,753.7 L 230.7,753.4 L 218.0,753.4 L 218.0,729.8 Z M 348.5,492.3 L 345.6,500.8 L 342.4,511.7 L 342.5,522.2 L 339.9,524.6 L 339.0,531.4 L 338.2,537.0 L 353.3,546.0 L 351.6,553.3 L 359.0,558.0 L 358.4,563.1 L 347.0,576.7 L 329.5,582.4 L 305.7,584.6 L 292.7,583.5 L 295.2,589.8 L 292.7,597.8 L 294.9,603.1 L 287.8,606.8 L 275.7,608.3 L 264.3,604.4 L 259.7,607.2 L 261.3,617.7 L 269.3,620.9 L 275.8,617.6 L 279.4,623.1 L 268.5,626.4 L 258.9,633.0 L 257.2,643.6 L 254.4,649.3 L 243.2,649.3 L 233.9,654.7 L 230.5,662.7 L 242.2,670.4 L 253.5,672.6 L 249.4,682.1 L 235.4,688.1 L 227.7,700.5 L 216.9,704.7 L 212.0,709.6 L 215.9,720.6 L 223.7,726.7 L 218.8,726.2 L 207.8,724.6 L 179.1,723.1 L 174.2,717.0 L 174.4,709.0 L 166.5,709.7 L 162.4,705.9 L 161.3,694.6 L 170.4,690.0 L 174.2,683.3 L 172.8,677.9 L 179.1,668.9 L 183.4,654.8 L 182.1,648.6 L 187.3,646.6 L 186.1,642.6 L 180.6,640.5 L 184.5,636.1 L 179.1,632.0 L 176.3,619.8 L 181.1,617.7 L 179.1,604.8 L 181.9,593.9 L 185.1,584.5 L 192.2,580.6 L 188.6,570.3 L 188.5,560.5 L 197.5,553.6 L 197.2,544.8 L 204.0,534.4 L 204.0,524.7 L 200.9,522.8 L 195.5,504.5 L 202.8,493.6 L 201.7,483.3 L 205.9,473.7 L 213.7,463.8 L 222.0,457.2 L 218.5,453.0 L 221.0,449.6 L 220.6,432.0 L 233.5,426.7 L 237.6,415.7 L 236.1,413.1 L 246.0,403.5 L 261.5,406.1 L 268.5,413.7 L 273.1,405.2 L 286.6,405.7 L 288.5,407.9 L 310.3,425.2 L 320.0,426.8 L 334.5,434.6 L 346.7,438.8 L 348.4,443.5 L 336.7,459.6 L 348.7,462.4 L 362.0,464.1 L 371.4,462.4 L 382.1,454.2 L 384.1,444.9 L 389.9,442.9 L 395.9,449.0 L 395.7,457.4 L 385.7,463.3 L 377.7,467.6 L 364.3,477.9 L 348.5,492.3 Z" fill="#E4E0D4" stroke="#B0A898" stroke-width="0.5" stroke-linejoin="round"/>
<path d="M 218.0,729.8 L 218.0,753.4 L 230.7,753.4 L 237.9,753.7 L 233.9,758.0 L 223.8,761.3 L 217.9,761.0 L 210.9,760.1 L 202.3,756.9 L 189.9,755.4 L 175.0,749.5 L 162.9,743.8 L 146.5,731.9 L 156.3,734.1 L 173.0,741.2 L 188.7,745.0 L 194.8,740.2 L 198.6,732.9 L 209.6,728.5 L 218.0,729.8 Z M 206.7,358.5 L 212.5,365.7 L 214.1,373.3 L 220.3,377.8 L 216.6,388.1 L 222.9,399.9 L 227.6,414.5 L 236.1,413.1 L 237.6,415.7 L 233.5,426.7 L 220.6,432.0 L 221.0,449.6 L 218.5,453.0 L 222.0,457.2 L 213.7,463.8 L 205.9,473.7 L 201.7,483.3 L 202.8,493.6 L 195.5,504.5 L 200.9,522.8 L 204.0,524.7 L 204.0,534.4 L 197.2,544.8 L 197.5,553.6 L 188.5,560.5 L 188.6,570.3 L 192.2,580.6 L 185.1,584.5 L 181.9,593.9 L 179.1,604.8 L 181.1,617.7 L 176.3,619.8 L 179.1,632.0 L 184.5,636.1 L 180.6,640.5 L 186.1,642.6 L 187.3,646.6 L 182.1,648.6 L 183.4,654.8 L 179.1,668.9 L 172.8,677.9 L 174.2,683.3 L 170.4,690.0 L 161.3,694.6 L 162.4,705.9 L 166.5,709.7 L 174.4,709.0 L 174.2,717.0 L 179.1,723.1 L 207.8,724.6 L 218.8,726.2 L 208.2,726.1 L 202.5,728.7 L 191.8,732.6 L 189.9,742.5 L 184.9,742.7 L 171.5,739.3 L 157.9,731.9 L 157.9,731.9 L 143.2,725.8 L 139.5,719.1 L 142.8,712.9 L 136.9,705.9 L 135.3,687.8 L 140.4,677.6 L 152.9,669.4 L 134.9,666.4 L 146.2,657.0 L 150.2,639.4 L 163.4,643.1 L 169.6,621.2 L 161.6,618.4 L 157.9,631.6 L 150.5,630.1 L 154.2,615.0 L 158.2,595.3 L 163.7,588.1 L 160.3,577.8 L 159.3,565.8 L 164.3,565.5 L 171.6,548.4 L 179.7,531.4 L 184.8,515.6 L 182.0,499.8 L 185.6,491.0 L 184.2,478.0 L 191.1,465.0 L 193.2,444.5 L 197.0,422.5 L 200.7,398.9 L 199.9,381.5 L 197.4,366.6 L 203.5,363.9 L 206.7,358.5 Z" fill="#E4E0D4" stroke="#B0A898" stroke-width="0.5" stroke-linejoin="round"/>
<path d="M 306.1,721.5 L 320.4,715.1 L 330.4,717.7 L 337.6,713.5 L 347.0,718.3 L 343.5,722.0 L 327.5,725.2 L 322.1,721.5 L 312.1,726.2 L 306.1,721.5 Z" fill="#E4E0D4" stroke="#B0A898" stroke-width="0.5" stroke-linejoin="round"/>
<path d="M 348.5,492.3 L 356.2,491.2 L 368.1,499.4 L 372.5,499.1 L 384.7,505.9 L 394.0,511.7 L 400.9,518.9 L 395.6,523.9 L 398.9,529.9 L 393.8,536.6 L 380.4,542.5 L 371.6,540.4 L 365.2,541.5 L 354.3,537.0 L 346.2,537.3 L 339.0,531.4 L 339.9,524.6 L 342.5,522.2 L 342.4,511.7 L 345.6,500.8 L 348.5,492.3 Z" fill="#E4E0D4" stroke="#B0A898" stroke-width="0.5" stroke-linejoin="round"/>
<path d="M 398.9,529.9 L 395.6,523.9 L 400.9,518.9 L 394.0,511.7 L 384.7,505.9 L 372.5,499.1 L 368.1,499.4 L 356.2,491.2 L 348.5,492.3 L 364.3,477.9 L 377.7,467.6 L 385.7,463.3 L 395.7,457.4 L 395.9,449.0 L 389.9,442.9 L 384.1,444.9 L 386.4,438.8 L 388.0,432.5 L 388.0,426.7 L 383.8,424.8 L 379.3,426.5 L 374.9,426.0 L 373.5,421.9 L 372.4,412.2 L 370.2,409.1 L 362.2,406.2 L 357.3,408.3 L 344.8,406.3 L 345.6,391.9 L 342.1,386.0 L 345.8,383.8 L 344.7,377.8 L 347.9,373.1 L 350.0,364.8 L 347.2,358.2 L 340.7,355.2 L 339.5,351.0 L 341.2,344.9 L 318.5,344.5 L 313.9,332.1 L 317.4,332.0 L 317.2,327.4 L 314.9,324.3 L 314.4,318.2 L 307.5,315.0 L 300.1,315.2 L 295.1,312.1 L 287.1,310.0 L 282.5,306.0 L 269.2,304.3 L 256.3,294.8 L 257.3,287.7 L 255.8,283.6 L 257.1,275.7 L 241.6,277.5 L 235.3,281.4 L 225.0,285.7 L 222.3,288.9 L 216.2,289.2 L 207.4,288.3 L 200.7,290.1 L 195.3,288.9 L 196.1,272.8 L 186.4,279.0 L 175.9,278.8 L 171.4,273.1 L 163.6,272.5 L 166.1,268.0 L 159.5,261.5 L 154.6,252.0 L 157.7,250.0 L 157.7,245.6 L 164.8,242.5 L 163.6,236.8 L 166.7,233.1 L 167.5,228.1 L 181.1,220.9 L 190.8,218.9 L 192.4,217.3 L 203.1,217.8 L 208.4,188.8 L 208.7,184.2 L 206.8,178.1 L 201.6,174.2 L 201.6,166.5 L 208.3,164.8 L 210.7,165.9 L 211.1,161.8 L 204.1,160.7 L 204.0,154.1 L 227.1,154.4 L 231.0,150.7 L 234.3,154.1 L 236.6,160.3 L 238.8,159.0 L 245.4,164.6 L 254.6,163.9 L 256.9,160.7 L 265.7,158.2 L 270.6,156.5 L 272.0,152.0 L 280.4,149.0 L 279.8,146.7 L 269.7,145.8 L 268.1,139.2 L 268.6,132.1 L 263.3,129.3 L 265.5,128.3 L 274.3,129.7 L 283.7,132.3 L 287.1,129.8 L 295.6,128.2 L 308.9,124.2 L 313.2,120.2 L 311.7,117.2 L 317.8,116.7 L 320.6,119.2 L 319.0,123.8 L 323.1,125.4 L 325.8,130.4 L 322.6,134.1 L 320.7,143.1 L 323.7,148.5 L 324.6,153.4 L 331.9,158.3 L 337.7,158.9 L 339.0,156.8 L 342.7,156.3 L 348.1,154.5 L 351.9,151.6 L 358.5,152.5 L 361.4,152.2 L 367.8,153.0 L 368.9,150.9 L 366.9,148.8 L 368.1,145.7 L 372.9,146.6 L 378.5,145.6 L 385.3,147.8 L 390.4,150.0 L 394.1,147.1 L 396.8,147.6 L 398.4,150.5 L 404.1,149.8 L 408.6,145.8 L 412.2,138.0 L 419.3,128.3 L 423.3,127.8 L 426.2,133.6 L 432.9,152.1 L 439.2,153.9 L 439.5,161.2 L 430.6,169.9 L 434.3,173.1 L 455.3,174.8 L 455.7,185.4 L 464.7,178.4 L 479.6,182.2 L 499.3,188.7 L 505.1,194.9 L 503.1,200.8 L 516.9,197.5 L 540.0,203.1 L 557.7,202.7 L 575.2,211.5 L 590.4,223.3 L 599.5,226.4 L 609.6,226.8 L 613.9,230.2 L 618.0,243.6 L 619.9,250.1 L 615.2,267.6 L 609.2,274.5 L 592.5,289.2 L 584.9,301.2 L 576.1,310.4 L 573.2,310.6 L 569.9,318.4 L 570.7,338.2 L 567.4,354.5 L 566.1,361.5 L 562.4,365.7 L 560.3,379.9 L 548.3,393.7 L 546.3,404.6 L 536.7,409.2 L 533.9,415.6 L 521.0,415.5 L 502.4,419.6 L 494.0,424.3 L 480.7,427.4 L 466.8,435.9 L 456.7,446.4 L 455.0,454.3 L 457.0,460.1 L 454.8,470.8 L 452.1,476.0 L 443.8,481.8 L 430.6,500.5 L 420.2,508.9 L 412.2,513.8 L 406.8,523.9 L 398.9,529.9 Z" fill="#C8DEC8" stroke="#B0A898" stroke-width="0.5" stroke-linejoin="round"/>
<path d="M 207.4,288.3 L 216.2,289.2 L 222.3,288.9 L 225.0,285.7 L 235.3,281.4 L 241.6,277.5 L 257.1,275.7 L 255.8,283.6 L 257.3,287.7 L 256.3,294.8 L 269.2,304.3 L 282.5,306.0 L 287.1,310.0 L 295.1,312.1 L 300.1,315.2 L 307.5,315.0 L 314.4,318.2 L 314.9,324.3 L 317.2,327.4 L 317.4,332.0 L 313.9,332.1 L 318.5,344.5 L 341.2,344.9 L 339.5,351.0 L 340.7,355.2 L 347.2,358.2 L 350.0,364.8 L 347.9,373.1 L 344.7,377.8 L 345.8,383.8 L 342.1,386.0 L 341.9,382.7 L 330.9,377.3 L 319.8,377.2 L 299.2,380.2 L 293.5,389.6 L 293.2,395.3 L 288.5,407.9 L 286.6,405.7 L 273.1,405.2 L 268.5,413.7 L 261.5,406.1 L 246.0,403.5 L 236.1,413.1 L 227.6,414.5 L 222.9,399.9 L 216.6,388.1 L 220.3,377.8 L 214.1,373.3 L 212.5,365.7 L 206.7,358.5 L 214.2,347.0 L 209.1,338.1 L 211.8,334.6 L 209.6,330.7 L 214.3,325.4 L 214.5,316.4 L 215.1,308.9 L 217.6,305.3 L 207.4,288.3 Z" fill="#E4E0D4" stroke="#B0A898" stroke-width="0.5" stroke-linejoin="round"/>
<path d="M 203.1,217.8 L 192.4,217.3 L 190.8,218.9 L 181.1,220.9 L 167.5,228.1 L 166.7,233.1 L 163.6,236.8 L 164.8,242.5 L 157.7,245.6 L 157.7,250.0 L 154.6,252.0 L 159.5,261.5 L 166.1,268.0 L 163.6,272.5 L 171.4,273.1 L 175.9,278.8 L 186.4,279.0 L 196.1,272.8 L 195.3,288.9 L 200.7,290.1 L 207.4,288.3 L 217.6,305.3 L 215.1,308.9 L 214.5,316.4 L 214.3,325.4 L 209.6,330.7 L 211.8,334.6 L 209.1,338.1 L 214.2,347.0 L 206.7,358.5 L 203.5,363.9 L 197.4,366.6 L 185.5,360.5 L 184.5,356.2 L 161.0,345.6 L 139.7,334.0 L 130.6,327.4 L 125.7,318.7 L 127.6,315.6 L 117.6,301.7 L 105.9,282.2 L 94.7,261.1 L 89.8,256.3 L 86.1,248.5 L 76.9,241.6 L 68.5,237.3 L 72.3,232.6 L 66.5,222.5 L 70.2,215.0 L 79.7,208.3 L 81.1,212.8 L 77.7,215.3 L 78.0,219.2 L 82.9,218.3 L 87.7,219.5 L 92.7,224.8 L 99.4,220.4 L 101.6,213.3 L 108.9,204.1 L 123.2,199.9 L 136.1,188.8 L 139.8,181.9 L 138.1,173.9 L 141.3,172.9 L 149.2,177.9 L 152.9,182.9 L 158.4,185.6 L 165.4,196.7 L 174.2,198.1 L 180.8,195.3 L 185.1,197.1 L 192.2,196.2 L 201.3,201.1 L 193.6,211.9 L 197.1,212.2 L 203.1,217.8 Z" fill="#E4E0D4" stroke="#B0A898" stroke-width="0.5" stroke-linejoin="round"/>
<path d="M 238.8,159.0 L 236.6,160.3 L 234.3,154.1 L 231.0,150.7 L 227.1,154.4 L 204.0,154.1 L 204.1,160.7 L 211.1,161.8 L 210.7,165.9 L 208.3,164.8 L 201.6,166.5 L 201.6,174.2 L 206.8,178.1 L 208.7,184.2 L 208.4,188.8 L 203.1,217.8 L 197.1,212.2 L 193.6,211.9 L 201.3,201.1 L 192.2,196.2 L 185.1,197.1 L 180.8,195.3 L 174.2,198.1 L 165.4,196.7 L 158.4,185.6 L 152.9,182.9 L 149.2,177.9 L 141.3,172.9 L 138.1,173.9 L 133.0,171.4 L 127.2,167.9 L 123.9,169.6 L 113.8,168.1 L 110.9,163.5 L 108.7,163.7 L 96.8,157.7 L 95.2,154.4 L 99.7,153.6 L 99.1,148.3 L 101.9,144.4 L 107.8,143.7 L 112.8,137.1 L 117.3,131.5 L 113.0,129.0 L 115.2,122.8 L 112.5,113.2 L 115.1,110.4 L 113.2,101.4 L 108.4,95.8 L 109.9,90.6 L 113.7,91.4 L 116.0,88.2 L 113.2,82.0 L 114.6,80.4 L 120.8,80.8 L 129.7,73.4 L 134.5,72.3 L 134.7,68.8 L 136.9,59.8 L 143.6,54.9 L 151.1,54.7 L 152.1,52.5 L 161.3,53.4 L 170.7,48.0 L 175.3,45.7 L 181.0,40.6 L 185.2,41.2 L 188.3,44.0 L 186.0,47.6 L 178.4,49.3 L 175.4,54.6 L 170.8,57.7 L 167.4,61.6 L 165.9,69.2 L 162.6,75.3 L 168.8,76.1 L 170.3,80.9 L 172.9,83.3 L 173.8,87.5 L 172.4,91.4 L 172.8,93.7 L 175.8,94.5 L 178.6,98.2 L 193.8,97.2 L 200.7,98.6 L 209.1,107.7 L 213.8,106.5 L 222.4,107.1 L 229.1,105.9 L 233.3,107.7 L 231.2,113.4 L 228.6,117.0 L 227.6,124.6 L 230.0,131.6 L 233.4,134.8 L 233.8,137.1 L 227.8,142.4 L 232.1,144.7 L 235.2,148.4 L 238.8,159.0 Z" fill="#E4E0D4" stroke="#B0A898" stroke-width="0.5" stroke-linejoin="round"/>
<path d="M 114.6,80.4 L 113.2,82.0 L 116.0,88.2 L 113.7,91.4 L 109.9,90.6 L 108.4,95.8 L 104.4,92.7 L 101.9,87.0 L 104.8,84.2 L 101.8,83.4 L 99.6,79.9 L 93.7,77.0 L 88.5,77.7 L 86.1,81.4 L 81.3,84.0 L 78.7,84.4 L 77.6,86.6 L 83.2,92.3 L 80.0,93.7 L 78.3,95.3 L 72.8,95.8 L 70.7,89.5 L 69.2,91.3 L 65.3,90.7 L 62.9,86.4 L 58.0,85.7 L 54.9,84.5 L 49.8,84.5 L 49.5,86.8 L 48.1,85.2 L 48.7,83.1 L 49.7,80.9 L 49.3,79.0 L 51.0,77.7 L 48.6,76.2 L 48.5,71.9 L 53.1,71.0 L 57.3,74.8 L 57.1,77.0 L 61.8,77.5 L 63.0,76.6 L 66.2,79.2 L 72.0,78.5 L 77.1,75.8 L 84.3,73.6 L 88.3,70.5 L 94.9,71.1 L 94.4,72.1 L 101.0,72.5 L 106.3,74.3 L 110.2,77.5 L 114.6,80.4 Z" fill="#E4E0D4" stroke="#B0A898" stroke-width="0.5" stroke-linejoin="round"/>
<path d="M 53.1,71.0 L 48.5,71.9 L 48.6,76.2 L 51.0,77.7 L 49.3,79.0 L 49.7,80.9 L 48.7,83.1 L 48.1,85.2 L 41.7,82.8 L 39.3,80.6 L 40.6,78.8 L 40.2,76.4 L 36.9,73.9 L 32.3,71.8 L 28.2,70.4 L 27.4,67.3 L 24.3,65.4 L 25.1,68.5 L 22.7,71.1 L 20.0,68.1 L 16.2,67.1 L 14.5,64.9 L 14.6,61.7 L 16.2,58.4 L 12.8,56.9 L 15.6,54.8 L 17.3,53.5 L 25.1,56.3 L 27.9,54.9 L 31.6,55.8 L 33.6,58.0 L 37.1,58.7 L 39.9,56.4 L 42.9,62.2 L 47.5,66.4 L 53.1,71.0 Z" fill="#E4E0D4" stroke="#B0A898" stroke-width="0.5" stroke-linejoin="round"/>
<path d="M 39.9,56.4 L 37.1,58.7 L 33.6,58.0 L 31.6,55.8 L 27.9,54.9 L 25.1,56.3 L 17.3,53.5 L 15.6,54.8 L 11.5,51.5 L 5.9,47.2 L 3.3,43.7 L -1.7,40.3 L -7.6,35.5 L -6.3,33.9 L -4.4,35.5 L -3.5,34.8 L 0.2,34.3 L 1.7,31.9 L 3.4,31.8 L 3.2,26.6 L 6.0,26.3 L 8.4,26.4 L 11.0,23.6 L 14.5,25.7 L 15.7,24.4 L 17.9,23.2 L 22.0,20.2 L 22.2,18.1 L 23.4,18.2 L 24.9,15.6 L 26.1,15.3 L 28.2,16.9 L 30.5,17.4 L 33.1,16.1 L 36.1,16.1 L 40.3,14.7 L 41.9,13.2 L 46.0,13.5 L 44.9,14.5 L 44.3,16.8 L 45.6,20.7 L 42.8,24.3 L 41.5,28.6 L 41.2,33.2 L 41.8,36.0 L 42.1,40.7 L 40.3,41.8 L 39.2,46.3 L 40.0,49.1 L 37.6,51.8 L 38.1,54.7 L 39.9,56.4 Z" fill="#E4E0D4" stroke="#B0A898" stroke-width="0.5" stroke-linejoin="round"/>
<path d="M 46.0,13.5 L 41.9,13.2 L 40.3,14.7 L 36.1,16.1 L 33.1,16.1 L 30.5,17.4 L 28.2,16.9 L 26.1,15.3 L 24.9,15.6 L 23.4,18.2 L 22.2,18.1 L 22.0,20.2 L 17.9,23.2 L 15.7,24.4 L 14.5,25.7 L 11.0,23.6 L 8.4,26.4 L 6.0,26.3 L 3.2,26.6 L 3.4,31.8 L 1.7,31.9 L 0.2,34.3 L -3.5,34.8 L -5.5,31.4 L -9.1,30.5 L -8.3,26.3 L -9.9,25.1 L -12.3,24.4 L -17.5,25.6 L -18.0,24.2 L -21.6,22.5 L -24.1,20.4 L -27.6,19.5 L -25.1,16.8 L -26.1,14.7 L -25.3,12.7 L -19.6,9.7 L -14.2,5.7 L -13.0,6.1 L -10.4,4.3 L -7.0,4.1 L -5.9,5.0 L -4.1,4.4 L 1.4,5.4 L 6.9,5.1 L 10.7,3.9 L 12.1,2.8 L 15.9,3.3 L 18.7,4.0 L 21.8,3.8 L 24.2,2.9 L 29.6,4.3 L 31.5,4.6 L 35.1,6.5 L 38.5,8.9 L 42.8,10.5 L 46.0,13.5 Z" fill="#E4E0D4" stroke="#B0A898" stroke-width="0.5" stroke-linejoin="round"/>
<path d="M 311.7,117.2 L 313.2,120.2 L 308.9,124.2 L 295.6,128.2 L 287.1,129.8 L 283.7,132.3 L 274.3,129.7 L 265.5,128.3 L 263.3,129.3 L 268.6,132.1 L 268.1,139.2 L 269.7,145.8 L 279.8,146.7 L 280.4,149.0 L 272.0,152.0 L 270.6,156.5 L 265.7,158.2 L 256.9,160.7 L 254.6,163.9 L 245.4,164.6 L 238.8,159.0 L 235.2,148.4 L 232.1,144.7 L 227.8,142.4 L 233.8,137.1 L 233.4,134.8 L 230.0,131.6 L 227.6,124.6 L 228.6,117.0 L 231.2,113.4 L 233.3,107.7 L 229.1,105.9 L 222.4,107.1 L 213.8,106.5 L 209.1,107.7 L 200.7,98.6 L 193.8,97.2 L 178.6,98.2 L 175.8,94.5 L 172.8,93.7 L 172.4,91.4 L 173.8,87.5 L 172.9,83.3 L 170.3,80.9 L 168.8,76.1 L 162.6,75.3 L 165.9,69.2 L 167.4,61.6 L 170.8,57.7 L 175.4,54.6 L 178.4,49.3 L 186.0,47.6 L 185.7,50.1 L 178.7,51.3 L 182.6,56.1 L 182.5,61.6 L 177.2,67.8 L 181.7,76.2 L 186.8,75.5 L 189.5,67.8 L 185.8,64.1 L 185.2,56.1 L 200.0,51.8 L 198.3,46.8 L 202.5,43.5 L 206.7,50.9 L 215.1,51.1 L 222.8,57.0 L 223.2,60.5 L 233.9,60.6 L 246.5,59.5 L 253.3,64.2 L 262.4,65.5 L 269.0,62.2 L 269.2,59.6 L 283.9,58.9 L 298.1,58.8 L 288.0,61.9 L 292.0,66.9 L 301.5,67.7 L 310.5,72.9 L 312.4,81.4 L 318.6,81.2 L 323.2,83.7 L 313.8,89.9 L 312.8,93.7 L 316.9,97.7 L 313.9,99.7 L 306.6,101.4 L 306.9,106.3 L 303.6,109.2 L 311.7,117.2 Z" fill="#E4E0D4" stroke="#B0A898" stroke-width="0.5" stroke-linejoin="round"/>
<path d="M 361.4,152.2 L 358.5,152.5 L 351.9,151.6 L 348.1,154.5 L 342.7,156.3 L 339.0,156.8 L 337.7,158.9 L 331.9,158.3 L 324.6,153.4 L 323.7,148.5 L 320.7,143.1 L 322.6,134.1 L 325.8,130.4 L 323.1,125.4 L 319.0,123.8 L 320.6,119.2 L 317.8,116.7 L 311.7,117.2 L 303.6,109.2 L 306.9,106.3 L 306.6,101.4 L 313.9,99.7 L 316.9,97.7 L 312.8,93.7 L 313.8,89.9 L 323.2,83.7 L 331.0,87.6 L 338.3,94.5 L 338.7,99.9 L 343.1,100.2 L 349.5,105.3 L 354.2,109.0 L 352.3,118.5 L 345.1,121.3 L 345.7,123.8 L 343.5,129.3 L 348.8,137.0 L 352.6,137.0 L 354.1,143.0 L 361.4,152.2 Z" fill="#E4E0D4" stroke="#B0A898" stroke-width="0.5" stroke-linejoin="round"/>
<path d="M 385.3,147.8 L 378.5,145.6 L 372.9,146.6 L 368.1,145.7 L 366.9,148.8 L 368.9,150.9 L 367.8,153.0 L 361.4,152.2 L 354.1,143.0 L 352.6,137.0 L 348.8,137.0 L 343.5,129.3 L 345.7,123.8 L 345.1,121.3 L 352.3,118.5 L 354.2,109.0 L 368.4,111.1 L 369.7,109.2 L 379.2,108.5 L 392.0,111.3 L 385.8,120.4 L 386.8,127.7 L 391.4,133.9 L 389.3,138.5 L 388.3,143.3 L 385.3,147.8 Z" fill="#E4E0D4" stroke="#B0A898" stroke-width="0.5" stroke-linejoin="round"/>
<path d="M 419.3,128.3 L 412.2,138.0 L 408.6,145.8 L 404.1,149.8 L 398.4,150.5 L 396.8,147.6 L 394.1,147.1 L 390.4,150.0 L 385.3,147.8 L 388.3,143.3 L 389.3,138.5 L 391.4,133.9 L 386.8,127.7 L 385.8,120.4 L 392.0,111.3 L 396.0,112.5 L 404.7,115.0 L 417.3,123.9 L 419.3,128.3 Z M 1105.0,-351.6 L 1110.6,-348.8 L 1127.6,-346.9 L 1121.7,-339.6 L 1120.2,-332.1 L 1116.9,-330.3 L 1111.5,-331.3 L 1111.9,-328.6 L 1103.2,-322.6 L 1103.0,-317.8 L 1108.7,-319.5 L 1112.8,-314.8 L 1112.3,-311.8 L 1115.8,-307.9 L 1111.7,-304.6 L 1114.7,-296.4 L 1121.1,-295.1 L 1119.8,-290.5 L 1109.0,-284.5 L 1085.7,-287.4 L 1068.4,-284.0 L 1067.0,-277.6 L 1053.3,-276.2 L 1040.0,-281.0 L 1035.6,-278.7 L 1013.8,-283.5 L 1009.1,-287.6 L 1015.2,-294.0 L 1017.5,-315.1 L 1005.3,-326.2 L 996.5,-331.6 L 978.4,-335.6 L 977.2,-343.4 L 992.6,-345.7 L 1012.5,-342.9 L 1008.7,-354.9 L 1019.9,-350.4 L 1047.5,-358.6 L 1051.1,-367.3 L 1061.4,-369.5 L 1063.2,-365.7 L 1068.7,-365.6 L 1074.2,-361.3 L 1082.4,-356.3 L 1088.5,-357.1 L 1098.9,-352.3 L 1101.6,-351.4 L 1105.0,-351.6 Z M 1135.3,-279.2 L 1143.0,-283.3 L 1145.0,-274.2 L 1141.1,-266.0 L 1135.7,-268.2 L 1132.9,-275.3 L 1135.3,-279.2 Z" fill="#E4E0D4" stroke="#B0A898" stroke-width="0.5" stroke-linejoin="round"/>
<path d="M 138.1,173.9 L 139.8,181.9 L 136.1,188.8 L 123.2,199.9 L 108.9,204.1 L 101.6,213.3 L 99.4,220.4 L 92.7,224.8 L 87.7,219.5 L 82.9,218.3 L 78.0,219.2 L 77.7,215.3 L 81.1,212.8 L 79.7,208.3 L 86.0,200.4 L 83.4,195.8 L 78.9,200.7 L 71.8,196.1 L 74.2,193.1 L 72.2,183.5 L 76.4,181.9 L 78.5,175.3 L 83.0,168.5 L 82.2,164.1 L 88.7,161.9 L 96.8,157.7 L 108.7,163.7 L 110.9,163.5 L 113.8,168.1 L 123.9,169.6 L 127.2,167.9 L 133.0,171.4 L 138.1,173.9 Z" fill="#E4E0D4" stroke="#B0A898" stroke-width="0.5" stroke-linejoin="round"/>
<path d="M 342.1,386.0 L 345.6,391.9 L 344.8,406.3 L 357.3,408.3 L 362.2,406.2 L 370.2,409.1 L 372.4,412.2 L 373.5,421.9 L 374.9,426.0 L 379.3,426.5 L 383.8,424.8 L 388.0,426.7 L 388.0,432.5 L 386.4,438.8 L 384.1,444.9 L 382.1,454.2 L 371.4,462.4 L 362.0,464.1 L 348.7,462.4 L 336.7,459.6 L 348.4,443.5 L 346.7,438.8 L 334.5,434.6 L 320.0,426.8 L 310.3,425.2 L 288.5,407.9 L 293.2,395.3 L 293.5,389.6 L 299.2,380.2 L 319.8,377.2 L 330.9,377.3 L 341.9,382.7 L 342.1,386.0 Z" fill="#E4E0D4" stroke="#B0A898" stroke-width="0.5" stroke-linejoin="round"/>
<path d="M 300.4,58.3 L 307.3,56.9 L 309.8,57.3 L 309.3,65.2 L 299.4,66.4 L 297.2,65.4 L 300.7,62.5 L 300.4,58.3 Z" fill="#E4E0D4" stroke="#B0A898" stroke-width="0.5" stroke-linejoin="round"/>
<text x="521.9" y="341.7" text-anchor="middle" dominant-baseline="middle" font-family="Helvetica,Arial,sans-serif" font-size="9" fill="#4A6880" font-style="italic" opacity="0.85">Oceano Atlântico</text>
<text x="59.6" y="341.7" text-anchor="middle" dominant-baseline="middle" font-family="Helvetica,Arial,sans-serif" font-size="9" fill="#4A6880" font-style="italic" opacity="0.85">Oceano Pacífico</text>
<text x="261.1" y="543.0" font-family="Helvetica,Arial,sans-serif" font-size="9" font-weight="normal" text-anchor="middle" dominant-baseline="middle" fill="white" stroke="white" stroke-width="3" stroke-linejoin="round" opacity="0.75">Argentina</text>
<text x="261.1" y="543.0" font-family="Helvetica,Arial,sans-serif" font-size="9" font-weight="normal" text-anchor="middle" dominant-baseline="middle" fill="#2A2228">Argentina</text>
<text x="190.0" y="543.0" font-family="Helvetica,Arial,sans-serif" font-size="9" font-weight="normal" text-anchor="middle" dominant-baseline="middle" fill="white" stroke="white" stroke-width="3" stroke-linejoin="round" opacity="0.75">Chile</text>
<text x="190.0" y="543.0" font-family="Helvetica,Arial,sans-serif" font-size="9" font-weight="normal" text-anchor="middle" dominant-baseline="middle" fill="#2A2228">Chile</text>
<text x="326.6" y="719.9" font-family="Helvetica,Arial,sans-serif" font-size="9" font-weight="normal" text-anchor="middle" dominant-baseline="middle" fill="white" stroke="white" stroke-width="3" stroke-linejoin="round" opacity="0.75">Falkland Is.</text>
<text x="326.6" y="719.9" font-family="Helvetica,Arial,sans-serif" font-size="9" font-weight="normal" text-anchor="middle" dominant-baseline="middle" fill="#2A2228">Falkland Is.</text>
<text x="367.8" y="516.5" font-family="Helvetica,Arial,sans-serif" font-size="9" font-weight="normal" text-anchor="middle" dominant-baseline="middle" fill="white" stroke="white" stroke-width="3" stroke-linejoin="round" opacity="0.75">Uruguai</text>
<text x="367.8" y="516.5" font-family="Helvetica,Arial,sans-serif" font-size="9" font-weight="normal" text-anchor="middle" dominant-baseline="middle" fill="#2A2228">Uruguai</text>
<text x="415.2" y="278.2" font-family="Helvetica,Arial,sans-serif" font-size="11" font-weight="bold" text-anchor="middle" dominant-baseline="middle" fill="white" stroke="white" stroke-width="3" stroke-linejoin="round" opacity="0.75">Brasil</text>
<text x="415.2" y="278.2" font-family="Helvetica,Arial,sans-serif" font-size="11" font-weight="bold" text-anchor="middle" dominant-baseline="middle" fill="#2A2228">Brasil</text>
<text x="272.9" y="341.7" font-family="Helvetica,Arial,sans-serif" font-size="9" font-weight="normal" text-anchor="middle" dominant-baseline="middle" fill="white" stroke="white" stroke-width="3" stroke-linejoin="round" opacity="0.75">Bolívia</text>
<text x="272.9" y="341.7" font-family="Helvetica,Arial,sans-serif" font-size="9" font-weight="normal" text-anchor="middle" dominant-baseline="middle" fill="#2A2228">Bolívia</text>
<text x="142.5" y="278.2" font-family="Helvetica,Arial,sans-serif" font-size="9" font-weight="normal" text-anchor="middle" dominant-baseline="middle" fill="white" stroke="white" stroke-width="3" stroke-linejoin="round" opacity="0.75">Peru</text>
<text x="142.5" y="278.2" font-family="Helvetica,Arial,sans-serif" font-size="9" font-weight="normal" text-anchor="middle" dominant-baseline="middle" fill="#2A2228">Peru</text>
<text x="154.4" y="124.6" font-family="Helvetica,Arial,sans-serif" font-size="9" font-weight="normal" text-anchor="middle" dominant-baseline="middle" fill="white" stroke="white" stroke-width="3" stroke-linejoin="round" opacity="0.75">Colômbia</text>
<text x="154.4" y="124.6" font-family="Helvetica,Arial,sans-serif" font-size="9" font-weight="normal" text-anchor="middle" dominant-baseline="middle" fill="#2A2228">Colômbia</text>
<text x="82.0" y="83.1" font-family="Helvetica,Arial,sans-serif" font-size="9" font-weight="normal" text-anchor="middle" dominant-baseline="middle" fill="white" stroke="white" stroke-width="3" stroke-linejoin="round" opacity="0.75">Panamá</text>
<text x="82.0" y="83.1" font-family="Helvetica,Arial,sans-serif" font-size="9" font-weight="normal" text-anchor="middle" dominant-baseline="middle" fill="#2A2228">Panamá</text>
<text x="33.0" y="69.3" font-family="Helvetica,Arial,sans-serif" font-size="9" font-weight="normal" text-anchor="middle" dominant-baseline="middle" fill="white" stroke="white" stroke-width="3" stroke-linejoin="round" opacity="0.75">Costa Rica</text>
<text x="33.0" y="69.3" font-family="Helvetica,Arial,sans-serif" font-size="9" font-weight="normal" text-anchor="middle" dominant-baseline="middle" fill="#2A2228">Costa Rica</text>
<text x="19.2" y="36.0" font-family="Helvetica,Arial,sans-serif" font-size="9" font-weight="normal" text-anchor="middle" dominant-baseline="middle" fill="white" stroke="white" stroke-width="3" stroke-linejoin="round" opacity="0.75">Nicarágua</text>
<text x="19.2" y="36.0" font-family="Helvetica,Arial,sans-serif" font-size="9" font-weight="normal" text-anchor="middle" dominant-baseline="middle" fill="#2A2228">Nicarágua</text>
<text x="249.2" y="87.5" font-family="Helvetica,Arial,sans-serif" font-size="9" font-weight="normal" text-anchor="middle" dominant-baseline="middle" fill="white" stroke="white" stroke-width="3" stroke-linejoin="round" opacity="0.75">Venezuela</text>
<text x="249.2" y="87.5" font-family="Helvetica,Arial,sans-serif" font-size="9" font-weight="normal" text-anchor="middle" dominant-baseline="middle" fill="#2A2228">Venezuela</text>
<text x="338.1" y="119.3" font-family="Helvetica,Arial,sans-serif" font-size="9" font-weight="normal" text-anchor="middle" dominant-baseline="middle" fill="white" stroke="white" stroke-width="3" stroke-linejoin="round" opacity="0.75">Guiana</text>
<text x="338.1" y="119.3" font-family="Helvetica,Arial,sans-serif" font-size="9" font-weight="normal" text-anchor="middle" dominant-baseline="middle" fill="#2A2228">Guiana</text>
<text x="367.8" y="129.9" font-family="Helvetica,Arial,sans-serif" font-size="9" font-weight="normal" text-anchor="middle" dominant-baseline="middle" fill="white" stroke="white" stroke-width="3" stroke-linejoin="round" opacity="0.75">Suriname</text>
<text x="367.8" y="129.9" font-family="Helvetica,Arial,sans-serif" font-size="9" font-weight="normal" text-anchor="middle" dominant-baseline="middle" fill="#2A2228">Suriname</text>
<text x="107.0" y="188.2" font-family="Helvetica,Arial,sans-serif" font-size="9" font-weight="normal" text-anchor="middle" dominant-baseline="middle" fill="white" stroke="white" stroke-width="3" stroke-linejoin="round" opacity="0.75">Equador</text>
<text x="107.0" y="188.2" font-family="Helvetica,Arial,sans-serif" font-size="9" font-weight="normal" text-anchor="middle" dominant-baseline="middle" fill="#2A2228">Equador</text>
<text x="344.1" y="415.9" font-family="Helvetica,Arial,sans-serif" font-size="9" font-weight="normal" text-anchor="middle" dominant-baseline="middle" fill="white" stroke="white" stroke-width="3" stroke-linejoin="round" opacity="0.75">Paraguai</text>
<text x="344.1" y="415.9" font-family="Helvetica,Arial,sans-serif" font-size="9" font-weight="normal" text-anchor="middle" dominant-baseline="middle" fill="#2A2228">Paraguai</text>
<text x="303.5" y="61.7" font-family="Helvetica,Arial,sans-serif" font-size="9" font-weight="normal" text-anchor="middle" dominant-baseline="middle" fill="white" stroke="white" stroke-width="3" stroke-linejoin="round" opacity="0.75">Trinidad e Tobago</text>
<text x="303.5" y="61.7" font-family="Helvetica,Arial,sans-serif" font-size="9" font-weight="normal" text-anchor="middle" dominant-baseline="middle" fill="#2A2228">Trinidad e Tobago</text>
<circle cx="575.2" cy="309.7" r="4.5" fill="#E8604B" stroke="white" stroke-width="1.5"/>
<text x="582.2" y="309.7" text-anchor="start" dominant-baseline="middle" font-family="Helvetica,Arial,sans-serif" font-size="9" fill="#2A2228" font-weight="bold">Salvador (BA)</text>
</g>
<rect x="24" y="24" width="652" height="752" fill="none" stroke="#90A4B8" stroke-width="1"/>
<text x="674" y="795" text-anchor="end" font-family="Helvetica,Arial,sans-serif" font-size="7" fill="#909098" opacity="0.85">Natural Earth · domínio público</text>
</svg>