<svg xmlns="http://www.w3.org/2000/svg" viewBox="0 0 800 580">
<defs>
  <clipPath id="c">
    <rect x="24" y="24" width="752" height="532"/>
  </clipPath>
</defs>
<rect width="800" height="580" fill="#B8CEDE"/>
<g clip-path="url(#c)">
<path d="M 1062.3,348.5 L 1055.6,357.5 L 1048.2,358.8 L 1047.8,372.5 L 1042.9,378.7 L 1025.3,374.2 L 1018.9,398.6 L 1014.4,401.6 L 996.9,407.1 L 1004.8,430.8 L 998.8,434.3 L 999.5,442.1 L 994.0,440.1 L 989.6,435.2 L 976.5,433.8 L 961.8,433.4 L 958.6,434.9 L 946.0,429.2 L 941.0,432.0 L 939.6,440.0 L 925.0,435.3 L 919.2,437.3 L 917.2,443.2 L 912.1,445.8 L 900.5,455.3 L 896.6,465.0 L 893.3,465.1 L 890.9,458.7 L 879.6,458.2 L 877.8,447.0 L 873.5,446.9 L 874.2,433.3 L 863.6,423.3 L 848.4,424.4 L 838.0,426.3 L 829.6,414.1 L 822.4,408.9 L 808.6,399.1 L 807.0,397.9 L 784.2,406.0 L 784.6,456.3 L 780.0,457.0 L 773.8,446.3 L 767.9,442.5 L 757.8,445.3 L 753.9,449.8 L 753.4,446.5 L 755.6,440.8 L 753.9,436.1 L 743.6,431.4 L 739.7,419.2 L 734.8,415.7 L 734.5,411.3 L 743.1,412.6 L 743.4,402.6 L 750.9,400.4 L 758.7,402.4 L 760.3,389.1 L 758.7,380.7 L 749.8,381.3 L 742.3,378.0 L 732.1,384.0 L 723.8,386.9 L 719.3,384.7 L 720.2,377.6 L 714.6,368.5 L 708.0,368.9 L 700.5,359.6 L 705.6,349.3 L 703.0,346.5 L 710.1,331.5 L 719.2,339.5 L 720.3,329.5 L 738.5,314.7 L 752.4,314.3 L 771.9,323.7 L 782.3,329.3 L 791.7,323.5 L 805.8,323.2 L 817.1,330.3 L 819.6,326.3 L 832.1,326.8 L 834.3,320.4 L 819.9,311.0 L 828.4,304.4 L 826.8,300.6 L 835.3,297.1 L 828.9,287.7 L 832.9,283.1 L 866.1,278.3 L 870.4,275.0 L 892.5,269.9 L 900.5,264.3 L 916.4,267.2 L 919.1,281.4 L 928.4,278.0 L 939.7,282.7 L 939.0,290.1 L 947.5,289.4 L 969.7,276.5 L 966.4,280.8 L 977.7,291.3 L 997.5,325.9 L 1002.2,318.8 L 1014.4,326.7 L 1027.1,323.2 L 1032.0,325.6 L 1036.2,333.5 L 1042.4,336.1 L 1046.2,341.9 L 1057.6,340.1 L 1062.3,348.5 Z" fill="#E4E0D4" stroke="#B0A898" stroke-width="0.5" stroke-linejoin="round"/>
<path d="M 784.6,456.3 L 784.2,406.0 L 807.0,397.9 L 808.6,399.1 L 822.4,408.9 L 829.6,414.1 L 838.0,426.3 L 848.4,424.4 L 863.6,423.3 L 874.2,433.3 L 873.5,446.9 L 877.8,447.0 L 879.6,458.2 L 890.9,458.7 L 893.3,465.1 L 896.6,465.0 L 900.5,455.3 L 912.1,445.8 L 917.2,443.2 L 919.8,444.6 L 912.4,453.4 L 918.9,458.6 L 925.3,455.2 L 935.7,462.3 L 924.4,472.2 L 917.7,470.8 L 914.0,471.2 L 912.8,467.4 L 914.6,461.1 L 902.8,464.2 L 900.0,473.0 L 895.8,480.5 L 888.4,479.9 L 886.1,485.9 L 892.6,489.1 L 894.5,499.3 L 889.5,513.1 L 882.8,510.2 L 877.9,510.1 L 878.1,501.8 L 866.4,495.9 L 857.1,489.3 L 851.4,482.8 L 841.2,473.4 L 836.9,459.4 L 833.9,456.9 L 824.4,457.5 L 821.0,454.7 L 820.0,443.8 L 808.1,436.6 L 800.7,444.5 L 793.1,449.2 L 794.5,456.1 L 784.6,456.3 Z" fill="#E4E0D4" stroke="#B0A898" stroke-width="0.5" stroke-linejoin="round"/>
<path d="M 1870.6,49.9 L 1881.9,44.2 L 1881.9,53.6 L 1872.2,54.3 L 1870.6,49.9 Z M 723.8,386.9 L 719.8,395.0 L 711.2,397.2 L 702.4,411.3 L 710.5,424.2 L 709.6,433.4 L 719.2,449.5 L 719.2,449.5 L 714.0,455.0 L 712.4,458.4 L 708.5,457.5 L 702.4,449.2 L 700.0,448.8 L 694.4,445.6 L 691.7,440.0 L 683.4,437.2 L 678.1,439.3 L 676.5,436.8 L 664.5,430.2 L 651.5,428.0 L 644.0,425.7 L 642.9,427.3 L 631.6,415.8 L 621.5,410.6 L 613.9,402.6 L 620.3,400.4 L 627.7,389.0 L 622.7,383.6 L 635.8,378.1 L 635.5,375.1 L 627.6,377.3 L 627.9,371.2 L 632.4,367.4 L 641.0,366.4 L 642.4,361.9 L 640.4,354.3 L 644.0,347.2 L 643.9,343.2 L 630.9,338.7 L 625.7,338.9 L 620.2,332.5 L 613.4,334.7 L 602.2,329.9 L 602.4,327.2 L 599.3,321.3 L 592.2,320.6 L 591.5,316.4 L 593.7,313.6 L 588.0,305.9 L 578.9,307.2 L 576.2,306.5 L 573.9,309.6 L 570.6,309.1 L 570.6,309.1 L 568.4,300.3 L 566.4,295.8 L 568.1,294.5 L 575.2,295.0 L 578.7,292.0 L 576.1,288.4 L 570.1,286.0 L 570.7,283.5 L 567.1,281.0 L 561.5,272.1 L 563.4,268.4 L 562.6,262.0 L 553.9,258.8 L 549.3,260.4 L 548.0,257.0 L 538.7,253.6 L 535.8,245.5 L 535.1,238.9 L 530.8,235.8 L 534.6,231.5 L 532.0,218.7 L 538.3,210.9 L 537.0,208.5 L 537.0,208.5 L 547.0,201.0 L 537.7,194.5 L 537.7,194.5 L 556.7,177.1 L 564.9,169.2 L 568.2,162.2 L 555.1,152.9 L 558.8,144.0 L 550.8,133.8 L 556.7,122.1 L 546.5,106.6 L 554.6,96.3 L 541.1,87.2 L 542.4,77.7 L 549.5,76.4 L 564.6,71.0 L 564.6,71.0 L 573.7,66.2 L 588.2,74.5 L 612.5,77.7 L 645.9,93.1 L 652.7,99.6 L 653.3,108.7 L 643.4,115.9 L 629.0,119.5 L 589.5,109.1 L 583.0,110.9 L 597.4,120.8 L 598.0,127.2 L 598.6,141.1 L 610.0,145.3 L 616.9,148.8 L 618.0,142.2 L 612.7,136.3 L 618.3,131.2 L 639.7,139.7 L 647.1,136.3 L 641.2,126.4 L 661.8,113.0 L 670.0,113.8 L 678.2,118.5 L 683.4,109.2 L 676.0,101.0 L 680.3,92.9 L 673.8,84.4 L 698.6,88.8 L 703.6,96.4 L 692.4,98.1 L 692.5,105.7 L 699.5,110.4 L 713.1,107.4 L 715.3,98.7 L 733.8,92.2 L 764.7,80.5 L 771.3,81.2 L 762.6,89.5 L 773.6,90.9 L 779.9,86.2 L 796.5,85.8 L 809.6,80.2 L 819.7,88.4 L 829.8,79.4 L 820.5,71.5 L 825.1,67.0 L 851.2,71.1 L 863.5,75.4 L 895.5,90.9 L 901.5,83.8 L 892.5,76.6 L 892.2,73.7 L 881.5,72.4 L 884.5,65.9 L 879.7,55.3 L 879.5,50.9 L 895.8,38.5 L 901.6,26.1 L 908.2,23.5 L 931.6,27.1 L 933.4,34.6 L 925.1,45.7 L 930.6,50.1 L 933.4,59.6 L 931.4,78.3 L 941.2,86.6 L 937.4,95.7 L 920.0,115.1 L 930.1,117.1 L 933.7,112.2 L 943.4,108.7 L 945.7,102.0 L 953.4,95.5 L 948.2,87.7 L 952.4,78.7 L 942.7,77.6 L 940.6,70.0 L 947.6,56.3 L 936.1,45.2 L 952.0,36.0 L 949.9,26.3 L 954.3,26.0 L 959.0,33.5 L 955.5,46.7 L 965.0,49.2 L 960.9,39.4 L 975.7,34.0 L 994.1,33.3 L 1010.4,41.1 L 1002.6,29.7 L 1001.7,15.2 L 1017.1,12.4 L 1038.4,13.0 L 1057.5,11.2 L 1050.3,4.1 L 1060.6,-4.9 L 1070.7,-5.2 L 1087.9,-12.0 L 1111.3,-13.8 L 1114.3,-17.6 L 1137.5,-18.8 L 1144.7,-15.8 L 1164.6,-23.0 L 1180.8,-22.8 L 1183.3,-28.7 L 1191.7,-34.5 L 1212.6,-40.1 L 1227.8,-35.7 L 1215.7,-32.3 L 1235.8,-30.2 L 1238.2,-23.5 L 1246.3,-26.8 L 1272.1,-26.6 L 1292.1,-20.0 L 1299.2,-14.8 L 1297.0,-7.8 L 1287.2,-3.7 L 1263.9,3.9 L 1257.3,7.9 L 1268.3,9.8 L 1281.3,13.3 L 1289.3,10.7 L 1293.8,19.4 L 1297.7,15.9 L 1311.8,13.7 L 1340.2,16.0 L 1342.4,22.4 L 1379.4,24.4 L 1379.9,14.0 L 1398.7,16.4 L 1412.8,16.3 L 1427.1,23.5 L 1431.1,32.2 L 1425.9,37.9 L 1437.0,48.6 L 1450.9,54.2 L 1459.5,39.9 L 1473.7,46.0 L 1488.7,42.3 L 1505.9,46.5 L 1512.4,42.7 L 1526.8,44.6 L 1520.5,32.0 L 1532.1,26.1 L 1612.0,34.9 L 1619.6,43.0 L 1642.7,53.4 L 1678.5,50.9 L 1696.1,53.1 L 1703.4,58.7 L 1702.4,68.7 L 1713.3,72.6 L 1725.1,69.8 L 1740.8,69.4 L 1757.5,72.1 L 1774.3,70.6 L 1789.7,82.7 L 1800.6,78.4 L 1793.5,69.7 L 1797.4,63.6 L 1825.6,67.4 L 1844.1,66.6 L 1869.5,73.1 L 1881.9,79.1 L 1881.9,133.4 L 1881.8,133.5 L 1870.4,139.5 L 1859.0,138.5 L 1867.0,145.7 L 1872.2,157.0 L 1876.3,160.6 L 1877.3,166.3 L 1875.1,169.9 L 1858.6,166.9 L 1833.8,177.2 L 1826.0,178.8 L 1812.4,188.4 L 1799.6,196.7 L 1796.3,202.9 L 1783.7,193.5 L 1760.6,204.2 L 1756.6,199.2 L 1748.1,205.0 L 1736.3,203.1 L 1733.4,212.1 L 1722.8,225.3 L 1723.1,230.8 L 1733.2,233.9 L 1732.0,253.7 L 1723.8,254.2 L 1720.0,265.6 L 1723.7,271.5 L 1708.2,278.5 L 1705.1,294.1 L 1691.9,297.4 L 1689.3,311.2 L 1676.5,324.0 L 1673.3,314.6 L 1669.5,294.7 L 1664.5,264.3 L 1668.8,245.4 L 1676.3,237.3 L 1676.7,230.9 L 1690.5,227.9 L 1706.3,210.7 L 1721.5,196.7 L 1737.4,185.8 L 1744.5,166.5 L 1733.8,167.7 L 1728.5,178.9 L 1706.0,193.9 L 1698.8,177.1 L 1675.9,181.8 L 1653.8,204.6 L 1661.1,213.0 L 1641.3,216.6 L 1627.7,218.0 L 1628.3,208.1 L 1614.6,206.0 L 1603.6,212.7 L 1576.5,210.4 L 1547.4,214.4 L 1518.8,241.1 L 1484.9,273.2 L 1498.8,274.9 L 1503.2,283.5 L 1511.8,286.5 L 1517.4,279.7 L 1527.1,280.6 L 1539.9,295.6 L 1540.2,307.2 L 1533.3,320.8 L 1532.5,337.1 L 1528.5,358.9 L 1515.2,378.7 L 1512.2,388.1 L 1500.2,404.0 L 1488.3,419.7 L 1482.6,427.8 L 1470.8,435.8 L 1465.2,436.0 L 1459.7,429.3 L 1447.8,439.3 L 1446.4,443.9 L 1446.4,443.9 L 1446.4,443.9 L 1446.4,443.9 L 1445.2,441.5 L 1445.2,441.5 L 1445.1,434.6 L 1449.7,434.2 L 1450.9,418.1 L 1448.6,406.4 L 1456.2,401.6 L 1466.9,404.0 L 1472.9,390.7 L 1475.9,375.8 L 1479.3,370.8 L 1484.0,358.5 L 1469.4,362.5 L 1461.7,367.9 L 1448.3,367.9 L 1444.7,355.1 L 1434.2,345.4 L 1418.8,341.0 L 1415.5,327.7 L 1412.4,319.3 L 1409.1,313.4 L 1403.7,299.6 L 1395.9,294.6 L 1382.7,290.6 L 1370.9,290.9 L 1359.9,293.4 L 1352.6,300.2 L 1357.5,303.4 L 1357.6,311.0 L 1352.7,315.3 L 1344.7,329.8 L 1344.8,335.8 L 1332.3,344.4 L 1321.7,339.3 L 1311.1,340.4 L 1306.5,335.8 L 1301.2,334.4 L 1288.2,344.0 L 1276.6,346.2 L 1268.4,349.6 L 1257.3,347.4 L 1249.1,347.5 L 1243.7,340.6 L 1235.1,334.0 L 1226.2,332.2 L 1215.0,334.0 L 1206.6,336.5 L 1194.1,330.8 L 1192.4,320.6 L 1182.0,317.1 L 1174.0,315.5 L 1164.0,309.8 L 1154.9,324.0 L 1158.5,332.0 L 1149.9,341.5 L 1137.1,338.1 L 1128.3,337.6 L 1122.3,331.2 L 1113.1,331.0 L 1105.4,326.8 L 1092.0,333.2 L 1075.1,345.0 L 1065.8,347.3 L 1062.3,348.5 L 1057.6,340.1 L 1046.2,341.9 L 1042.4,336.1 L 1036.2,333.5 L 1032.0,325.6 L 1027.1,323.2 L 1014.4,326.7 L 1002.2,318.8 L 997.5,325.9 L 977.7,291.3 L 966.4,280.8 L 969.7,276.5 L 947.5,289.4 L 939.0,290.1 L 939.7,282.7 L 928.4,278.0 L 919.1,281.4 L 916.4,267.2 L 900.5,264.3 L 892.5,269.9 L 870.4,275.0 L 866.1,278.3 L 832.9,283.1 L 828.9,287.7 L 835.3,297.1 L 826.8,300.6 L 828.4,304.4 L 819.9,311.0 L 834.3,320.4 L 832.1,326.8 L 819.6,326.3 L 817.1,330.3 L 805.8,323.2 L 791.7,323.5 L 782.3,329.3 L 771.9,323.7 L 752.4,314.3 L 738.5,314.7 L 720.3,329.5 L 719.2,339.5 L 710.1,331.5 L 703.0,346.5 L 705.6,349.3 L 700.5,359.6 L 708.0,368.9 L 714.6,368.5 L 720.2,377.6 L 719.3,384.7 L 723.8,386.9 Z M 1119.1,-85.5 L 1138.2,-88.5 L 1155.4,-81.7 L 1175.8,-68.5 L 1173.6,-56.2 L 1154.3,-54.5 L 1129.6,-58.5 L 1115.0,-63.7 L 1108.2,-73.4 L 1096.1,-76.1 L 1119.1,-85.5 Z M 1199.2,-61.7 L 1221.6,-53.9 L 1219.0,-48.4 L 1169.1,-43.1 L 1185.3,-61.0 L 1192.6,-62.6 L 1199.2,-61.7 Z M 1517.7,-18.8 L 1541.0,-18.2 L 1573.0,-11.0 L 1566.0,-0.8 L 1533.4,-1.2 L 1518.8,2.0 L 1501.2,-6.9 L 1506.0,-16.2 L 1517.7,-18.8 Z M 1600.7,-8.0 L 1622.9,-4.4 L 1612.7,1.0 L 1598.6,-0.3 L 1582.1,-5.6 L 1584.3,-10.1 L 1600.7,-8.0 Z M 1526.8,19.0 L 1535.2,13.6 L 1546.2,12.3 L 1558.8,17.5 L 1559.9,21.1 L 1546.5,21.2 L 1528.3,19.7 L 1526.8,19.0 Z M 686.2,-79.5 L 703.4,-82.0 L 716.9,-82.2 L 718.7,-78.5 L 723.8,-81.8 L 732.1,-84.0 L 745.2,-81.0 L 741.8,-79.0 L 729.9,-77.2 L 722.0,-76.1 L 720.7,-73.9 L 710.4,-71.6 L 700.8,-74.9 L 705.9,-79.1 L 686.2,-79.5 Z M 490.5,278.7 L 474.2,278.9 L 463.4,277.4 L 465.4,271.4 L 477.6,266.9 L 486.8,269.3 L 490.8,271.5 L 489.8,275.2 L 490.5,278.7 Z M 762.8,13.8 L 784.0,1.8 L 781.6,-4.4 L 801.4,-11.6 L 830.6,-20.4 L 860.0,-22.9 L 875.2,-28.0 L 892.4,-29.7 L 898.6,-24.4 L 892.6,-20.1 L 861.3,-13.3 L 834.2,-6.8 L 806.8,6.1 L 793.6,19.5 L 779.7,32.6 L 781.5,43.9 L 798.4,55.1 L 793.2,56.3 L 764.3,54.5 L 762.0,48.5 L 745.9,44.8 L 744.6,37.4 L 753.7,34.5 L 753.4,27.1 L 770.9,15.4 L 762.8,13.8 Z M 1553.8,287.2 L 1556.8,300.4 L 1556.6,313.8 L 1560.3,327.5 L 1569.2,351.7 L 1556.1,347.2 L 1550.6,366.9 L 1559.3,380.9 L 1559.0,390.4 L 1552.3,382.2 L 1546.5,392.8 L 1544.9,381.3 L 1545.9,368.0 L 1544.8,353.3 L 1546.9,343.0 L 1547.3,324.8 L 1542.1,311.3 L 1542.9,292.7 L 1551.1,286.4 L 1547.5,280.1 L 1551.5,278.2 L 1553.8,287.2 Z M -1258.2,103.0 L -1258.9,111.5 L -1253.0,114.9 L -1255.0,105.0 L -1231.0,107.0 L -1213.7,119.8 L -1222.5,125.7 L -1237.0,127.2 L -1237.2,140.5 L -1240.7,143.3 L -1249.0,142.9 L -1255.8,138.2 L -1267.5,134.2 L -1269.5,128.3 L -1278.5,126.0 L -1288.5,127.8 L -1293.4,123.0 L -1291.4,118.0 L -1302.0,121.2 L -1298.0,127.6 L -1303.1,133.4 L -1303.1,79.1 L -1281.4,89.5 L -1258.2,103.0 Z M -1291.5,52.7 L -1303.1,53.6 L -1303.1,44.2 L -1301.9,43.7 L -1294.4,43.7 L -1281.6,47.6 L -1282.4,49.5 L -1291.5,52.7 Z M 585.2,392.7 L 587.6,389.3 L 593.8,392.2 L 596.7,392.8 L 597.8,395.5 L 599.2,395.9 L 599.2,397.1 L 603.6,400.4 L 612.6,399.5 L 610.9,404.4 L 601.2,406.8 L 589.2,414.7 L 584.3,411.9 L 586.2,405.5 L 576.5,401.5 L 578.1,398.9 L 586.6,394.3 L 585.2,392.7 Z" fill="#E4E0D4" stroke="#B0A898" stroke-width="0.5" stroke-linejoin="round"/>
<path d="M 423.4,-67.0 L 426.7,-71.7 L 439.7,-72.2 L 450.9,-67.4 L 480.0,-57.2 L 457.7,-51.9 L 452.8,-41.8 L 445.1,-39.3 L 440.9,-28.0 L 430.2,-27.4 L 411.2,-35.8 L 419.2,-40.6 L 405.9,-44.5 L 388.7,-56.1 L 381.8,-66.7 L 405.9,-71.6 L 410.8,-66.9 L 423.4,-67.0 Z M 564.6,71.0 L 549.5,76.4 L 542.4,77.7 L 546.1,68.1 L 534.8,62.7 L 521.0,67.3 L 516.7,77.3 L 508.2,83.3 L 498.8,80.0 L 487.2,80.7 L 477.4,73.5 L 472.1,77.1 L 466.6,77.7 L 465.3,86.7 L 448.6,84.5 L 446.3,92.1 L 437.8,92.0 L 431.9,101.7 L 423.1,116.8 L 409.3,136.0 L 412.6,140.7 L 409.5,146.1 L 400.7,145.9 L 395.0,158.7 L 395.5,176.8 L 401.2,183.7 L 398.2,199.7 L 390.9,209.1 L 387.0,216.9 L 381.0,208.6 L 363.6,224.3 L 351.8,227.5 L 339.5,220.6 L 336.4,205.9 L 333.6,174.4 L 341.7,165.7 L 365.1,154.2 L 382.6,140.1 L 398.7,121.1 L 420.0,94.8 L 434.8,84.5 L 459.1,67.4 L 478.5,61.4 L 493.1,62.2 L 506.6,50.9 L 522.7,51.5 L 538.6,48.8 L 566.3,58.7 L 554.9,62.4 L 564.6,71.0 Z M 531.9,-72.3 L 518.8,-64.9 L 493.1,-63.3 L 467.0,-65.6 L 465.4,-69.3 L 452.7,-69.6 L 443.1,-75.8 L 470.4,-79.6 L 483.2,-76.4 L 492.2,-80.5 L 514.5,-77.0 L 531.9,-72.3 Z M 508.1,-42.2 L 488.4,-36.6 L 472.8,-39.8 L 478.9,-43.3 L 473.5,-47.7 L 491.9,-50.4 L 495.4,-45.3 L 508.1,-42.2 Z" fill="#C8DEC8" stroke="#B0A898" stroke-width="0.5" stroke-linejoin="round"/>
<path d="M -124.3,-107.3 L -94.6,-115.5 L -63.6,-114.9 L -52.3,-119.9 L -21.0,-121.2 L 49.7,-119.5 L 105.0,-108.7 L 88.7,-103.4 L 54.8,-102.8 L 7.2,-101.5 L 11.6,-99.1 L 43.0,-100.6 L 69.6,-95.9 L 86.8,-100.0 L 94.1,-95.1 L 84.4,-87.2 L 107.0,-92.3 L 149.9,-97.6 L 176.4,-94.9 L 181.4,-89.1 L 145.3,-79.4 L 140.3,-76.3 L 112.1,-73.9 L 132.6,-73.2 L 122.2,-63.3 L 115.1,-54.5 L 115.4,-39.3 L 126.0,-30.4 L 112.2,-29.8 L 97.6,-25.5 L 113.9,-18.3 L 116.0,-6.7 L 106.6,-5.4 L 118.0,6.3 L 98.4,7.3 L 108.6,12.9 L 105.7,17.7 L 93.3,19.8 L 80.9,19.8 L 92.0,29.1 L 92.1,35.1 L 74.6,29.5 L 70.1,33.1 L 82.0,36.5 L 93.6,44.9 L 97.0,55.9 L 81.2,58.5 L 74.4,53.2 L 63.4,45.4 L 66.5,54.7 L 56.2,61.8 L 79.5,62.4 L 91.7,63.2 L 68.0,75.0 L 43.9,85.8 L 18.0,90.5 L 8.3,90.6 L -0.9,95.8 L -13.2,110.2 L -32.2,119.8 L -38.3,120.3 L -50.1,123.7 L -62.8,126.9 L -70.4,135.3 L -70.5,144.9 L -75.0,153.8 L -89.4,164.7 L -85.9,175.4 L -89.8,186.7 L -94.4,200.0 L -106.8,200.8 L -119.9,189.7 L -137.6,189.6 L -146.2,182.1 L -152.1,168.8 L -167.4,151.9 L -171.9,143.0 L -173.1,130.7 L -185.3,118.1 L -182.2,108.1 L -188.1,103.3 L -179.3,87.3 L -166.0,82.3 L -162.5,76.5 L -160.6,65.9 L -170.8,70.7 L -175.6,72.8 L -183.5,74.7 L -194.4,70.2 L -195.0,61.0 L -191.5,53.7 L -183.3,53.5 L -165.2,57.2 L -180.4,48.5 L -188.4,43.8 L -197.2,45.7 L -204.6,42.4 L -194.7,29.6 L -200.1,24.6 L -207.1,15.1 L -217.7,0.7 L -229.0,-4.6 L -228.9,-10.3 L -252.6,-18.3 L -271.4,-19.3 L -295.1,-18.8 L -316.7,-17.8 L -326.9,-22.1 L -342.3,-30.7 L -319.1,-35.0 L -301.3,-35.7 L -339.1,-39.2 L -359.1,-44.8 L -357.8,-50.1 L -324.3,-56.7 L -291.9,-63.2 L -288.5,-68.2 L -312.4,-73.1 L -304.7,-78.5 L -274.1,-88.0 L -261.2,-89.5 L -264.9,-95.6 L -243.9,-99.2 L -216.7,-101.4 L -189.5,-101.5 L -179.9,-97.2 L -156.4,-104.8 L -135.3,-99.7 L -122.9,-98.6 L -104.5,-94.1 L -125.5,-101.5 L -124.3,-107.3 Z" fill="#E4E0D4" stroke="#B0A898" stroke-width="0.5" stroke-linejoin="round"/>
<path d="M -167.6,963.1 L -172.8,975.6 L -175.6,985.6 L -178.9,990.8 L -183.2,991.8 L -184.4,987.9 L -186.4,987.4 L -189.1,991.1 L -193.0,988.3 L -190.7,982.5 L -189.9,976.3 L -188.4,970.4 L -191.9,962.3 L -192.6,953.0 L -188.0,941.3 L -185.0,942.8 L -178.4,946.0 L -169.1,957.5 L -167.6,963.1 Z M 344.1,345.1 L 348.3,348.6 L 361.1,351.1 L 356.6,360.5 L 355.5,370.2 L 353.0,372.5 L 349.0,371.3 L 349.3,374.7 L 342.8,382.4 L 342.7,388.6 L 346.9,386.4 L 350.0,392.4 L 349.6,396.3 L 352.2,401.4 L 349.1,405.6 L 351.4,416.1 L 356.2,417.8 L 355.2,423.8 L 347.2,431.5 L 329.7,427.8 L 316.8,432.2 L 315.8,440.4 L 305.6,442.2 L 295.6,436.0 L 292.4,439.0 L 276.1,432.8 L 272.6,427.5 L 277.2,419.3 L 278.9,392.1 L 269.7,377.8 L 263.2,370.9 L 249.7,365.6 L 248.8,355.7 L 260.3,352.7 L 275.1,356.2 L 272.3,340.8 L 280.7,346.6 L 301.3,336.0 L 303.9,324.8 L 311.6,322.1 L 312.9,326.9 L 317.0,327.1 L 321.2,332.6 L 327.3,339.0 L 331.9,337.9 L 339.6,344.2 L 341.6,345.3 L 344.1,345.1 Z M 366.8,438.3 L 372.5,433.1 L 374.0,444.8 L 371.1,455.3 L 367.1,452.6 L 365.0,443.4 L 366.8,438.3 Z" fill="#E4E0D4" stroke="#B0A898" stroke-width="0.5" stroke-linejoin="round"/>
<path d="M 605.4,573.6 L 603.9,577.9 L 600.7,576.0 L 598.8,585.1 L 601.1,586.6 L 598.8,588.5 L 598.4,592.1 L 602.6,590.3 L 602.8,595.6 L 598.4,617.4 L 597.5,613.8 L 592.6,593.9 L 592.6,593.9 L 592.6,593.9 L 595.1,589.4 L 594.5,588.7 L 596.9,582.3 L 598.7,572.0 L 599.9,568.5 L 600.2,568.4 L 603.1,568.4 L 603.9,566.0 L 606.3,565.9 L 606.5,571.4 L 605.3,573.5 L 605.4,573.6 Z" fill="#E4E0D4" stroke="#B0A898" stroke-width="0.5" stroke-linejoin="round"/>
<path d="M 606.3,565.9 L 603.9,566.0 L 603.1,568.4 L 600.2,568.4 L 603.3,557.3 L 607.7,547.7 L 607.9,547.2 L 611.9,547.9 L 613.3,553.2 L 608.5,558.4 L 606.3,565.9 Z" fill="#E4E0D4" stroke="#B0A898" stroke-width="0.5" stroke-linejoin="round"/>
<path d="M 602.6,590.3 L 598.4,592.1 L 598.8,588.5 L 601.1,586.6 L 598.8,585.1 L 600.7,576.0 L 603.9,577.9 L 603.9,586.2 L 602.6,590.3 Z" fill="#E4E0D4" stroke="#B0A898" stroke-width="0.5" stroke-linejoin="round"/>
<path d="M 373.3,606.4 L 369.5,581.9 L 364.1,576.4 L 364.0,573.1 L 356.8,564.9 L 356.0,554.7 L 361.4,547.1 L 363.5,535.8 L 362.1,522.8 L 363.9,515.8 L 373.5,510.3 L 379.7,511.9 L 379.5,518.8 L 387.0,513.8 L 387.6,516.4 L 383.2,523.1 L 383.1,529.4 L 386.2,532.8 L 385.0,544.6 L 379.2,551.5 L 380.9,558.9 L 385.5,559.2 L 387.7,565.6 L 391.1,567.8 L 390.6,578.2 L 386.2,582.2 L 383.5,586.5 L 377.4,591.8 L 378.4,597.4 L 377.6,603.2 L 373.3,606.4 Z" fill="#E4E0D4" stroke="#B0A898" stroke-width="0.5" stroke-linejoin="round"/>
<path d="M 212.6,646.1 L 212.8,643.4 L 212.7,642.5 L 212.7,626.4 L 227.0,616.3 L 235.8,614.2 L 243.0,610.6 L 246.4,603.7 L 256.8,598.3 L 257.1,588.2 L 262.3,587.0 L 266.3,582.0 L 277.8,579.7 L 279.5,574.4 L 277.1,571.5 L 274.1,557.1 L 273.5,548.8 L 270.2,540.1 L 278.7,532.6 L 288.3,530.2 L 293.9,524.6 L 302.4,520.5 L 317.4,518.0 L 332.0,516.9 L 336.5,518.9 L 344.8,513.6 L 354.3,513.5 L 357.9,516.6 L 363.9,515.8 L 362.1,522.8 L 363.5,535.8 L 361.4,547.1 L 356.0,554.7 L 356.8,564.9 L 364.0,573.1 L 364.1,576.4 L 369.5,581.9 L 373.3,606.4 L 376.2,618.4 L 376.6,624.8 L 375.1,635.9 L 375.7,642.1 L 374.6,649.6 L 375.4,658.1 L 371.9,663.8 L 377.1,673.8 L 377.4,679.6 L 380.6,687.2 L 384.7,684.7 L 391.7,691.1 L 395.6,699.6 L 365.3,725.6 L 339.6,752.4 L 327.2,758.5 L 317.4,759.8 L 317.3,751.2 L 313.2,748.9 L 307.6,745.0 L 305.5,738.6 L 275.7,708.9 L 245.9,679.1 L 212.6,646.1 Z" fill="#E4E0D4" stroke="#B0A898" stroke-width="0.5" stroke-linejoin="round"/>
<path d="M 603.9,577.9 L 605.4,573.6 L 615.3,579.0 L 632.6,564.5 L 636.2,581.1 L 634.5,583.1 L 616.8,590.0 L 625.6,603.6 L 622.7,605.9 L 621.2,610.5 L 614.5,612.4 L 612.3,617.3 L 608.5,621.5 L 598.7,619.3 L 598.4,617.4 L 602.8,595.6 L 602.6,590.3 L 603.9,586.2 L 603.9,577.9 Z" fill="#E4E0D4" stroke="#B0A898" stroke-width="0.5" stroke-linejoin="round"/>
<path d="M 636.2,581.1 L 632.6,564.5 L 652.2,550.3 L 655.5,533.8 L 654.7,523.8 L 659.5,520.5 L 664.1,511.9 L 667.9,509.8 L 678.2,511.6 L 681.3,515.1 L 685.5,512.8 L 691.3,529.0 L 697.1,533.1 L 697.7,541.1 L 693.3,545.8 L 691.2,556.4 L 697.3,569.4 L 708.2,576.9 L 712.7,587.2 L 711.3,597.1 L 714.1,597.1 L 714.2,604.4 L 719.1,611.6 L 713.8,610.9 L 707.9,609.8 L 701.4,622.9 L 685.0,621.8 L 660.0,594.3 L 646.8,584.8 L 636.2,581.1 Z" fill="#E4E0D4" stroke="#B0A898" stroke-width="0.5" stroke-linejoin="round"/>
<path d="M 753.9,449.8 L 757.8,445.3 L 767.9,442.5 L 773.8,446.3 L 780.0,457.0 L 784.6,456.3 L 794.5,456.1 L 793.1,449.2 L 800.7,444.5 L 808.1,436.6 L 820.0,443.8 L 821.0,454.7 L 824.4,457.5 L 833.9,456.9 L 836.9,459.4 L 841.2,473.4 L 851.4,482.8 L 857.1,489.3 L 866.4,495.9 L 878.1,501.8 L 877.9,510.1 L 875.2,509.7 L 871.1,506.1 L 869.7,510.9 L 862.2,513.6 L 860.5,524.5 L 855.5,528.6 L 848.5,530.7 L 846.6,536.8 L 840.0,538.7 L 830.9,533.5 L 830.2,522.0 L 823.6,521.5 L 813.5,509.4 L 806.4,508.0 L 796.6,501.0 L 790.3,499.8 L 786.4,502.3 L 780.5,501.9 L 774.2,509.7 L 766.5,512.4 L 764.8,502.7 L 766.1,488.4 L 759.2,483.8 L 761.5,474.5 L 755.6,473.7 L 757.6,462.2 L 765.9,465.5 L 773.7,461.2 L 767.2,453.0 L 764.7,445.2 L 757.6,448.7 L 756.7,458.7 L 753.9,449.8 Z" fill="#E4E0D4" stroke="#B0A898" stroke-width="0.5" stroke-linejoin="round"/>
<path d="M 719.1,611.6 L 714.2,604.4 L 714.1,597.1 L 711.3,597.1 L 712.7,587.2 L 708.2,576.9 L 697.3,569.4 L 691.2,556.4 L 693.3,545.8 L 697.7,541.1 L 697.1,533.1 L 691.3,529.0 L 685.5,512.8 L 685.5,512.8 L 680.7,501.8 L 682.4,497.6 L 679.6,482.0 L 685.7,478.1 L 687.1,483.2 L 691.6,489.5 L 697.6,491.3 L 700.9,490.9 L 711.3,480.9 L 714.6,479.9 L 717.2,483.9 L 714.2,490.6 L 719.7,497.7 L 721.9,497.1 L 724.7,507.1 L 733.1,510.0 L 739.2,516.8 L 751.8,519.2 L 765.6,515.6 L 766.5,512.4 L 774.2,509.7 L 780.5,501.9 L 786.4,502.3 L 790.3,499.8 L 796.6,501.0 L 806.4,508.0 L 813.5,509.4 L 823.6,521.5 L 830.2,522.0 L 830.9,533.5 L 827.3,550.5 L 824.9,560.4 L 828.8,562.4 L 825.0,569.9 L 827.9,580.8 L 828.6,589.4 L 835.3,591.7 L 836.0,600.5 L 828.0,612.9 L 832.3,620.1 L 835.9,628.3 L 844.4,634.3 L 844.6,646.3 L 848.8,648.5 L 849.6,654.8 L 836.8,661.9 L 833.5,677.7 L 816.8,673.6 L 807.2,670.4 L 797.2,668.7 L 793.4,651.9 L 789.2,649.5 L 782.4,652.0 L 773.5,658.6 L 762.7,654.0 L 753.7,643.6 L 745.2,639.7 L 739.3,626.7 L 732.8,608.5 L 728.0,610.8 L 722.4,606.2 L 719.1,611.6 Z" fill="#E4E0D4" stroke="#B0A898" stroke-width="0.5" stroke-linejoin="round"/>
<path d="M 605.4,573.6 L 605.3,573.5 L 606.5,571.4 L 606.3,565.9 L 608.5,558.4 L 613.3,553.2 L 611.9,547.9 L 607.9,547.2 L 607.1,536.8 L 609.2,531.2 L 611.6,528.2 L 614.0,525.2 L 614.4,517.6 L 617.3,520.2 L 627.1,516.4 L 631.8,519.0 L 639.1,519.0 L 649.3,513.8 L 654.0,514.1 L 664.1,511.9 L 659.5,520.5 L 654.7,523.8 L 655.5,533.8 L 652.2,550.3 L 632.6,564.5 L 615.3,579.0 L 605.4,573.6 Z" fill="#E4E0D4" stroke="#B0A898" stroke-width="0.5" stroke-linejoin="round"/>
<path d="M 700.9,490.9 L 697.6,491.3 L 694.0,483.4 L 694.1,481.3 L 690.2,481.4 L 687.5,477.7 L 685.7,478.1 L 682.2,474.1 L 675.6,470.7 L 676.5,464.1 L 675.0,459.3 L 687.3,457.1 L 689.1,460.7 L 692.5,463.1 L 690.7,466.5 L 695.4,471.2 L 692.9,475.5 L 696.7,479.2 L 700.7,481.5 L 700.9,490.9 Z" fill="#E4E0D4" stroke="#B0A898" stroke-width="0.5" stroke-linejoin="round"/>
<path d="M 387.0,216.9 L 390.9,209.1 L 398.2,199.7 L 401.2,183.7 L 395.5,176.8 L 395.0,158.7 L 400.7,145.9 L 409.5,146.1 L 412.6,140.7 L 409.3,136.0 L 423.1,116.8 L 431.9,101.7 L 437.8,92.0 L 446.3,92.1 L 448.6,84.5 L 465.3,86.7 L 466.6,77.7 L 472.1,77.1 L 483.9,83.8 L 497.7,93.1 L 497.9,114.1 L 500.9,119.4 L 485.7,123.3 L 477.1,132.8 L 478.5,141.1 L 464.4,152.1 L 447.3,163.8 L 440.9,183.0 L 447.2,192.6 L 455.6,200.2 L 447.5,215.6 L 438.3,218.8 L 434.9,241.7 L 429.9,254.5 L 419.2,253.2 L 414.2,264.0 L 403.9,264.6 L 401.1,251.7 L 393.7,236.2 L 387.0,216.9 Z" fill="#E4E0D4" stroke="#B0A898" stroke-width="0.5" stroke-linejoin="round"/>
<path d="M 538.7,253.6 L 548.0,257.0 L 549.3,260.4 L 553.9,258.8 L 562.6,262.0 L 563.4,268.4 L 561.5,272.1 L 567.1,281.0 L 570.7,283.5 L 570.1,286.0 L 576.1,288.4 L 578.7,292.0 L 575.2,295.0 L 568.1,294.5 L 566.4,295.8 L 568.4,300.3 L 570.6,309.1 L 570.6,309.1 L 563.0,309.9 L 560.3,312.9 L 559.7,319.7 L 556.2,318.4 L 548.2,319.1 L 545.9,315.9 L 542.6,318.3 L 539.3,316.3 L 532.3,316.0 L 522.4,312.7 L 513.5,311.7 L 506.6,312.0 L 501.8,315.7 L 497.6,316.2 L 497.4,310.1 L 494.7,303.8 L 500.0,301.0 L 500.0,295.6 L 497.6,290.4 L 497.2,284.4 L 505.7,284.5 L 515.3,279.3 L 517.4,271.6 L 524.6,267.3 L 523.8,261.1 L 529.2,258.9 L 538.7,253.6 Z" fill="#E4E0D4" stroke="#B0A898" stroke-width="0.5" stroke-linejoin="round"/>
<path d="M 570.6,309.1 L 573.9,309.6 L 576.2,306.5 L 578.9,307.2 L 588.0,305.9 L 593.7,313.6 L 591.5,316.4 L 592.2,320.6 L 599.3,321.3 L 602.4,327.2 L 602.2,329.9 L 613.4,334.7 L 620.2,332.5 L 625.7,338.9 L 630.9,338.7 L 643.9,343.2 L 644.0,347.2 L 640.4,354.3 L 642.4,361.9 L 641.0,366.4 L 632.4,367.4 L 627.9,371.2 L 627.6,377.3 L 620.5,378.4 L 614.6,382.8 L 606.3,383.5 L 598.7,388.6 L 599.2,395.9 L 597.8,395.5 L 596.7,392.8 L 593.8,392.2 L 587.6,389.3 L 585.2,392.7 L 584.0,391.2 L 570.3,387.8 L 569.6,382.7 L 561.4,384.4 L 558.2,391.9 L 551.3,401.9 L 547.3,399.6 L 543.1,401.8 L 539.2,399.3 L 541.4,397.8 L 543.0,393.1 L 545.4,388.8 L 544.8,386.3 L 546.6,385.2 L 547.5,387.1 L 552.7,387.5 L 555.0,386.5 L 553.4,385.1 L 554.0,383.1 L 550.9,379.6 L 549.6,373.9 L 546.4,371.7 L 547.1,367.1 L 543.1,363.4 L 539.4,362.9 L 532.9,358.7 L 527.0,360.0 L 524.9,362.0 L 521.2,362.0 L 519.0,365.2 L 512.4,366.5 L 509.4,368.6 L 505.3,365.3 L 499.6,365.2 L 494.2,363.7 L 490.3,366.6 L 489.7,363.0 L 484.8,359.3 L 486.5,353.8 L 489.0,350.2 L 490.9,351.0 L 488.6,344.9 L 496.7,333.5 L 501.1,331.9 L 502.0,328.1 L 497.6,316.2 L 501.8,315.7 L 506.6,312.0 L 513.5,311.7 L 522.4,312.7 L 532.3,316.0 L 539.3,316.3 L 542.6,318.3 L 545.9,315.9 L 548.2,319.1 L 556.2,318.4 L 559.7,319.7 L 560.3,312.9 L 563.0,309.9 L 570.6,309.1 Z" fill="#E4E0D4" stroke="#B0A898" stroke-width="0.5" stroke-linejoin="round"/>
<path d="M 497.2,284.4 L 497.6,290.4 L 500.0,295.6 L 500.0,301.0 L 494.7,303.8 L 497.4,310.1 L 497.6,316.2 L 502.0,328.1 L 501.1,331.9 L 496.7,333.5 L 488.6,344.9 L 490.9,351.0 L 489.0,350.2 L 480.6,345.0 L 474.2,346.9 L 470.0,345.5 L 464.8,348.4 L 460.3,343.6 L 456.7,345.4 L 456.2,344.6 L 452.1,337.9 L 445.6,337.1 L 444.7,332.8 L 438.7,331.3 L 437.3,334.8 L 432.5,332.0 L 433.1,328.2 L 426.5,327.0 L 422.3,322.6 L 418.6,313.9 L 419.3,309.2 L 417.1,301.9 L 413.9,297.1 L 416.4,293.4 L 414.3,286.5 L 420.4,282.5 L 434.2,276.2 L 445.3,271.6 L 454.2,273.9 L 454.8,277.2 L 463.4,277.4 L 474.2,278.9 L 490.5,278.7 L 495.1,280.2 L 497.2,284.4 Z" fill="#E4E0D4" stroke="#B0A898" stroke-width="0.5" stroke-linejoin="round"/>
<path d="M 439.6,363.3 L 439.0,368.9 L 434.0,368.9 L 435.7,371.9 L 432.8,380.7 L 431.1,383.0 L 423.3,383.3 L 418.9,386.4 L 411.6,385.4 L 398.9,381.8 L 396.9,377.1 L 388.2,379.5 L 387.2,382.1 L 381.8,380.1 L 377.3,379.7 L 373.3,377.3 L 374.6,373.9 L 374.3,371.5 L 377.0,370.8 L 381.4,374.5 L 382.7,370.9 L 390.5,371.5 L 396.8,369.1 L 401.1,369.5 L 403.8,372.3 L 404.7,370.0 L 403.4,361.1 L 406.6,359.3 L 409.7,353.1 L 416.3,357.5 L 421.2,351.9 L 424.4,350.9 L 431.2,355.0 L 435.4,354.3 L 439.5,356.9 L 438.7,358.6 L 439.6,363.3 Z" fill="#E4E0D4" stroke="#B0A898" stroke-width="0.5" stroke-linejoin="round"/>
<path d="M 484.8,359.3 L 489.7,363.0 L 490.3,366.6 L 484.9,369.5 L 480.7,378.7 L 475.4,388.0 L 468.3,390.6 L 462.8,390.0 L 456.0,393.6 L 456.0,393.6 L 452.7,395.6 L 445.4,393.0 L 438.8,387.1 L 436.0,385.4 L 434.2,380.8 L 432.8,380.7 L 435.7,371.9 L 434.0,368.9 L 439.0,368.9 L 439.6,363.3 L 444.1,366.8 L 447.4,368.3 L 454.8,366.6 L 455.5,363.9 L 459.0,363.5 L 463.4,361.4 L 464.3,362.3 L 468.5,360.6 L 470.5,357.3 L 473.4,356.5 L 482.9,360.7 L 484.8,359.3 Z" fill="#E4E0D4" stroke="#B0A898" stroke-width="0.5" stroke-linejoin="round"/>
<path d="M 524.9,362.0 L 527.0,360.0 L 532.9,358.7 L 539.4,362.9 L 543.1,363.4 L 547.1,367.1 L 546.4,371.7 L 549.6,373.9 L 550.9,379.6 L 554.0,383.1 L 553.4,385.1 L 555.0,386.5 L 552.7,387.5 L 547.5,387.1 L 546.6,385.2 L 544.8,386.3 L 545.4,388.8 L 543.0,393.1 L 541.4,397.8 L 539.2,399.3 L 537.6,393.1 L 538.5,387.2 L 538.3,381.3 L 533.2,373.1 L 530.4,367.4 L 527.6,363.3 L 524.9,362.0 Z" fill="#E4E0D4" stroke="#B0A898" stroke-width="0.5" stroke-linejoin="round"/>
<path d="M 539.2,399.3 L 543.1,401.8 L 547.3,399.6 L 551.3,401.9 L 551.5,405.5 L 547.2,408.4 L 544.5,407.1 L 542.1,423.6 L 536.9,422.1 L 530.4,417.2 L 520.0,420.4 L 515.6,423.8 L 502.6,423.1 L 495.8,421.0 L 492.4,422.0 L 489.9,416.4 L 488.2,414.0 L 490.3,411.7 L 488.1,410.0 L 485.3,413.1 L 480.2,409.1 L 479.5,403.5 L 474.1,400.3 L 473.1,395.9 L 468.3,390.6 L 475.4,388.0 L 480.7,378.7 L 484.9,369.5 L 490.3,366.6 L 494.2,363.7 L 499.6,365.2 L 505.3,365.3 L 509.4,368.6 L 512.4,366.5 L 519.0,365.2 L 521.2,362.0 L 524.9,362.0 L 527.6,363.3 L 530.4,367.4 L 533.2,373.1 L 538.3,381.3 L 538.5,387.2 L 537.6,393.1 L 539.2,399.3 Z" fill="#E4E0D4" stroke="#B0A898" stroke-width="0.5" stroke-linejoin="round"/>
<path d="M 523.8,261.1 L 524.6,267.3 L 517.4,271.6 L 515.3,279.3 L 505.7,284.5 L 497.2,284.4 L 495.1,280.2 L 490.5,278.7 L 489.8,275.2 L 490.8,271.5 L 486.8,269.3 L 477.6,266.9 L 475.7,255.5 L 485.8,251.3 L 500.7,252.2 L 509.4,250.8 L 510.6,253.7 L 515.3,254.5 L 523.8,261.1 Z" fill="#E4E0D4" stroke="#B0A898" stroke-width="0.5" stroke-linejoin="round"/>
<path d="M 530.8,235.8 L 535.1,238.9 L 535.8,245.5 L 538.7,253.6 L 529.2,258.9 L 523.8,261.1 L 515.3,254.5 L 510.6,253.7 L 509.4,250.8 L 500.7,252.2 L 485.8,251.3 L 475.7,255.5 L 476.0,245.2 L 480.3,236.6 L 488.7,232.0 L 495.7,242.2 L 502.8,241.9 L 504.5,231.4 L 512.0,229.0 L 515.9,230.7 L 523.5,235.8 L 530.8,235.8 Z" fill="#E4E0D4" stroke="#B0A898" stroke-width="0.5" stroke-linejoin="round"/>
<path d="M 537.0,208.5 L 537.0,208.5 L 538.3,210.9 L 532.0,218.7 L 534.6,231.5 L 530.8,235.8 L 523.5,235.8 L 515.9,230.7 L 512.0,229.0 L 504.5,231.4 L 505.5,223.4 L 502.3,225.1 L 496.7,220.3 L 495.9,212.4 L 507.1,208.6 L 518.2,206.6 L 527.8,208.9 L 537.0,208.5 L 537.0,208.5 Z" fill="#E4E0D4" stroke="#B0A898" stroke-width="0.5" stroke-linejoin="round"/>
<path d="M 414.3,286.5 L 416.4,293.4 L 413.9,297.1 L 417.1,301.9 L 419.3,309.2 L 418.6,313.9 L 422.3,322.6 L 418.3,324.1 L 416.0,322.5 L 413.8,325.1 L 407.4,327.7 L 404.1,331.1 L 397.7,334.1 L 399.2,338.2 L 400.2,343.9 L 404.7,347.2 L 409.7,353.1 L 406.6,359.3 L 403.4,361.1 L 404.7,370.0 L 403.8,372.3 L 401.1,369.5 L 396.8,369.1 L 390.5,371.5 L 382.7,370.9 L 381.4,374.5 L 377.0,370.8 L 374.3,371.5 L 364.8,367.3 L 363.0,370.3 L 355.5,370.2 L 356.6,360.5 L 361.1,351.1 L 348.3,348.6 L 344.1,345.1 L 344.6,339.1 L 342.9,336.0 L 343.9,326.8 L 342.4,312.5 L 347.7,312.5 L 350.0,307.3 L 352.2,294.9 L 350.5,290.2 L 352.2,287.4 L 359.6,286.6 L 361.3,289.6 L 367.3,282.9 L 365.2,277.8 L 364.8,270.0 L 371.5,271.8 L 377.2,269.8 L 377.3,275.0 L 386.3,278.2 L 386.2,283.1 L 395.2,280.5 L 400.2,276.8 L 410.2,282.1 L 414.3,286.5 Z" fill="#E4E0D4" stroke="#B0A898" stroke-width="0.5" stroke-linejoin="round"/>
<path d="M 489.9,416.4 L 492.4,422.0 L 495.8,421.0 L 502.6,423.1 L 515.6,423.8 L 520.0,420.4 L 530.4,417.2 L 536.9,422.1 L 542.1,423.6 L 537.5,429.2 L 534.2,439.0 L 537.1,446.8 L 529.5,444.9 L 520.5,449.2 L 520.4,456.0 L 512.3,457.3 L 506.1,452.5 L 499.0,456.3 L 492.5,455.9 L 491.8,446.9 L 487.4,442.5 L 488.9,440.6 L 487.9,439.0 L 489.4,434.6 L 492.8,430.4 L 488.5,424.5 L 487.7,419.5 L 489.9,416.4 Z" fill="#E4E0D4" stroke="#B0A898" stroke-width="0.5" stroke-linejoin="round"/>
<path d="M 522.0,538.3 L 520.9,542.3 L 508.2,543.5 L 508.2,541.2 L 497.5,538.5 L 499.1,532.7 L 503.9,537.3 L 510.8,536.6 L 517.4,537.5 L 517.2,539.9 L 522.0,538.3 Z M 492.5,455.9 L 499.0,456.3 L 506.1,452.5 L 512.3,457.3 L 520.4,456.0 L 520.5,449.2 L 524.8,452.8 L 522.0,461.4 L 519.9,462.9 L 514.5,462.5 L 509.9,461.2 L 499.2,464.8 L 505.4,472.4 L 500.9,474.7 L 495.9,474.7 L 491.2,467.7 L 489.6,470.7 L 491.6,478.8 L 496.0,485.2 L 492.7,488.2 L 497.6,494.5 L 502.0,498.4 L 502.1,506.1 L 493.9,502.5 L 496.5,509.5 L 490.9,510.9 L 494.3,523.0 L 488.4,523.1 L 481.1,517.2 L 477.8,506.3 L 476.3,497.2 L 472.8,490.9 L 468.3,483.2 L 467.7,479.3 L 471.8,472.7 L 472.3,468.2 L 475.2,466.2 L 475.4,462.7 L 481.2,461.5 L 484.5,458.5 L 489.3,458.7 L 490.8,456.4 L 492.5,455.9 Z" fill="#E4E0D4" stroke="#B0A898" stroke-width="0.5" stroke-linejoin="round"/>
<path d="M 685.5,512.8 L 681.3,515.1 L 678.2,511.6 L 667.9,509.8 L 664.1,511.9 L 654.0,514.1 L 649.3,513.8 L 639.1,519.0 L 631.8,519.0 L 627.1,516.4 L 617.3,520.2 L 614.4,517.6 L 614.0,525.2 L 611.6,528.2 L 609.2,531.2 L 606.0,525.0 L 609.3,519.8 L 603.9,521.0 L 596.5,517.9 L 590.4,525.7 L 577.0,527.3 L 569.9,519.9 L 560.3,519.5 L 558.3,525.1 L 552.2,526.7 L 543.6,519.5 L 534.0,519.7 L 528.7,506.2 L 522.3,498.6 L 526.6,488.0 L 520.9,481.5 L 530.8,468.4 L 544.4,467.9 L 548.1,457.5 L 565.0,459.3 L 575.6,450.5 L 585.9,446.6 L 600.5,446.3 L 616.0,455.9 L 628.7,461.2 L 639.0,459.1 L 646.6,460.3 L 657.0,453.2 L 666.5,452.6 L 675.0,459.3 L 676.5,464.1 L 675.6,470.7 L 682.2,474.1 L 685.7,478.1 L 679.6,482.0 L 682.4,497.6 L 680.7,501.8 L 685.5,512.8 L 685.5,512.8 Z M 520.5,449.2 L 529.5,444.9 L 537.1,446.8 L 538.2,452.0 L 545.9,456.4 L 544.3,459.8 L 533.8,460.5 L 530.0,464.7 L 522.6,472.1 L 519.8,465.7 L 519.9,462.9 L 522.0,461.4 L 524.8,452.8 L 520.5,449.2 Z" fill="#E4E0D4" stroke="#B0A898" stroke-width="0.5" stroke-linejoin="round"/>
<path d="M 475.4,462.7 L 475.2,466.2 L 472.3,468.2 L 471.8,472.7 L 467.7,479.3 L 466.2,478.3 L 466.0,475.3 L 461.1,470.7 L 460.3,464.2 L 461.1,454.9 L 462.3,450.7 L 460.8,448.5 L 460.8,448.5 L 460.2,444.2 L 464.0,437.5 L 464.6,440.1 L 467.0,438.8 L 468.9,442.5 L 471.0,443.9 L 471.6,448.8 L 471.6,448.8 L 470.5,453.5 L 471.7,459.3 L 475.4,462.7 Z" fill="#E4E0D4" stroke="#B0A898" stroke-width="0.5" stroke-linejoin="round"/>
<path d="M 436.0,385.4 L 438.8,387.1 L 445.4,393.0 L 452.7,395.6 L 456.0,393.6 L 458.1,398.8 L 461.0,402.7 L 457.6,407.9 L 453.6,404.8 L 447.4,405.0 L 439.8,402.8 L 435.7,403.1 L 433.8,405.9 L 430.6,402.8 L 428.8,408.4 L 433.1,414.8 L 435.0,419.0 L 439.1,424.1 L 442.4,427.1 L 445.8,432.8 L 453.6,438.0 L 452.6,440.3 L 452.6,440.3 L 444.3,435.3 L 439.2,430.4 L 431.1,426.3 L 423.7,416.3 L 425.4,415.3 L 421.4,409.5 L 421.2,404.9 L 415.6,402.8 L 412.8,408.6 L 410.2,404.1 L 410.4,399.3 L 410.7,399.1 L 416.9,399.6 L 418.5,397.3 L 421.5,399.5 L 425.0,399.8 L 425.0,396.0 L 428.1,394.6 L 428.9,389.1 L 436.0,385.4 Z" fill="#E4E0D4" stroke="#B0A898" stroke-width="0.5" stroke-linejoin="round"/>
<path d="M 374.3,371.5 L 374.6,373.9 L 373.3,377.3 L 377.3,379.7 L 381.8,380.1 L 381.1,385.7 L 377.2,388.0 L 370.7,386.3 L 368.7,391.8 L 364.5,392.2 L 363.0,390.1 L 358.0,394.7 L 353.8,395.4 L 350.0,392.4 L 346.9,386.4 L 342.7,388.6 L 342.8,382.4 L 349.3,374.7 L 349.0,371.3 L 353.0,372.5 L 355.5,370.2 L 363.0,370.3 L 364.8,367.3 L 374.3,371.5 Z" fill="#E4E0D4" stroke="#B0A898" stroke-width="0.5" stroke-linejoin="round"/>
<path d="M 342.9,336.0 L 344.6,339.1 L 344.1,345.1 L 341.6,345.3 L 339.6,344.2 L 340.6,336.5 L 342.9,336.0 Z" fill="#E4E0D4" stroke="#B0A898" stroke-width="0.5" stroke-linejoin="round"/>
<path d="M 343.9,326.8 L 342.9,336.0 L 340.6,336.5 L 339.6,344.2 L 331.9,337.9 L 327.3,339.0 L 321.2,332.6 L 317.0,327.1 L 312.9,326.9 L 311.6,322.1 L 318.7,319.4 L 318.7,319.4 L 318.7,319.4 L 325.2,320.5 L 333.4,317.6 L 339.0,323.6 L 343.9,326.8 Z" fill="#E4E0D4" stroke="#B0A898" stroke-width="0.5" stroke-linejoin="round"/>
<path d="M 350.5,290.2 L 352.2,294.9 L 350.0,307.3 L 347.7,312.5 L 342.4,312.5 L 343.9,326.8 L 339.0,323.6 L 333.4,317.6 L 325.2,320.5 L 318.7,319.4 L 318.7,319.4 L 323.3,315.6 L 331.0,295.6 L 343.2,289.9 L 350.5,290.2 Z" fill="#E4E0D4" stroke="#B0A898" stroke-width="0.5" stroke-linejoin="round"/>
<path d="M 209.5,448.5 L 212.7,445.0 L 216.3,443.0 L 218.5,449.7 L 223.7,449.7 L 225.3,448.0 L 230.4,448.5 L 232.9,455.3 L 228.8,459.0 L 228.7,469.6 L 227.2,471.6 L 226.9,478.1 L 223.1,479.2 L 226.6,487.4 L 224.2,496.3 L 227.2,500.4 L 226.0,504.1 L 222.7,509.2 L 223.5,513.7 L 219.9,517.3 L 215.2,515.4 L 210.7,516.9 L 212.0,506.2 L 211.2,497.8 L 207.2,496.5 L 205.1,491.4 L 205.8,482.4 L 209.4,477.5 L 210.0,472.0 L 211.8,463.8 L 211.6,458.0 L 209.9,453.1 L 209.5,448.5 Z" fill="#E4E0D4" stroke="#B0A898" stroke-width="0.5" stroke-linejoin="round"/>
<path d="M 223.5,513.7 L 222.7,509.2 L 226.0,504.1 L 227.2,500.4 L 224.2,496.3 L 226.6,487.4 L 223.1,479.2 L 226.9,478.1 L 227.2,471.6 L 228.7,469.6 L 228.8,459.0 L 232.9,455.3 L 230.4,448.5 L 225.3,448.0 L 223.7,449.7 L 218.5,449.7 L 216.3,443.0 L 212.7,445.0 L 209.5,448.5 L 209.9,438.8 L 206.3,432.9 L 218.8,423.0 L 229.7,425.5 L 241.5,425.4 L 250.9,427.7 L 258.3,427.0 L 272.6,427.5 L 276.1,432.8 L 292.4,439.0 L 295.6,436.0 L 305.6,442.2 L 315.8,440.4 L 316.3,448.3 L 307.9,457.4 L 296.6,460.3 L 295.8,464.9 L 290.4,472.5 L 286.9,483.6 L 290.4,491.4 L 285.3,497.4 L 283.4,506.3 L 276.7,509.0 L 270.4,519.5 L 259.2,519.7 L 250.8,519.5 L 245.2,524.3 L 241.8,529.4 L 237.5,528.3 L 234.2,523.7 L 231.7,515.9 L 223.5,513.7 Z" fill="#E4E0D4" stroke="#B0A898" stroke-width="0.5" stroke-linejoin="round"/>
<path d="M 234.6,285.0 L 236.0,294.7 L 229.4,306.9 L 213.7,315.0 L 201.1,312.9 L 208.3,298.7 L 203.7,284.8 L 215.7,274.1 L 222.4,267.7 L 224.2,275.1 L 222.4,282.4 L 227.9,282.2 L 234.6,285.0 Z" fill="#E4E0D4" stroke="#B0A898" stroke-width="0.5" stroke-linejoin="round"/>
<path d="M 381.8,380.1 L 387.2,382.1 L 388.2,379.5 L 396.9,377.1 L 398.9,381.8 L 411.6,385.4 L 410.6,392.1 L 412.7,397.9 L 405.7,395.9 L 398.5,400.7 L 399.0,407.5 L 397.9,411.4 L 400.8,418.3 L 409.1,425.2 L 413.5,436.5 L 423.4,447.5 L 430.3,447.4 L 432.5,450.4 L 430.0,453.1 L 437.9,458.1 L 444.4,462.2 L 452.0,469.3 L 452.9,471.9 L 451.3,476.7 L 446.3,470.4 L 438.7,468.1 L 434.9,476.9 L 441.3,482.0 L 440.3,489.1 L 436.6,489.9 L 431.9,501.6 L 428.2,502.7 L 428.2,498.5 L 430.0,491.2 L 431.9,488.3 L 428.5,480.4 L 425.8,473.5 L 422.1,471.8 L 419.5,465.9 L 413.8,463.4 L 410.0,457.9 L 403.4,457.1 L 396.5,450.9 L 388.4,442.0 L 382.4,434.2 L 379.7,420.7 L 375.3,419.1 L 368.1,414.6 L 364.0,416.4 L 358.9,422.8 L 355.2,423.8 L 356.2,417.8 L 351.4,416.1 L 349.1,405.6 L 352.2,401.4 L 349.6,396.3 L 350.0,392.4 L 353.8,395.4 L 358.0,394.7 L 363.0,390.1 L 364.5,392.2 L 368.7,391.8 L 370.7,386.3 L 377.2,388.0 L 381.1,385.7 L 381.8,380.1 Z M 420.0,499.5 L 426.7,498.3 L 423.5,509.0 L 424.9,513.2 L 423.0,520.3 L 416.2,515.1 L 411.7,513.7 L 399.4,506.7 L 400.6,499.7 L 411.0,501.0 L 420.0,499.5 Z M 366.5,461.9 L 370.9,457.6 L 376.2,467.3 L 375.0,485.4 L 370.9,484.5 L 367.3,489.1 L 364.0,485.5 L 363.6,469.0 L 361.6,461.2 L 366.5,461.9 Z" fill="#E4E0D4" stroke="#B0A898" stroke-width="0.5" stroke-linejoin="round"/>
<path d="M 377.2,269.8 L 371.5,271.8 L 364.8,270.0 L 361.3,262.5 L 361.0,248.5 L 362.5,244.8 L 365.0,240.8 L 372.8,239.9 L 375.9,236.1 L 383.0,232.3 L 382.7,239.3 L 380.1,243.8 L 381.2,247.6 L 386.0,249.6 L 383.8,254.8 L 381.2,253.3 L 374.8,263.1 L 377.2,269.8 Z M 398.9,254.4 L 401.7,261.2 L 396.4,272.3 L 387.1,264.6 L 385.9,258.9 L 398.9,254.4 Z" fill="#E4E0D4" stroke="#B0A898" stroke-width="0.5" stroke-linejoin="round"/>
<path d="M 234.6,285.0 L 227.9,282.2 L 222.4,282.4 L 224.2,275.1 L 222.4,267.7 L 229.8,267.2 L 239.3,275.6 L 234.6,285.0 Z M 262.0,291.3 L 262.1,291.3 L 263.4,283.4 L 257.4,275.0 L 257.3,274.8 L 246.6,272.4 L 244.4,268.7 L 247.7,262.6 L 244.8,258.8 L 240.0,265.3 L 239.5,252.1 L 235.0,245.2 L 238.2,231.1 L 245.1,220.0 L 252.2,221.1 L 262.8,220.0 L 253.4,234.7 L 262.4,232.8 L 272.1,232.9 L 269.8,244.0 L 261.8,256.3 L 271.0,257.1 L 271.7,258.6 L 279.5,274.7 L 285.6,276.8 L 291.0,292.4 L 293.6,297.8 L 304.3,300.4 L 303.2,309.1 L 298.7,313.1 L 302.2,320.2 L 294.3,327.3 L 282.4,327.2 L 267.4,330.9 L 263.3,328.2 L 257.4,334.6 L 249.2,333.1 L 243.0,338.3 L 238.3,335.6 L 251.3,321.2 L 259.2,318.3 L 259.1,318.3 L 245.3,316.0 L 242.8,310.6 L 252.1,306.4 L 247.2,299.0 L 248.9,290.1 L 262.0,291.3 Z" fill="#E4E0D4" stroke="#B0A898" stroke-width="0.5" stroke-linejoin="round"/>
<path d="M 161.1,113.3 L 159.0,122.1 L 169.0,131.4 L 157.5,141.8 L 132.0,151.2 L 124.4,153.6 L 112.7,151.6 L 88.0,147.3 L 96.7,141.3 L 77.5,134.6 L 93.1,132.0 L 92.8,128.0 L 74.2,124.8 L 80.2,115.9 L 93.6,113.9 L 107.4,123.1 L 120.8,115.7 L 131.9,119.6 L 146.4,112.3 L 161.1,113.3 Z" fill="#E4E0D4" stroke="#B0A898" stroke-width="0.5" stroke-linejoin="round"/>
<path d="M 700.0,448.8 L 702.4,449.2 L 708.5,457.5 L 712.4,458.4 L 714.0,455.0 L 719.2,449.5 L 723.9,456.7 L 728.4,466.3 L 732.5,467.0 L 735.2,470.7 L 728.0,471.8 L 726.4,482.3 L 724.9,487.1 L 721.6,490.3 L 721.9,497.1 L 719.7,497.7 L 714.2,490.6 L 717.2,483.9 L 714.6,479.9 L 711.3,480.9 L 700.9,490.9 L 700.7,481.5 L 696.7,479.2 L 692.9,475.5 L 695.4,471.2 L 690.7,466.5 L 692.5,463.1 L 689.1,460.7 L 687.3,457.1 L 689.5,454.9 L 696.0,458.8 L 700.8,459.6 L 702.0,458.0 L 697.7,450.7 L 700.0,448.8 Z M 697.6,491.3 L 691.6,489.5 L 687.1,483.2 L 685.7,478.1 L 687.5,477.7 L 690.2,481.4 L 694.1,481.3 L 694.0,483.4 L 697.6,491.3 Z" fill="#E4E0D4" stroke="#B0A898" stroke-width="0.5" stroke-linejoin="round"/>
<path d="M 642.9,427.3 L 644.0,425.7 L 651.5,428.0 L 664.5,430.2 L 676.5,436.8 L 678.1,439.3 L 683.4,437.2 L 691.7,440.0 L 694.4,445.6 L 700.0,448.8 L 697.7,450.7 L 702.0,458.0 L 700.8,459.6 L 696.0,458.8 L 689.5,454.9 L 687.3,457.1 L 675.0,459.3 L 666.5,452.6 L 657.0,453.2 L 658.4,447.4 L 656.2,438.1 L 651.0,433.0 L 646.1,431.5 L 642.9,427.3 Z" fill="#E4E0D4" stroke="#B0A898" stroke-width="0.5" stroke-linejoin="round"/>
<path d="M 411.6,385.4 L 418.9,386.4 L 423.3,383.3 L 431.1,383.0 L 432.8,380.7 L 434.2,380.8 L 436.0,385.4 L 428.9,389.1 L 428.1,394.6 L 425.0,396.0 L 425.0,399.8 L 421.5,399.5 L 418.5,397.3 L 416.9,399.6 L 410.7,399.1 L 412.7,397.9 L 410.6,392.1 L 411.6,385.4 Z" fill="#E4E0D4" stroke="#B0A898" stroke-width="0.5" stroke-linejoin="round"/>
<path d="M 542.4,77.7 L 541.1,87.2 L 554.6,96.3 L 546.5,106.6 L 556.7,122.1 L 550.8,133.8 L 558.8,144.0 L 555.1,152.9 L 568.2,162.2 L 564.9,169.2 L 556.7,177.1 L 537.7,194.5 L 537.7,194.5 L 537.7,194.5 L 521.7,195.6 L 506.1,200.6 L 491.7,203.4 L 486.6,196.0 L 478.1,191.5 L 480.0,178.1 L 475.7,165.8 L 479.9,157.8 L 488.0,149.3 L 508.2,134.5 L 514.1,131.6 L 513.2,125.8 L 500.9,119.4 L 497.9,114.1 L 497.7,93.1 L 483.9,83.8 L 472.1,77.1 L 477.4,73.5 L 487.2,80.7 L 498.8,80.0 L 508.2,83.3 L 516.7,77.3 L 521.0,67.3 L 534.8,62.7 L 546.1,68.1 L 542.4,77.7 Z" fill="#E4E0D4" stroke="#B0A898" stroke-width="0.5" stroke-linejoin="round"/>
<path d="M 489.0,350.2 L 486.5,353.8 L 484.8,359.3 L 482.9,360.7 L 473.4,356.5 L 470.5,357.3 L 468.5,360.6 L 464.3,362.3 L 463.4,361.4 L 459.0,363.5 L 455.5,363.9 L 454.8,366.6 L 447.4,368.3 L 444.1,366.8 L 439.6,363.3 L 438.7,358.6 L 439.5,356.9 L 440.7,353.9 L 444.6,354.1 L 447.7,352.7 L 447.9,351.4 L 449.6,350.8 L 450.2,347.7 L 452.2,347.1 L 453.6,344.6 L 456.2,344.6 L 456.7,345.4 L 460.3,343.6 L 464.8,348.4 L 470.0,345.5 L 474.2,346.9 L 480.6,345.0 L 489.0,350.2 Z" fill="#E4E0D4" stroke="#B0A898" stroke-width="0.5" stroke-linejoin="round"/>
<path d="M 422.3,322.6 L 426.5,327.0 L 433.1,328.2 L 432.5,332.0 L 437.3,334.8 L 438.7,331.3 L 444.7,332.8 L 445.6,337.1 L 452.1,337.9 L 456.2,344.6 L 453.6,344.6 L 452.2,347.1 L 450.2,347.7 L 449.6,350.8 L 447.9,351.4 L 447.7,352.7 L 444.6,354.1 L 440.7,353.9 L 439.5,356.9 L 435.4,354.3 L 431.2,355.0 L 424.4,350.9 L 421.2,351.9 L 416.3,357.5 L 409.7,353.1 L 404.7,347.2 L 400.2,343.9 L 399.2,338.2 L 397.7,334.1 L 404.1,331.1 L 407.4,327.7 L 413.8,325.1 L 416.0,322.5 L 418.3,324.1 L 422.3,322.6 Z" fill="#E4E0D4" stroke="#B0A898" stroke-width="0.5" stroke-linejoin="round"/>
<path d="M 598.7,619.3 L 608.5,621.5 L 612.3,617.3 L 614.5,612.4 L 621.2,610.5 L 622.7,605.9 L 625.6,603.6 L 616.8,590.0 L 634.5,583.1 L 636.2,581.1 L 646.8,584.8 L 660.0,594.3 L 685.0,621.8 L 701.4,622.9 L 709.3,624.2 L 711.5,630.7 L 717.8,630.3 L 721.2,642.1 L 725.6,645.2 L 727.1,650.0 L 733.1,655.7 L 733.6,661.3 L 732.8,665.9 L 733.9,670.5 L 736.4,674.3 L 737.6,678.8 L 738.9,682.1 L 741.6,684.8 L 744.1,683.9 L 745.7,689.1 L 746.1,692.2 L 749.5,706.0 L 776.1,712.9 L 777.8,710.0 L 781.9,719.7 L 776.0,747.0 L 749.5,760.6 L 723.9,765.8 L 715.7,772.0 L 709.4,786.3 L 705.2,788.6 L 703.0,784.0 L 699.6,784.7 L 691.1,783.4 L 689.4,782.0 L 679.2,782.3 L 676.8,783.5 L 673.2,780.0 L 670.9,786.7 L 671.8,792.4 L 667.9,796.8 L 666.7,791.0 L 664.1,786.9 L 663.4,781.4 L 658.8,776.5 L 654.1,765.1 L 651.6,754.0 L 645.5,744.6 L 641.5,742.4 L 635.7,729.4 L 634.7,719.9 L 635.0,711.8 L 630.0,696.7 L 625.8,691.3 L 621.0,688.5 L 618.1,680.7 L 618.6,677.6 L 616.1,670.5 L 613.6,667.5 L 610.1,657.4 L 604.7,646.4 L 600.2,637.0 L 595.8,637.0 L 597.2,629.6 L 597.6,624.8 L 598.7,619.3 Z" fill="#E4E0D4" stroke="#B0A898" stroke-width="0.5" stroke-linejoin="round"/>
<path d="M 579.0,540.4 L 579.6,540.4 L 580.9,537.1 L 587.3,537.3 L 595.3,533.2 L 589.3,539.0 L 590.0,541.6 L 589.0,541.1 L 587.3,542.1 L 586.0,541.8 L 585.6,542.4 L 585.4,541.0 L 584.8,540.1 L 583.1,540.0 L 580.7,541.2 L 579.0,540.4 Z" fill="#E4E0D4" stroke="#B0A898" stroke-width="0.5" stroke-linejoin="round"/>
<path d="M 579.0,540.4 L 580.7,541.2 L 583.1,540.0 L 584.8,540.1 L 585.4,541.0 L 585.6,542.4 L 586.0,541.8 L 587.3,542.1 L 589.0,541.1 L 590.0,541.6 L 590.3,542.7 L 581.2,548.2 L 576.9,546.4 L 574.8,541.0 L 579.0,540.4 Z" fill="#E4E0D4" stroke="#B0A898" stroke-width="0.5" stroke-linejoin="round"/>
<path d="M 270.2,540.1 L 273.5,548.8 L 274.1,557.1 L 277.1,571.5 L 279.5,574.4 L 277.8,579.7 L 266.3,582.0 L 262.3,587.0 L 257.1,588.2 L 256.8,598.3 L 246.4,603.7 L 243.0,610.6 L 235.8,614.2 L 227.0,616.3 L 212.7,626.4 L 212.7,642.5 L 211.4,642.5 L 211.6,649.8 L 206.1,650.3 L 203.3,653.4 L 199.3,653.4 L 196.1,651.6 L 188.6,653.1 L 185.7,663.7 L 183.0,664.7 L 178.8,681.9 L 166.5,696.6 L 163.6,715.5 L 160.0,721.6 L 158.9,726.5 L 139.0,727.6 L 138.8,727.6 L 139.2,721.3 L 142.6,717.5 L 145.5,710.4 L 145.0,705.8 L 148.0,696.2 L 152.9,687.5 L 155.9,685.3 L 158.3,677.4 L 158.5,670.1 L 161.7,661.7 L 167.6,656.7 L 173.2,642.8 L 173.3,642.6 L 177.8,637.3 L 186.0,635.8 L 193.0,626.5 L 197.4,622.9 L 204.8,611.5 L 202.6,594.5 L 205.9,582.8 L 207.1,575.6 L 212.8,566.4 L 221.7,560.1 L 228.3,554.5 L 234.2,540.4 L 236.9,532.0 L 243.5,532.1 L 248.8,537.8 L 257.2,536.9 L 266.4,539.9 L 270.2,540.1 Z" fill="#E4E0D4" stroke="#B0A898" stroke-width="0.5" stroke-linejoin="round"/>
<path d="M 510.6,719.7 L 510.6,746.9 L 500.4,747.0 L 500.3,752.7 L 465.0,726.6 L 429.7,700.5 L 420.8,707.9 L 414.5,713.0 L 409.6,705.5 L 395.6,699.6 L 391.7,691.1 L 384.7,684.7 L 380.6,687.2 L 377.4,679.6 L 377.1,673.8 L 371.9,663.8 L 375.4,658.1 L 374.6,649.6 L 375.7,642.1 L 375.1,635.9 L 376.6,624.8 L 376.2,618.4 L 373.3,606.4 L 377.6,603.2 L 378.4,597.4 L 377.4,591.8 L 383.5,586.5 L 386.2,582.2 L 390.6,578.2 L 391.1,567.8 L 401.4,572.5 L 405.2,571.3 L 412.6,573.6 L 424.3,579.7 L 428.4,591.8 L 436.4,594.4 L 448.8,600.1 L 458.3,606.9 L 462.6,603.4 L 466.8,597.1 L 464.8,586.7 L 467.5,580.0 L 473.9,573.6 L 480.0,571.8 L 492.0,574.6 L 495.0,580.7 L 498.3,580.7 L 501.1,583.1 L 509.9,584.7 L 512.0,589.2 L 508.8,595.7 L 510.2,601.5 L 507.9,610.0 L 510.6,620.9 L 510.6,669.5 L 510.6,719.7 Z" fill="#E4E0D4" stroke="#B0A898" stroke-width="0.5" stroke-linejoin="round"/>
<path d="M 453.6,438.0 L 445.8,432.8 L 442.4,427.1 L 439.1,424.1 L 435.0,419.0 L 433.1,414.8 L 428.8,408.4 L 430.6,402.8 L 433.8,405.9 L 435.7,403.1 L 439.8,402.8 L 447.4,405.0 L 453.6,404.8 L 457.6,407.9 L 457.6,407.9 L 460.8,407.8 L 458.5,413.8 L 462.8,419.1 L 461.5,425.5 L 459.4,426.1 L 457.8,427.3 L 454.9,430.5 L 453.6,438.0 Z" fill="#E4E0D4" stroke="#B0A898" stroke-width="0.5" stroke-linejoin="round"/>
<path d="M 487.4,442.5 L 491.8,446.9 L 492.5,455.9 L 490.8,456.4 L 489.3,458.7 L 484.5,458.5 L 481.2,461.5 L 475.4,462.7 L 471.7,459.3 L 470.5,453.5 L 471.6,448.8 L 471.6,448.8 L 472.7,449.0 L 473.1,446.2 L 478.3,444.1 L 480.3,443.5 L 483.3,442.7 L 487.4,442.5 Z" fill="#E4E0D4" stroke="#B0A898" stroke-width="0.5" stroke-linejoin="round"/>
<path d="M 456.0,393.6 L 456.0,393.6 L 462.8,390.0 L 468.3,390.6 L 473.1,395.9 L 474.1,400.3 L 479.5,403.5 L 480.2,409.1 L 485.3,413.1 L 488.1,410.0 L 490.3,411.7 L 488.2,414.0 L 489.9,416.4 L 487.7,419.5 L 488.5,424.5 L 492.8,430.4 L 489.4,434.6 L 487.9,439.0 L 488.9,440.6 L 487.4,442.5 L 483.3,442.7 L 480.3,443.5 L 480.0,442.5 L 481.1,440.9 L 482.1,437.6 L 480.8,437.6 L 479.1,435.1 L 477.6,434.5 L 476.5,432.3 L 474.8,431.4 L 473.6,429.5 L 472.0,430.3 L 470.7,434.8 L 468.6,435.8 L 469.4,434.6 L 466.0,431.8 L 463.1,430.3 L 461.8,428.4 L 459.4,426.1 L 461.5,425.5 L 462.8,419.1 L 458.5,413.8 L 460.8,407.8 L 457.6,407.9 L 457.6,407.9 L 461.0,402.7 L 458.1,398.8 L 456.0,393.6 Z" fill="#E4E0D4" stroke="#B0A898" stroke-width="0.5" stroke-linejoin="round"/>
<path d="M 467.0,438.8 L 464.6,440.1 L 464.0,437.5 L 460.2,444.2 L 460.8,448.5 L 458.9,447.5 L 456.5,443.0 L 452.6,440.3 L 453.6,438.0 L 454.9,430.5 L 457.8,427.3 L 459.4,426.1 L 461.8,428.4 L 463.1,430.3 L 466.0,431.8 L 469.4,434.6 L 468.6,435.8 L 467.0,438.8 Z" fill="#E4E0D4" stroke="#B0A898" stroke-width="0.5" stroke-linejoin="round"/>
<path d="M 471.6,448.8 L 471.0,443.9 L 468.9,442.5 L 467.0,438.8 L 468.6,435.8 L 470.7,434.8 L 472.0,430.3 L 473.6,429.5 L 474.8,431.4 L 476.5,432.3 L 477.6,434.5 L 479.1,435.1 L 480.8,437.6 L 482.1,437.6 L 481.1,440.9 L 480.0,442.5 L 480.3,443.5 L 478.3,444.1 L 473.1,446.2 L 472.7,449.0 L 471.6,448.8 Z" fill="#E4E0D4" stroke="#B0A898" stroke-width="0.5" stroke-linejoin="round"/>
<text x="77.1" y="242.3" text-anchor="middle" dominant-baseline="middle" font-family="Helvetica,Arial,sans-serif" font-size="9" fill="#4A6880" font-style="italic" opacity="0.85">Atlântico Norte</text>
<text x="338.1" y="133.1" text-anchor="middle" dominant-baseline="middle" font-family="Helvetica,Arial,sans-serif" font-size="9" fill="#4A6880" font-style="italic" opacity="0.85">Mar da Noruega</text>
<text x="320.4" y="249.1" text-anchor="middle" dominant-baseline="middle" font-family="Helvetica,Arial,sans-serif" font-size="9" fill="#4A6880" font-style="italic" opacity="0.85">Mar do Norte</text>
<text x="466.4" y="474.2" text-anchor="middle" dominant-baseline="middle" font-family="Helvetica,Arial,sans-serif" font-size="9" fill="#4A6880" font-style="italic" opacity="0.85">Mar Mediterrâneo</text>
<text x="572.5" y="412.8" text-anchor="middle" dominant-baseline="middle" font-family="Helvetica,Arial,sans-serif" font-size="9" fill="#4A6880" font-style="italic" opacity="0.85">Mar Negro</text>
<text x="776.0" y="174.1" font-family="Helvetica,Arial,sans-serif" font-size="9" font-weight="normal" text-anchor="middle" dominant-baseline="middle" fill="white" stroke="white" stroke-width="3" stroke-linejoin="round" opacity="0.75">Rússia</text>
<text x="776.0" y="174.1" font-family="Helvetica,Arial,sans-serif" font-size="9" font-weight="normal" text-anchor="middle" dominant-baseline="middle" fill="#2A2228">Rússia</text>
<text x="377.9" y="126.3" font-family="Helvetica,Arial,sans-serif" font-size="11" font-weight="bold" text-anchor="middle" dominant-baseline="middle" fill="white" stroke="white" stroke-width="3" stroke-linejoin="round" opacity="0.75">Noruega</text>
<text x="377.9" y="126.3" font-family="Helvetica,Arial,sans-serif" font-size="11" font-weight="bold" text-anchor="middle" dominant-baseline="middle" fill="#2A2228">Noruega</text>
<text x="311.5" y="385.5" font-family="Helvetica,Arial,sans-serif" font-size="9" font-weight="normal" text-anchor="middle" dominant-baseline="middle" fill="white" stroke="white" stroke-width="3" stroke-linejoin="round" opacity="0.75">França</text>
<text x="311.5" y="385.5" font-family="Helvetica,Arial,sans-serif" font-size="9" font-weight="normal" text-anchor="middle" dominant-baseline="middle" fill="#2A2228">França</text>
<text x="606.7" y="557.8" font-family="Helvetica,Arial,sans-serif" font-size="9" font-weight="normal" text-anchor="middle" dominant-baseline="middle" fill="white" stroke="white" stroke-width="3" stroke-linejoin="round" opacity="0.75">Lebanon</text>
<text x="606.7" y="557.8" font-family="Helvetica,Arial,sans-serif" font-size="9" font-weight="normal" text-anchor="middle" dominant-baseline="middle" fill="#2A2228">Lebanon</text>
<text x="373.5" y="558.3" font-family="Helvetica,Arial,sans-serif" font-size="9" font-weight="normal" text-anchor="middle" dominant-baseline="middle" fill="white" stroke="white" stroke-width="3" stroke-linejoin="round" opacity="0.75">Tunísia</text>
<text x="373.5" y="558.3" font-family="Helvetica,Arial,sans-serif" font-size="9" font-weight="normal" text-anchor="middle" dominant-baseline="middle" fill="#2A2228">Tunísia</text>
<text x="634.7" y="545.5" font-family="Helvetica,Arial,sans-serif" font-size="9" font-weight="normal" text-anchor="middle" dominant-baseline="middle" fill="white" stroke="white" stroke-width="3" stroke-linejoin="round" opacity="0.75">Syria</text>
<text x="634.7" y="545.5" font-family="Helvetica,Arial,sans-serif" font-size="9" font-weight="normal" text-anchor="middle" dominant-baseline="middle" fill="#2A2228">Syria</text>
<text x="687.9" y="474.2" font-family="Helvetica,Arial,sans-serif" font-size="9" font-weight="normal" text-anchor="middle" dominant-baseline="middle" fill="white" stroke="white" stroke-width="3" stroke-linejoin="round" opacity="0.75">Armenia</text>
<text x="687.9" y="474.2" font-family="Helvetica,Arial,sans-serif" font-size="9" font-weight="normal" text-anchor="middle" dominant-baseline="middle" fill="#2A2228">Armenia</text>
<text x="435.4" y="167.2" font-family="Helvetica,Arial,sans-serif" font-size="9" font-weight="normal" text-anchor="middle" dominant-baseline="middle" fill="white" stroke="white" stroke-width="3" stroke-linejoin="round" opacity="0.75">Suécia</text>
<text x="435.4" y="167.2" font-family="Helvetica,Arial,sans-serif" font-size="9" font-weight="normal" text-anchor="middle" dominant-baseline="middle" fill="#2A2228">Suécia</text>
<text x="536.7" y="286.7" font-family="Helvetica,Arial,sans-serif" font-size="9" font-weight="normal" text-anchor="middle" dominant-baseline="middle" fill="white" stroke="white" stroke-width="3" stroke-linejoin="round" opacity="0.75">Bielorrússia</text>
<text x="536.7" y="286.7" font-family="Helvetica,Arial,sans-serif" font-size="9" font-weight="normal" text-anchor="middle" dominant-baseline="middle" fill="#2A2228">Bielorrússia</text>
<text x="572.5" y="351.4" font-family="Helvetica,Arial,sans-serif" font-size="9" font-weight="normal" text-anchor="middle" dominant-baseline="middle" fill="white" stroke="white" stroke-width="3" stroke-linejoin="round" opacity="0.75">Ucrânia</text>
<text x="572.5" y="351.4" font-family="Helvetica,Arial,sans-serif" font-size="9" font-weight="normal" text-anchor="middle" dominant-baseline="middle" fill="#2A2228">Ucrânia</text>
<text x="461.9" y="310.5" font-family="Helvetica,Arial,sans-serif" font-size="9" font-weight="normal" text-anchor="middle" dominant-baseline="middle" fill="white" stroke="white" stroke-width="3" stroke-linejoin="round" opacity="0.75">Polônia</text>
<text x="461.9" y="310.5" font-family="Helvetica,Arial,sans-serif" font-size="9" font-weight="normal" text-anchor="middle" dominant-baseline="middle" fill="#2A2228">Polônia</text>
<text x="406.5" y="368.6" font-family="Helvetica,Arial,sans-serif" font-size="9" font-weight="normal" text-anchor="middle" dominant-baseline="middle" fill="white" stroke="white" stroke-width="3" stroke-linejoin="round" opacity="0.75">Áustria</text>
<text x="406.5" y="368.6" font-family="Helvetica,Arial,sans-serif" font-size="9" font-weight="normal" text-anchor="middle" dominant-baseline="middle" fill="#2A2228">Áustria</text>
<text x="461.5" y="376.1" font-family="Helvetica,Arial,sans-serif" font-size="9" font-weight="normal" text-anchor="middle" dominant-baseline="middle" fill="white" stroke="white" stroke-width="3" stroke-linejoin="round" opacity="0.75">Hungria</text>
<text x="461.5" y="376.1" font-family="Helvetica,Arial,sans-serif" font-size="9" font-weight="normal" text-anchor="middle" dominant-baseline="middle" fill="#2A2228">Hungria</text>
<text x="540.0" y="379.0" font-family="Helvetica,Arial,sans-serif" font-size="9" font-weight="normal" text-anchor="middle" dominant-baseline="middle" fill="white" stroke="white" stroke-width="3" stroke-linejoin="round" opacity="0.75">Moldova</text>
<text x="540.0" y="379.0" font-family="Helvetica,Arial,sans-serif" font-size="9" font-weight="normal" text-anchor="middle" dominant-baseline="middle" fill="#2A2228">Moldova</text>
<text x="509.9" y="392.9" font-family="Helvetica,Arial,sans-serif" font-size="9" font-weight="normal" text-anchor="middle" dominant-baseline="middle" fill="white" stroke="white" stroke-width="3" stroke-linejoin="round" opacity="0.75">Romênia</text>
<text x="509.9" y="392.9" font-family="Helvetica,Arial,sans-serif" font-size="9" font-weight="normal" text-anchor="middle" dominant-baseline="middle" fill="#2A2228">Romênia</text>
<text x="500.2" y="267.6" font-family="Helvetica,Arial,sans-serif" font-size="9" font-weight="normal" text-anchor="middle" dominant-baseline="middle" fill="white" stroke="white" stroke-width="3" stroke-linejoin="round" opacity="0.75">Lituânia</text>
<text x="500.2" y="267.6" font-family="Helvetica,Arial,sans-serif" font-size="9" font-weight="normal" text-anchor="middle" dominant-baseline="middle" fill="#2A2228">Lituânia</text>
<text x="507.2" y="245.1" font-family="Helvetica,Arial,sans-serif" font-size="9" font-weight="normal" text-anchor="middle" dominant-baseline="middle" fill="white" stroke="white" stroke-width="3" stroke-linejoin="round" opacity="0.75">Letônia</text>
<text x="507.2" y="245.1" font-family="Helvetica,Arial,sans-serif" font-size="9" font-weight="normal" text-anchor="middle" dominant-baseline="middle" fill="#2A2228">Letônia</text>
<text x="517.1" y="221.2" font-family="Helvetica,Arial,sans-serif" font-size="9" font-weight="normal" text-anchor="middle" dominant-baseline="middle" fill="white" stroke="white" stroke-width="3" stroke-linejoin="round" opacity="0.75">Estônia</text>
<text x="517.1" y="221.2" font-family="Helvetica,Arial,sans-serif" font-size="9" font-weight="normal" text-anchor="middle" dominant-baseline="middle" fill="#2A2228">Estônia</text>
<text x="382.3" y="324.1" font-family="Helvetica,Arial,sans-serif" font-size="9" font-weight="normal" text-anchor="middle" dominant-baseline="middle" fill="white" stroke="white" stroke-width="3" stroke-linejoin="round" opacity="0.75">Alemanha</text>
<text x="382.3" y="324.1" font-family="Helvetica,Arial,sans-serif" font-size="9" font-weight="normal" text-anchor="middle" dominant-baseline="middle" fill="#2A2228">Alemanha</text>
<text x="514.7" y="436.8" font-family="Helvetica,Arial,sans-serif" font-size="9" font-weight="normal" text-anchor="middle" dominant-baseline="middle" fill="white" stroke="white" stroke-width="3" stroke-linejoin="round" opacity="0.75">Bulgária</text>
<text x="514.7" y="436.8" font-family="Helvetica,Arial,sans-serif" font-size="9" font-weight="normal" text-anchor="middle" dominant-baseline="middle" fill="#2A2228">Bulgária</text>
<text x="496.2" y="486.2" font-family="Helvetica,Arial,sans-serif" font-size="9" font-weight="normal" text-anchor="middle" dominant-baseline="middle" fill="white" stroke="white" stroke-width="3" stroke-linejoin="round" opacity="0.75">Grécia</text>
<text x="496.2" y="486.2" font-family="Helvetica,Arial,sans-serif" font-size="9" font-weight="normal" text-anchor="middle" dominant-baseline="middle" fill="#2A2228">Grécia</text>
<text x="603.5" y="487.8" font-family="Helvetica,Arial,sans-serif" font-size="9" font-weight="normal" text-anchor="middle" dominant-baseline="middle" fill="white" stroke="white" stroke-width="3" stroke-linejoin="round" opacity="0.75">Turquia</text>
<text x="603.5" y="487.8" font-family="Helvetica,Arial,sans-serif" font-size="9" font-weight="normal" text-anchor="middle" dominant-baseline="middle" fill="#2A2228">Turquia</text>
<text x="467.8" y="458.4" font-family="Helvetica,Arial,sans-serif" font-size="9" font-weight="normal" text-anchor="middle" dominant-baseline="middle" fill="white" stroke="white" stroke-width="3" stroke-linejoin="round" opacity="0.75">Albânia</text>
<text x="467.8" y="458.4" font-family="Helvetica,Arial,sans-serif" font-size="9" font-weight="normal" text-anchor="middle" dominant-baseline="middle" fill="#2A2228">Albânia</text>
<text x="435.6" y="412.9" font-family="Helvetica,Arial,sans-serif" font-size="9" font-weight="normal" text-anchor="middle" dominant-baseline="middle" fill="white" stroke="white" stroke-width="3" stroke-linejoin="round" opacity="0.75">Croácia</text>
<text x="435.6" y="412.9" font-family="Helvetica,Arial,sans-serif" font-size="9" font-weight="normal" text-anchor="middle" dominant-baseline="middle" fill="#2A2228">Croácia</text>
<text x="362.2" y="381.3" font-family="Helvetica,Arial,sans-serif" font-size="9" font-weight="normal" text-anchor="middle" dominant-baseline="middle" fill="white" stroke="white" stroke-width="3" stroke-linejoin="round" opacity="0.75">Suíça</text>
<text x="362.2" y="381.3" font-family="Helvetica,Arial,sans-serif" font-size="9" font-weight="normal" text-anchor="middle" dominant-baseline="middle" fill="#2A2228">Suíça</text>
<text x="342.1" y="340.7" font-family="Helvetica,Arial,sans-serif" font-size="9" font-weight="normal" text-anchor="middle" dominant-baseline="middle" fill="white" stroke="white" stroke-width="3" stroke-linejoin="round" opacity="0.75">Luxemburgo</text>
<text x="342.1" y="340.7" font-family="Helvetica,Arial,sans-serif" font-size="9" font-weight="normal" text-anchor="middle" dominant-baseline="middle" fill="#2A2228">Luxemburgo</text>
<text x="327.8" y="330.9" font-family="Helvetica,Arial,sans-serif" font-size="9" font-weight="normal" text-anchor="middle" dominant-baseline="middle" fill="white" stroke="white" stroke-width="3" stroke-linejoin="round" opacity="0.75">Bélgica</text>
<text x="327.8" y="330.9" font-family="Helvetica,Arial,sans-serif" font-size="9" font-weight="normal" text-anchor="middle" dominant-baseline="middle" fill="#2A2228">Bélgica</text>
<text x="335.4" y="308.3" font-family="Helvetica,Arial,sans-serif" font-size="9" font-weight="normal" text-anchor="middle" dominant-baseline="middle" fill="white" stroke="white" stroke-width="3" stroke-linejoin="round" opacity="0.75">Países Baixos</text>
<text x="335.4" y="308.3" font-family="Helvetica,Arial,sans-serif" font-size="9" font-weight="normal" text-anchor="middle" dominant-baseline="middle" fill="#2A2228">Países Baixos</text>
<text x="219.0" y="480.2" font-family="Helvetica,Arial,sans-serif" font-size="9" font-weight="normal" text-anchor="middle" dominant-baseline="middle" fill="white" stroke="white" stroke-width="3" stroke-linejoin="round" opacity="0.75">Portugal</text>
<text x="219.0" y="480.2" font-family="Helvetica,Arial,sans-serif" font-size="9" font-weight="normal" text-anchor="middle" dominant-baseline="middle" fill="#2A2228">Portugal</text>
<text x="258.4" y="474.2" font-family="Helvetica,Arial,sans-serif" font-size="9" font-weight="normal" text-anchor="middle" dominant-baseline="middle" fill="white" stroke="white" stroke-width="3" stroke-linejoin="round" opacity="0.75">Espanha</text>
<text x="258.4" y="474.2" font-family="Helvetica,Arial,sans-serif" font-size="9" font-weight="normal" text-anchor="middle" dominant-baseline="middle" fill="#2A2228">Espanha</text>
<text x="218.6" y="291.4" font-family="Helvetica,Arial,sans-serif" font-size="9" font-weight="normal" text-anchor="middle" dominant-baseline="middle" fill="white" stroke="white" stroke-width="3" stroke-linejoin="round" opacity="0.75">Irlanda</text>
<text x="218.6" y="291.4" font-family="Helvetica,Arial,sans-serif" font-size="9" font-weight="normal" text-anchor="middle" dominant-baseline="middle" fill="#2A2228">Irlanda</text>
<text x="401.0" y="439.9" font-family="Helvetica,Arial,sans-serif" font-size="9" font-weight="normal" text-anchor="middle" dominant-baseline="middle" fill="white" stroke="white" stroke-width="3" stroke-linejoin="round" opacity="0.75">Itália</text>
<text x="401.0" y="439.9" font-family="Helvetica,Arial,sans-serif" font-size="9" font-weight="normal" text-anchor="middle" dominant-baseline="middle" fill="#2A2228">Itália</text>
<text x="377.9" y="255.9" font-family="Helvetica,Arial,sans-serif" font-size="9" font-weight="normal" text-anchor="middle" dominant-baseline="middle" fill="white" stroke="white" stroke-width="3" stroke-linejoin="round" opacity="0.75">Dinamarca</text>
<text x="377.9" y="255.9" font-family="Helvetica,Arial,sans-serif" font-size="9" font-weight="normal" text-anchor="middle" dominant-baseline="middle" fill="#2A2228">Dinamarca</text>
<text x="267.3" y="290.0" font-family="Helvetica,Arial,sans-serif" font-size="9" font-weight="normal" text-anchor="middle" dominant-baseline="middle" fill="white" stroke="white" stroke-width="3" stroke-linejoin="round" opacity="0.75">Reino Unido</text>
<text x="267.3" y="290.0" font-family="Helvetica,Arial,sans-serif" font-size="9" font-weight="normal" text-anchor="middle" dominant-baseline="middle" fill="#2A2228">Reino Unido</text>
<text x="125.7" y="133.1" font-family="Helvetica,Arial,sans-serif" font-size="9" font-weight="normal" text-anchor="middle" dominant-baseline="middle" fill="white" stroke="white" stroke-width="3" stroke-linejoin="round" opacity="0.75">Islândia</text>
<text x="125.7" y="133.1" font-family="Helvetica,Arial,sans-serif" font-size="9" font-weight="normal" text-anchor="middle" dominant-baseline="middle" fill="#2A2228">Islândia</text>
<text x="711.3" y="473.3" font-family="Helvetica,Arial,sans-serif" font-size="9" font-weight="normal" text-anchor="middle" dominant-baseline="middle" fill="white" stroke="white" stroke-width="3" stroke-linejoin="round" opacity="0.75">Azerbaijan</text>
<text x="711.3" y="473.3" font-family="Helvetica,Arial,sans-serif" font-size="9" font-weight="normal" text-anchor="middle" dominant-baseline="middle" fill="#2A2228">Azerbaijan</text>
<text x="672.5" y="442.7" font-family="Helvetica,Arial,sans-serif" font-size="9" font-weight="normal" text-anchor="middle" dominant-baseline="middle" fill="white" stroke="white" stroke-width="3" stroke-linejoin="round" opacity="0.75">Georgia</text>
<text x="672.5" y="442.7" font-family="Helvetica,Arial,sans-serif" font-size="9" font-weight="normal" text-anchor="middle" dominant-baseline="middle" fill="#2A2228">Georgia</text>
<text x="423.3" y="390.2" font-family="Helvetica,Arial,sans-serif" font-size="9" font-weight="normal" text-anchor="middle" dominant-baseline="middle" fill="white" stroke="white" stroke-width="3" stroke-linejoin="round" opacity="0.75">Eslovênia</text>
<text x="423.3" y="390.2" font-family="Helvetica,Arial,sans-serif" font-size="9" font-weight="normal" text-anchor="middle" dominant-baseline="middle" fill="#2A2228">Eslovênia</text>
<text x="519.4" y="139.9" font-family="Helvetica,Arial,sans-serif" font-size="9" font-weight="normal" text-anchor="middle" dominant-baseline="middle" fill="white" stroke="white" stroke-width="3" stroke-linejoin="round" opacity="0.75">Finlândia</text>
<text x="519.4" y="139.9" font-family="Helvetica,Arial,sans-serif" font-size="9" font-weight="normal" text-anchor="middle" dominant-baseline="middle" fill="#2A2228">Finlândia</text>
<text x="463.9" y="356.0" font-family="Helvetica,Arial,sans-serif" font-size="9" font-weight="normal" text-anchor="middle" dominant-baseline="middle" fill="white" stroke="white" stroke-width="3" stroke-linejoin="round" opacity="0.75">Eslováquia</text>
<text x="463.9" y="356.0" font-family="Helvetica,Arial,sans-serif" font-size="9" font-weight="normal" text-anchor="middle" dominant-baseline="middle" fill="#2A2228">Eslováquia</text>
<text x="427.0" y="340.0" font-family="Helvetica,Arial,sans-serif" font-size="9" font-weight="normal" text-anchor="middle" dominant-baseline="middle" fill="white" stroke="white" stroke-width="3" stroke-linejoin="round" opacity="0.75">Tchéquia</text>
<text x="427.0" y="340.0" font-family="Helvetica,Arial,sans-serif" font-size="9" font-weight="normal" text-anchor="middle" dominant-baseline="middle" fill="#2A2228">Tchéquia</text>
<text x="587.2" y="537.8" font-family="Helvetica,Arial,sans-serif" font-size="9" font-weight="normal" text-anchor="middle" dominant-baseline="middle" fill="white" stroke="white" stroke-width="3" stroke-linejoin="round" opacity="0.75">N. Cyprus</text>
<text x="587.2" y="537.8" font-family="Helvetica,Arial,sans-serif" font-size="9" font-weight="normal" text-anchor="middle" dominant-baseline="middle" fill="#2A2228">N. Cyprus</text>
<text x="582.5" y="544.1" font-family="Helvetica,Arial,sans-serif" font-size="9" font-weight="normal" text-anchor="middle" dominant-baseline="middle" fill="white" stroke="white" stroke-width="3" stroke-linejoin="round" opacity="0.75">Cyprus</text>
<text x="582.5" y="544.1" font-family="Helvetica,Arial,sans-serif" font-size="9" font-weight="normal" text-anchor="middle" dominant-baseline="middle" fill="#2A2228">Cyprus</text>
<text x="445.8" y="420.4" font-family="Helvetica,Arial,sans-serif" font-size="9" font-weight="normal" text-anchor="middle" dominant-baseline="middle" fill="white" stroke="white" stroke-width="3" stroke-linejoin="round" opacity="0.75">Bósnia e Herz.</text>
<text x="445.8" y="420.4" font-family="Helvetica,Arial,sans-serif" font-size="9" font-weight="normal" text-anchor="middle" dominant-baseline="middle" fill="#2A2228">Bósnia e Herz.</text>
<text x="481.5" y="452.6" font-family="Helvetica,Arial,sans-serif" font-size="9" font-weight="normal" text-anchor="middle" dominant-baseline="middle" fill="white" stroke="white" stroke-width="3" stroke-linejoin="round" opacity="0.75">Macedônia do Norte</text>
<text x="481.5" y="452.6" font-family="Helvetica,Arial,sans-serif" font-size="9" font-weight="normal" text-anchor="middle" dominant-baseline="middle" fill="#2A2228">Macedônia do Norte</text>
<text x="474.4" y="416.7" font-family="Helvetica,Arial,sans-serif" font-size="9" font-weight="normal" text-anchor="middle" dominant-baseline="middle" fill="white" stroke="white" stroke-width="3" stroke-linejoin="round" opacity="0.75">Sérvia</text>
<text x="474.4" y="416.7" font-family="Helvetica,Arial,sans-serif" font-size="9" font-weight="normal" text-anchor="middle" dominant-baseline="middle" fill="#2A2228">Sérvia</text>
<text x="461.0" y="437.3" font-family="Helvetica,Arial,sans-serif" font-size="9" font-weight="normal" text-anchor="middle" dominant-baseline="middle" fill="white" stroke="white" stroke-width="3" stroke-linejoin="round" opacity="0.75">Montenegro</text>
<text x="461.0" y="437.3" font-family="Helvetica,Arial,sans-serif" font-size="9" font-weight="normal" text-anchor="middle" dominant-baseline="middle" fill="#2A2228">Montenegro</text>
<text x="474.5" y="439.2" font-family="Helvetica,Arial,sans-serif" font-size="9" font-weight="normal" text-anchor="middle" dominant-baseline="middle" fill="white" stroke="white" stroke-width="3" stroke-linejoin="round" opacity="0.75">Kosovo</text>
<text x="474.5" y="439.2" font-family="Helvetica,Arial,sans-serif" font-size="9" font-weight="normal" text-anchor="middle" dominant-baseline="middle" fill="#2A2228">Kosovo</text>
</g>
<rect x="24" y="24" width="752" height="532" fill="none" stroke="#90A4B8" stroke-width="1"/>
<text x="774" y="575" text-anchor="end" font-family="Helvetica,Arial,sans-serif" font-size="7" fill="#909098" opacity="0.85">Natural Earth · domínio público</text>
</svg>