<svg xmlns="http://www.w3.org/2000/svg" viewBox="0 0 960 600">
<defs>
  <clipPath id="c">
    <rect x="24" y="24" width="912" height="552"/>
  </clipPath>
</defs>
<rect width="960" height="600" fill="#B8CEDE"/>
<g clip-path="url(#c)">
<path d="M 286.7,92.3 L 279.3,97.5 L 271.4,98.2 L 270.9,106.0 L 265.6,109.5 L 246.5,107.0 L 239.6,120.9 L 234.7,122.6 L 215.7,125.7 L 224.3,139.2 L 217.7,141.2 L 218.5,145.7 L 212.6,144.5 L 207.8,141.7 L 193.5,140.9 L 177.6,140.7 L 174.1,141.6 L 160.4,138.3 L 155.0,139.9 L 153.5,144.5 L 137.7,141.8 L 131.4,142.9 L 129.2,146.3 L 123.7,147.8 L 111.1,153.2 L 106.9,158.7 L 103.3,158.8 L 100.7,155.1 L 88.5,154.9 L 86.5,148.5 L 81.8,148.4 L 82.5,140.6 L 71.0,135.0 L 54.6,135.6 L 43.3,136.7 L 34.2,129.7 L 26.3,126.7 L 11.4,121.2 L 9.6,120.5 L -15.1,125.1 L -14.7,153.8 L -19.6,154.1 L -26.3,148.1 L -32.8,145.9 L -43.7,147.5 L -48.0,150.1 L -48.5,148.2 L -46.2,144.9 L -48.0,142.2 L -59.1,139.6 L -63.4,132.6 L -68.7,130.6 L -69.1,128.1 L -59.7,128.8 L -59.4,123.2 L -51.2,121.9 L -42.8,123.1 L -41.1,115.5 L -42.8,110.7 L -52.4,111.0 L -60.6,109.1 L -71.7,112.6 L -80.6,114.2 L -85.5,112.9 L -84.5,108.9 L -90.7,103.7 L -97.8,104.0 L -105.9,98.7 L -100.4,92.8 L -103.2,91.2 L -95.5,82.7 L -85.7,87.2 L -84.5,81.5 L -64.6,73.0 L -49.6,72.8 L -28.5,78.2 L -17.1,81.4 L -6.9,78.1 L 8.3,77.9 L 20.6,82.0 L 23.4,79.6 L 36.8,80.0 L 39.2,76.3 L 23.7,71.0 L 32.9,67.2 L 31.1,65.1 L 40.3,63.0 L 33.4,57.7 L 37.8,55.0 L 73.7,52.3 L 78.4,50.4 L 102.4,47.6 L 111.1,44.3 L 128.3,46.0 L 131.3,54.1 L 141.4,52.2 L 153.7,54.8 L 152.9,59.1 L 162.1,58.6 L 186.2,51.3 L 182.6,53.7 L 194.9,59.7 L 216.3,79.5 L 221.5,75.4 L 234.7,79.9 L 248.5,77.9 L 253.8,79.3 L 258.4,83.8 L 265.1,85.3 L 269.2,88.6 L 281.6,87.5 L 286.7,92.3 Z" fill="#E4E0D4" stroke="#B0A898" stroke-width="0.5" stroke-linejoin="round"/>
<path d="M -14.7,153.8 L -15.1,125.1 L 9.6,120.5 L 11.4,121.2 L 26.3,126.7 L 34.2,129.7 L 43.3,136.7 L 54.6,135.6 L 71.0,135.0 L 82.5,140.6 L 81.8,148.4 L 86.5,148.5 L 88.5,154.9 L 100.7,155.1 L 103.3,158.8 L 106.9,158.7 L 111.1,153.2 L 123.7,147.8 L 129.2,146.3 L 132.1,147.1 L 124.0,152.1 L 131.1,155.1 L 138.0,153.1 L 149.3,157.2 L 137.0,162.8 L 129.7,162.0 L 125.8,162.2 L 124.4,160.1 L 126.4,156.5 L 113.6,158.3 L 110.5,163.3 L 105.9,167.6 L 97.9,167.2 L 95.4,170.6 L 102.5,172.5 L 104.6,178.3 L 99.2,186.1 L 91.9,184.5 L 86.6,184.4 L 86.8,179.7 L 74.1,176.4 L 64.0,172.6 L 57.8,168.9 L 46.8,163.5 L 42.1,155.5 L 38.9,154.1 L 28.5,154.5 L 24.8,152.9 L 23.8,146.7 L 10.8,142.6 L 2.8,147.1 L -5.5,149.7 L -3.9,153.7 L -14.7,153.8 Z" fill="#E4E0D4" stroke="#B0A898" stroke-width="0.5" stroke-linejoin="round"/>
<path d="M 801.6,495.1 L 818.3,500.5 L 836.0,505.0 L 842.6,508.9 L 848.0,512.8 L 849.4,517.4 L 865.4,522.2 L 867.8,526.4 L 858.9,527.2 L 861.0,532.4 L 869.6,537.5 L 875.8,545.7 L 881.3,545.5 L 881.0,548.9 L 888.4,550.2 L 885.5,551.7 L 895.7,555.0 L 894.6,557.2 L 888.3,557.7 L 885.9,555.7 L 877.7,554.9 L 868.0,553.7 L 860.5,548.7 L 855.1,544.5 L 850.1,537.7 L 837.5,534.3 L 829.4,536.5 L 823.5,539.0 L 824.8,544.8 L 817.2,547.4 L 811.9,546.1 L 801.9,545.8 L 801.8,520.5 L 801.6,495.1 Z M 913.3,503.4 L 917.0,505.9 L 918.1,509.9 L 915.1,512.0 L 913.3,507.4 L 911.1,504.4 L 906.8,501.8 L 901.3,498.5 L 894.4,496.2 L 897.0,494.4 L 902.2,496.5 L 905.5,498.3 L 909.5,500.1 L 913.3,503.4 Z M 900.5,520.3 L 895.2,522.2 L 890.3,524.0 L 885.2,524.0 L 877.3,521.8 L 871.9,519.6 L 872.7,517.2 L 881.3,518.3 L 886.5,517.7 L 888.0,514.0 L 889.3,513.8 L 890.3,517.9 L 895.8,517.3 L 898.5,514.7 L 903.8,511.9 L 902.8,507.3 L 908.5,507.2 L 910.5,508.5 L 910.3,512.8 L 907.0,517.5 L 902.0,518.2 L 900.5,520.3 Z M 933.7,516.4 L 936.6,518.2 L 941.3,523.1 L 945.8,525.8 L 944.4,528.0 L 941.8,528.7 L 937.6,525.7 L 933.4,520.8 L 931.3,514.9 L 932.7,514.1 L 933.7,516.4 Z" fill="#E4E0D4" stroke="#B0A898" stroke-width="0.5" stroke-linejoin="round"/>
<path d="M 801.6,495.1 L 801.8,520.5 L 801.9,545.8 L 793.4,539.4 L 783.6,537.9 L 781.3,540.1 L 769.1,540.3 L 773.2,534.0 L 779.2,531.8 L 776.7,523.4 L 772.1,516.9 L 753.5,510.3 L 745.6,509.6 L 731.2,502.4 L 728.3,506.2 L 724.6,506.9 L 722.5,504.1 L 722.4,500.7 L 715.1,496.9 L 725.4,494.1 L 732.3,494.2 L 731.5,492.1 L 717.4,492.1 L 713.6,487.5 L 705.1,486.1 L 701.0,482.2 L 713.9,480.3 L 718.8,477.8 L 734.3,481.0 L 735.8,483.9 L 738.5,496.5 L 748.4,501.1 L 756.4,492.9 L 767.4,488.2 L 776.0,488.2 L 784.2,490.9 L 791.3,493.7 L 801.6,495.1 Z M 647.7,544.1 L 648.7,545.6 L 648.8,548.0 L 642.6,553.8 L 634.4,555.5 L 633.2,554.5 L 634.1,551.9 L 638.2,547.2 L 647.7,544.1 Z M 736.4,528.5 L 735.5,522.7 L 737.2,519.9 L 739.2,517.3 L 741.4,519.5 L 741.4,523.2 L 736.4,528.5 Z M 579.7,442.8 L 574.2,449.8 L 581.3,457.1 L 579.6,460.7 L 590.4,467.9 L 579.0,468.8 L 575.8,474.1 L 576.2,481.2 L 567.0,486.5 L 566.7,494.2 L 563.0,506.1 L 561.6,503.4 L 550.7,506.9 L 546.9,502.1 L 540.1,501.7 L 535.3,499.2 L 523.9,502.0 L 520.4,498.2 L 514.1,498.6 L 506.1,497.7 L 504.7,487.3 L 499.9,485.2 L 495.3,478.5 L 493.9,471.7 L 495.1,464.5 L 500.8,459.3 L 502.4,464.5 L 508.9,468.9 L 515.1,467.3 L 521.3,467.9 L 526.9,464.0 L 531.5,463.3 L 540.5,465.5 L 548.4,463.8 L 553.3,453.0 L 557.0,450.3 L 560.3,441.4 L 571.3,441.5 L 579.7,442.8 Z M 690.0,496.7 L 700.5,499.0 L 704.0,504.9 L 695.9,501.7 L 687.9,501.1 L 682.5,501.6 L 675.8,501.3 L 678.1,497.0 L 690.0,496.7 Z M 666.0,504.4 L 659.4,503.0 L 657.5,499.6 L 667.2,499.3 L 669.6,501.8 L 666.0,504.4 Z M 676.2,458.0 L 676.8,462.3 L 682.5,463.0 L 683.4,466.1 L 682.9,472.9 L 678.0,472.2 L 676.5,476.9 L 680.4,481.0 L 677.8,481.9 L 673.9,477.0 L 671.0,467.1 L 673.0,460.9 L 676.2,458.0 Z M 628.1,468.1 L 639.1,467.8 L 648.6,462.2 L 650.3,463.9 L 642.6,471.6 L 635.4,473.1 L 626.1,471.6 L 610.1,472.0 L 601.8,473.1 L 600.4,479.0 L 609.0,485.9 L 614.2,482.4 L 632.1,479.7 L 631.3,483.3 L 627.1,482.2 L 622.9,486.7 L 614.5,489.7 L 623.6,499.7 L 621.8,502.4 L 630.4,511.3 L 630.4,516.5 L 625.2,518.7 L 621.5,516.0 L 626.1,509.6 L 616.7,512.6 L 614.3,510.5 L 615.5,507.5 L 608.6,502.9 L 609.3,495.4 L 602.9,497.7 L 603.7,506.8 L 604.1,517.9 L 598.0,519.0 L 593.9,516.8 L 596.7,509.6 L 595.2,502.1 L 591.2,502.0 L 588.2,496.7 L 592.1,491.6 L 593.5,485.4 L 598.3,473.7 L 600.3,470.5 L 608.5,464.8 L 616.0,467.0 L 628.1,468.1 Z M 602.8,554.7 L 590.1,549.2 L 599.0,547.7 L 604.1,550.1 L 607.4,552.4 L 606.9,554.5 L 602.8,554.7 Z M 612.9,541.3 L 619.3,540.7 L 627.9,537.9 L 626.5,542.2 L 612.0,544.4 L 599.3,543.4 L 599.2,540.6 L 606.9,539.0 L 612.9,541.3 Z M 583.3,539.9 L 589.2,539.3 L 591.6,542.6 L 580.5,544.2 L 573.9,545.2 L 568.7,545.2 L 572.0,540.7 L 577.3,540.6 L 579.8,537.9 L 583.3,539.9 Z M 489.5,524.9 L 490.8,527.6 L 509.2,528.4 L 511.3,525.2 L 529.1,528.9 L 532.6,534.0 L 547.0,535.4 L 558.8,540.0 L 547.8,543.0 L 537.3,539.8 L 528.6,540.1 L 518.6,539.5 L 509.6,538.1 L 498.5,535.1 L 491.5,534.3 L 487.5,535.3 L 470.0,532.1 L 468.3,528.8 L 459.5,528.2 L 466.1,520.8 L 477.7,521.2 L 485.5,524.3 L 489.5,524.9 Z M 450.0,483.4 L 451.6,488.8 L 454.9,493.1 L 462.0,493.8 L 466.6,498.7 L 464.2,508.4 L 463.8,520.4 L 453.2,520.6 L 445.1,514.1 L 432.8,507.7 L 428.7,503.0 L 421.4,496.7 L 416.7,490.9 L 409.4,480.0 L 400.9,473.5 L 398.1,466.8 L 394.6,460.8 L 385.9,455.9 L 380.9,449.2 L 373.7,444.9 L 363.7,436.3 L 362.8,432.3 L 369.0,432.6 L 383.9,434.1 L 392.3,441.7 L 399.8,447.0 L 405.1,450.3 L 414.2,458.6 L 423.9,458.7 L 432.0,464.1 L 437.5,470.6 L 444.8,474.1 L 441.0,480.5 L 446.5,483.2 L 450.0,483.4 Z" fill="#C8DEC8" stroke="#B0A898" stroke-width="0.5" stroke-linejoin="round"/>
<path d="M 1163.8,-77.8 L 1176.0,-81.1 L 1176.0,-75.8 L 1165.5,-75.4 L 1163.8,-77.8 Z M -80.6,114.2 L -85.0,118.8 L -94.3,120.1 L -103.9,128.1 L -95.1,135.5 L -96.1,140.7 L -85.6,149.9 L -85.6,149.9 L -91.3,153.0 L -93.0,155.0 L -97.2,154.5 L -103.8,149.7 L -106.5,149.5 L -112.5,147.7 L -115.5,144.5 L -124.4,142.9 L -130.3,144.1 L -131.9,142.6 L -145.0,138.9 L -159.1,137.6 L -167.3,136.3 L -168.4,137.2 L -180.7,130.7 L -191.6,127.7 L -199.9,123.2 L -192.9,121.9 L -185.0,115.4 L -190.3,112.3 L -176.2,109.2 L -176.4,107.5 L -185.1,108.7 L -184.8,105.3 L -179.8,103.1 L -170.5,102.5 L -169.0,99.9 L -171.1,95.7 L -167.2,91.6 L -167.3,89.3 L -181.5,86.8 L -187.1,86.9 L -193.0,83.2 L -200.4,84.4 L -212.6,81.7 L -212.4,80.2 L -215.8,76.8 L -223.4,76.4 L -224.2,74.0 L -221.8,72.4 L -228.0,68.0 L -237.9,68.8 L -240.8,68.4 L -243.3,70.2 L -246.9,69.9 L -246.9,69.9 L -249.2,64.9 L -251.5,62.3 L -249.6,61.6 L -241.9,61.8 L -238.1,60.1 L -240.9,58.1 L -247.4,56.7 L -246.8,55.3 L -250.7,53.9 L -256.7,48.8 L -254.7,46.7 L -255.6,43.0 L -265.0,41.2 L -270.0,42.1 L -271.4,40.2 L -281.5,38.2 L -284.6,33.6 L -285.4,29.9 L -290.0,28.1 L -285.9,25.6 L -288.8,18.4 L -281.9,13.9 L -283.4,12.5 L -283.4,12.5 L -272.5,8.2 L -282.5,4.5 L -282.5,4.5 L -262.0,-5.4 L -253.1,-9.9 L -249.4,-13.8 L -263.7,-19.2 L -259.7,-24.2 L -268.4,-30.0 L -261.9,-36.7 L -273.1,-45.5 L -264.2,-51.4 L -278.9,-56.6 L -277.5,-62.0 L -269.8,-62.7 L -253.4,-65.9 L -253.4,-65.9 L -243.5,-68.6 L -227.8,-63.9 L -201.5,-62.0 L -165.2,-53.2 L -157.8,-49.5 L -157.2,-44.4 L -167.8,-40.3 L -183.5,-38.2 L -226.4,-44.1 L -233.4,-43.1 L -217.8,-37.4 L -217.2,-33.8 L -216.5,-25.9 L -204.2,-23.5 L -196.7,-21.5 L -195.4,-25.3 L -201.2,-28.6 L -195.1,-31.5 L -171.9,-26.7 L -163.8,-28.6 L -170.3,-34.3 L -147.9,-41.9 L -139.0,-41.5 L -130.1,-38.7 L -124.5,-44.1 L -132.5,-48.7 L -127.8,-53.4 L -134.9,-58.2 L -108.0,-55.7 L -102.5,-51.3 L -114.7,-50.4 L -114.6,-46.0 L -107.0,-43.4 L -92.2,-45.1 L -89.9,-50.0 L -69.8,-53.7 L -36.3,-60.4 L -29.1,-60.0 L -38.5,-55.3 L -26.6,-54.5 L -19.8,-57.2 L -1.8,-57.4 L 12.5,-60.6 L 23.4,-55.9 L 34.3,-61.1 L 24.3,-65.6 L 29.3,-68.1 L 57.6,-65.8 L 70.9,-63.3 L 105.7,-54.5 L 112.1,-58.5 L 102.4,-62.6 L 102.1,-64.3 L 90.5,-65.1 L 93.7,-68.7 L 88.6,-74.8 L 88.3,-77.3 L 106.0,-84.3 L 112.3,-91.4 L 119.4,-92.9 L 144.8,-90.9 L 146.8,-86.6 L 137.7,-80.3 L 143.7,-77.8 L 146.8,-72.3 L 144.6,-61.7 L 155.2,-56.9 L 151.1,-51.7 L 132.3,-40.7 L 143.3,-39.5 L 147.1,-42.3 L 157.6,-44.3 L 160.2,-48.2 L 168.5,-51.9 L 162.9,-56.3 L 167.4,-61.4 L 156.9,-62.1 L 154.6,-66.4 L 162.2,-74.2 L 149.8,-80.5 L 167.0,-85.8 L 164.7,-91.3 L 169.5,-91.5 L 174.6,-87.2 L 170.8,-79.7 L 181.0,-78.3 L 176.7,-83.9 L 192.7,-86.9 L 212.7,-87.3 L 230.4,-82.9 L 221.9,-89.4 L 220.9,-97.7 L 237.6,-99.2 L 260.7,-98.9 L 281.5,-99.9 L 273.7,-104.0 L 284.8,-109.1 L 295.8,-109.3 L 314.5,-113.1 L 339.8,-114.2 L 343.0,-116.3 L 368.3,-117.0 L 376.1,-115.3 L 397.7,-119.4 L 415.3,-119.3 L 417.9,-122.6 L 427.1,-126.0 L 449.8,-129.1 L 466.2,-126.6 L 453.2,-124.7 L 474.9,-123.5 L 477.5,-119.7 L 486.3,-121.6 L 514.3,-121.5 L 536.0,-117.7 L 543.7,-114.8 L 541.3,-110.7 L 530.7,-108.4 L 505.5,-104.1 L 498.2,-101.8 L 510.1,-100.7 L 524.3,-98.7 L 533.0,-100.2 L 537.9,-95.2 L 542.1,-97.2 L 557.5,-98.5 L 588.3,-97.2 L 590.6,-93.6 L 630.7,-92.4 L 631.3,-98.3 L 651.6,-97.0 L 667.0,-97.0 L 682.5,-92.9 L 686.9,-87.9 L 681.2,-84.7 L 693.3,-78.6 L 708.4,-75.4 L 717.6,-83.6 L 733.0,-80.1 L 749.4,-82.2 L 768.0,-79.8 L 775.0,-82.0 L 790.8,-80.9 L 783.8,-88.1 L 796.5,-91.4 L 883.2,-86.4 L 891.4,-81.8 L 916.5,-75.8 L 955.3,-77.3 L 974.4,-76.0 L 982.4,-72.8 L 981.2,-67.1 L 993.0,-64.9 L 1005.9,-66.5 L 1022.9,-66.7 L 1041.0,-65.2 L 1059.2,-66.1 L 1075.9,-59.1 L 1087.8,-61.6 L 1080.1,-66.6 L 1084.4,-70.1 L 1115.0,-67.9 L 1135.0,-68.3 L 1162.6,-64.6 L 1176.0,-61.2 L 1176.0,-30.3 L 1175.9,-30.2 L 1163.6,-26.8 L 1151.1,-27.4 L 1159.8,-23.2 L 1165.5,-16.8 L 1170.0,-14.7 L 1171.1,-11.5 L 1168.6,-9.5 L 1150.7,-11.2 L 1123.9,-5.3 L 1115.3,-4.4 L 1100.6,1.1 L 1086.7,5.8 L 1083.2,9.4 L 1069.4,4.0 L 1044.4,10.1 L 1040.1,7.2 L 1030.8,10.5 L 1018.0,9.5 L 1014.9,14.6 L 1003.4,22.1 L 1003.7,25.3 L 1014.6,27.0 L 1013.4,38.3 L 1004.4,38.6 L 1000.3,45.1 L 1004.3,48.5 L 987.5,52.4 L 984.2,61.3 L 969.9,63.2 L 967.0,71.1 L 953.2,78.3 L 949.6,73.0 L 945.5,61.6 L 940.2,44.4 L 944.8,33.6 L 952.9,28.9 L 953.4,25.3 L 968.3,23.6 L 985.4,13.8 L 1002.0,5.8 L 1019.2,-0.4 L 1026.9,-11.4 L 1015.3,-10.7 L 1009.5,-4.3 L 985.2,4.2 L 977.3,-5.3 L 952.5,-2.7 L 928.5,10.3 L 936.4,15.1 L 915.0,17.1 L 900.2,17.9 L 900.8,12.3 L 885.9,11.1 L 874.0,14.9 L 844.7,13.6 L 813.1,15.9 L 782.0,31.1 L 745.2,49.4 L 760.3,50.4 L 765.1,55.3 L 774.4,57.0 L 780.5,53.1 L 791.1,53.6 L 804.9,62.2 L 805.2,68.8 L 797.7,76.6 L 796.9,85.8 L 792.6,98.3 L 778.1,109.5 L 774.9,114.9 L 761.9,124.0 L 748.9,132.9 L 742.7,137.5 L 730.0,142.1 L 723.9,142.2 L 717.9,138.4 L 705.0,144.1 L 703.5,146.7 L 703.5,146.7 L 703.5,146.7 L 703.5,146.7 L 702.1,145.3 L 702.1,145.3 L 702.1,141.4 L 707.0,141.2 L 708.4,132.0 L 705.8,125.3 L 714.1,122.6 L 725.7,124.0 L 732.2,116.4 L 735.5,107.9 L 739.2,105.0 L 744.3,98.0 L 728.4,100.3 L 720.1,103.4 L 705.5,103.4 L 701.6,96.1 L 690.2,90.5 L 673.5,88.1 L 670.0,80.4 L 666.6,75.7 L 663.0,72.3 L 657.1,64.5 L 648.7,61.6 L 634.3,59.3 L 621.6,59.5 L 609.6,60.9 L 601.7,64.8 L 607.0,66.6 L 607.1,70.9 L 601.7,73.4 L 593.1,81.7 L 593.2,85.1 L 579.6,90.0 L 568.1,87.1 L 556.7,87.7 L 551.6,85.1 L 545.9,84.3 L 531.8,89.7 L 519.2,91.0 L 510.4,93.0 L 498.3,91.7 L 489.4,91.8 L 483.5,87.8 L 474.1,84.1 L 464.5,83.0 L 452.4,84.1 L 443.3,85.5 L 429.7,82.2 L 427.8,76.4 L 416.5,74.4 L 407.8,73.5 L 397.1,70.3 L 387.1,78.3 L 391.0,82.9 L 381.7,88.3 L 367.8,86.4 L 358.2,86.1 L 351.8,82.5 L 341.8,82.3 L 333.5,80.0 L 318.9,83.6 L 300.5,90.3 L 290.4,91.7 L 286.7,92.3 L 281.6,87.5 L 269.2,88.6 L 265.1,85.3 L 258.4,83.8 L 253.8,79.3 L 248.5,77.9 L 234.7,79.9 L 221.5,75.4 L 216.3,79.5 L 194.9,59.7 L 182.6,53.7 L 186.2,51.3 L 162.1,58.6 L 152.9,59.1 L 153.7,54.8 L 141.4,52.2 L 131.3,54.1 L 128.3,46.0 L 111.1,44.3 L 102.4,47.6 L 78.4,50.4 L 73.7,52.3 L 37.8,55.0 L 33.4,57.7 L 40.3,63.0 L 31.1,65.1 L 32.9,67.2 L 23.7,71.0 L 39.2,76.3 L 36.8,80.0 L 23.4,79.6 L 20.6,82.0 L 8.3,77.9 L -6.9,78.1 L -17.1,81.4 L -28.5,78.2 L -49.6,72.8 L -64.6,73.0 L -84.5,81.5 L -85.7,87.2 L -95.5,82.7 L -103.2,91.2 L -100.4,92.8 L -105.9,98.7 L -97.8,104.0 L -90.7,103.7 L -84.5,108.9 L -85.5,112.9 L -80.6,114.2 Z M 348.3,-155.0 L 369.0,-156.8 L 387.7,-152.8 L 409.8,-145.3 L 407.4,-138.3 L 386.5,-137.4 L 359.7,-139.6 L 343.8,-142.6 L 336.4,-148.2 L 323.3,-149.7 L 348.3,-155.0 Z M 435.2,-141.5 L 459.6,-137.0 L 456.7,-133.9 L 402.6,-130.9 L 420.1,-141.1 L 428.0,-142.0 L 435.2,-141.5 Z M 780.8,-117.0 L 806.1,-116.7 L 840.8,-112.5 L 833.3,-106.8 L 797.9,-107.0 L 782.0,-105.1 L 763.0,-110.2 L 768.1,-115.5 L 780.8,-117.0 Z M 870.9,-110.9 L 895.0,-108.8 L 883.9,-105.8 L 868.6,-106.4 L 850.7,-109.5 L 853.0,-112.0 L 870.9,-110.9 Z M 790.7,-95.5 L 799.8,-98.6 L 811.8,-99.3 L 825.4,-96.3 L 826.6,-94.3 L 812.0,-94.2 L 792.4,-95.1 L 790.7,-95.5 Z M -121.5,-151.6 L -102.7,-153.0 L -88.1,-153.1 L -86.2,-151.0 L -80.7,-152.9 L -71.6,-154.2 L -57.4,-152.5 L -61.1,-151.3 L -74.0,-150.3 L -82.6,-149.7 L -84.0,-148.4 L -95.2,-147.1 L -105.6,-149.0 L -100.1,-151.4 L -121.5,-151.6 Z M -333.8,52.6 L -351.4,52.7 L -363.3,51.8 L -361.1,48.4 L -347.8,45.8 L -337.8,47.2 L -333.5,48.4 L -334.5,50.6 L -333.8,52.6 Z M -38.3,-98.4 L -15.3,-105.3 L -17.9,-108.8 L 3.5,-112.9 L 35.2,-117.9 L 67.2,-119.4 L 83.6,-122.2 L 102.3,-123.2 L 109.0,-120.2 L 102.5,-117.8 L 68.5,-113.9 L 39.2,-110.2 L 9.4,-102.8 L -4.9,-95.2 L -20.0,-87.7 L -18.0,-81.3 L 0.3,-74.9 L -5.3,-74.2 L -36.7,-75.2 L -39.2,-78.7 L -56.6,-80.8 L -58.0,-85.0 L -48.2,-86.6 L -48.5,-90.9 L -29.5,-97.5 L -38.3,-98.4 Z M 820.0,57.4 L 823.3,64.9 L 823.1,72.5 L 827.0,80.4 L 836.7,94.2 L 822.5,91.6 L 816.6,102.8 L 825.9,110.8 L 825.7,116.2 L 818.4,111.5 L 812.1,117.6 L 810.3,111.0 L 811.4,103.5 L 810.3,95.1 L 812.5,89.2 L 812.9,78.8 L 807.3,71.1 L 808.2,60.5 L 817.0,56.9 L 813.2,53.3 L 817.5,52.3 L 820.0,57.4 Z M -2231.3,-47.6 L -2232.1,-42.7 L -2225.7,-40.8 L -2227.9,-46.5 L -2201.8,-45.3 L -2183.0,-38.0 L -2192.6,-34.6 L -2208.3,-33.8 L -2208.5,-26.2 L -2212.4,-24.6 L -2221.4,-24.8 L -2228.7,-27.6 L -2241.4,-29.8 L -2243.6,-33.2 L -2253.3,-34.5 L -2264.3,-33.5 L -2269.5,-36.2 L -2267.4,-39.1 L -2278.9,-37.2 L -2274.6,-33.6 L -2280.0,-30.3 L -2280.0,-61.2 L -2256.5,-55.3 L -2231.3,-47.6 Z M -2267.5,-76.2 L -2280.0,-75.8 L -2280.0,-81.1 L -2278.8,-81.4 L -2270.6,-81.4 L -2256.7,-79.2 L -2257.6,-78.1 L -2267.5,-76.2 Z M -231.0,117.5 L -228.5,115.6 L -221.7,117.3 L -218.6,117.6 L -217.3,119.1 L -215.9,119.3 L -215.8,120.0 L -211.1,121.9 L -201.3,121.4 L -203.2,124.2 L -213.7,125.5 L -226.7,130.0 L -232.1,128.5 L -229.9,124.8 L -240.4,122.5 L -238.7,121.0 L -229.6,118.4 L -231.0,117.5 Z" fill="#E4E0D4" stroke="#B0A898" stroke-width="0.5" stroke-linejoin="round"/>
<path d="M 647.7,544.1 L 648.8,542.2 L 657.1,540.5 L 663.8,540.2 L 666.8,539.3 L 670.4,540.2 L 666.9,542.3 L 656.9,545.7 L 648.8,548.0 L 648.7,545.6 L 647.7,544.1 Z" fill="#E4E0D4" stroke="#B0A898" stroke-width="0.5" stroke-linejoin="round"/>
<path d="M -22.0,298.4 L -21.7,295.2 L -19.0,292.0 L -18.9,288.9 L -14.6,287.3 L -16.3,286.2 L -15.5,281.2 L -10.6,281.1 L -6.3,286.5 L -0.9,289.3 L 6.1,290.3 L 11.8,291.7 L 16.1,296.2 L 18.7,298.8 L 22.2,299.7 L 22.1,301.5 L 18.6,306.1 L 17.1,308.3 L 13.1,310.8 L 9.5,316.1 L 5.1,315.7 L 3.1,317.5 L 1.6,321.5 L 2.8,326.7 L 1.9,327.6 L -2.6,327.6 L -8.5,330.5 L -9.5,334.3 L -11.7,335.9 L -17.6,335.9 L -21.4,337.8 L -21.4,341.0 L -26.0,343.1 L -31.3,342.4 L -37.7,345.0 L -42.2,345.5 L -45.3,340.0 L -52.8,327.2 L -24.0,319.4 L -17.6,303.9 L -22.0,298.4 Z M -11.9,275.0 L -13.7,272.4 L -10.9,269.7 L -9.7,270.4 L -10.6,273.6 L -11.9,275.0 Z" fill="#E4E0D4" stroke="#B0A898" stroke-width="0.5" stroke-linejoin="round"/>
<path d="M 432.8,380.2 L 430.5,370.8 L 436.7,364.3 L 449.1,362.8 L 458.1,364.0 L 466.0,367.0 L 470.4,361.6 L 478.9,364.5 L 481.1,369.7 L 479.9,379.0 L 463.8,385.0 L 468.0,389.7 L 457.9,390.3 L 449.6,393.4 L 441.6,392.3 L 437.7,388.2 L 432.8,380.2 Z" fill="#E4E0D4" stroke="#B0A898" stroke-width="0.5" stroke-linejoin="round"/>
<path d="M 458.1,364.0 L 449.1,362.8 L 436.7,364.3 L 430.5,370.8 L 432.8,380.2 L 424.2,376.6 L 416.0,376.8 L 417.4,370.7 L 408.9,370.7 L 408.2,379.2 L 403.0,390.6 L 399.9,397.5 L 400.5,403.1 L 406.8,403.3 L 410.7,410.4 L 412.4,417.2 L 417.8,421.6 L 423.6,422.5 L 428.6,426.6 L 425.4,429.8 L 419.1,430.7 L 418.3,426.7 L 410.5,423.3 L 408.8,424.7 L 405.0,421.7 L 403.4,417.8 L 398.3,413.4 L 393.6,409.8 L 392.1,414.3 L 390.2,410.0 L 391.3,405.2 L 394.1,397.7 L 398.8,389.7 L 404.0,382.5 L 400.3,375.4 L 400.4,371.8 L 399.3,367.4 L 392.9,361.2 L 390.6,357.3 L 394.0,355.9 L 397.5,349.2 L 393.5,344.0 L 387.4,338.3 L 382.8,331.5 L 386.9,330.1 L 391.2,321.7 L 398.0,321.4 L 403.6,318.0 L 409.1,316.2 L 413.3,318.6 L 413.8,323.3 L 420.3,323.6 L 417.9,331.8 L 418.2,338.8 L 428.3,334.1 L 431.2,335.5 L 436.8,335.3 L 438.7,332.6 L 446.0,333.1 L 453.3,339.4 L 453.9,347.1 L 461.7,353.9 L 461.2,360.5 L 458.1,364.0 Z" fill="#E4E0D4" stroke="#B0A898" stroke-width="0.5" stroke-linejoin="round"/>
<path d="M 478.9,364.5 L 470.4,361.6 L 466.0,367.0 L 458.1,364.0 L 461.2,360.5 L 461.7,353.9 L 453.9,347.1 L 453.3,339.4 L 446.0,333.1 L 438.7,332.6 L 436.8,335.3 L 431.2,335.5 L 428.3,334.1 L 418.2,338.8 L 417.9,331.8 L 420.3,323.6 L 413.8,323.3 L 413.3,318.6 L 409.1,316.2 L 411.2,313.3 L 419.3,308.3 L 420.2,310.1 L 425.3,310.3 L 423.9,301.4 L 428.8,300.3 L 434.4,306.4 L 438.8,313.5 L 450.6,313.5 L 454.3,320.3 L 448.2,322.4 L 445.4,325.1 L 456.9,329.8 L 464.9,339.0 L 470.9,345.8 L 478.2,351.2 L 480.6,356.7 L 478.9,364.5 Z" fill="#E4E0D4" stroke="#B0A898" stroke-width="0.5" stroke-linejoin="round"/>
<path d="M 409.1,316.2 L 403.6,318.0 L 398.0,321.4 L 391.2,321.7 L 386.9,330.1 L 382.8,331.5 L 387.4,338.3 L 393.5,344.0 L 397.5,349.2 L 394.0,355.9 L 390.6,357.3 L 392.9,361.2 L 399.3,367.4 L 400.4,371.8 L 400.3,375.4 L 404.0,382.5 L 398.8,389.7 L 394.1,397.7 L 393.2,391.9 L 396.1,386.0 L 392.9,381.4 L 393.7,372.9 L 389.8,368.9 L 386.7,359.6 L 384.9,349.8 L 380.8,343.3 L 374.5,347.2 L 363.5,352.8 L 358.2,352.1 L 352.2,350.2 L 355.5,340.6 L 353.5,333.3 L 346.0,324.4 L 347.2,321.6 L 341.6,320.6 L 334.7,314.2 L 334.1,308.0 L 337.5,309.1 L 337.7,303.6 L 342.4,301.7 L 341.4,298.4 L 343.5,295.8 L 343.9,287.7 L 351.4,289.5 L 355.7,283.1 L 356.2,279.3 L 361.5,272.8 L 361.2,268.3 L 373.6,263.0 L 380.5,264.4 L 379.7,259.6 L 383.1,258.2 L 382.3,255.2 L 388.0,254.6 L 391.2,259.2 L 395.4,261.1 L 395.6,267.0 L 395.2,273.4 L 386.2,279.9 L 385.0,289.1 L 395.1,287.8 L 397.4,295.0 L 403.5,296.5 L 400.7,303.0 L 407.8,305.9 L 412.0,307.3 L 419.0,305.1 L 419.3,308.3 L 411.2,313.3 L 409.1,316.2 Z" fill="#E4E0D4" stroke="#B0A898" stroke-width="0.5" stroke-linejoin="round"/>
<path d="M 449.6,393.4 L 457.9,390.3 L 468.0,389.7 L 463.8,385.0 L 479.9,379.0 L 481.1,369.7 L 478.9,364.5 L 480.6,356.7 L 478.2,351.2 L 470.9,345.8 L 464.9,339.0 L 456.9,329.8 L 445.4,325.1 L 448.2,322.4 L 454.3,320.3 L 450.6,313.5 L 438.8,313.5 L 434.4,306.4 L 428.8,300.3 L 434.0,298.4 L 441.6,298.4 L 451.0,297.5 L 459.2,293.4 L 463.8,296.3 L 472.6,297.7 L 471.0,302.2 L 475.6,305.3 L 485.3,307.4 L 472.5,314.0 L 464.5,321.4 L 462.4,326.8 L 469.7,335.0 L 478.7,345.1 L 487.4,349.9 L 493.2,356.2 L 497.6,370.5 L 496.3,384.2 L 488.3,389.3 L 477.3,394.3 L 469.5,400.8 L 457.5,408.1 L 454.0,403.1 L 456.7,397.8 L 449.6,393.4 Z" fill="#E4E0D4" stroke="#B0A898" stroke-width="0.5" stroke-linejoin="round"/>
<path d="M 703.5,146.7 L 703.5,146.7 L 703.5,146.7 L 703.5,146.7 Z M 702.1,145.3 L 702.1,145.3 L 703.5,146.7 L 699.8,146.2 L 695.7,148.9 L 692.8,151.5 L 693.2,157.1 L 688.2,158.8 L 686.5,160.2 L 682.9,162.5 L 676.5,163.7 L 672.3,165.8 L 672.0,169.2 L 670.9,170.1 L 674.7,171.3 L 680.2,174.7 L 678.8,176.6 L 674.7,177.1 L 667.9,177.5 L 664.2,181.0 L 659.9,180.7 L 659.3,181.4 L 654.6,180.0 L 653.5,181.4 L 650.6,182.1 L 650.3,180.6 L 647.8,179.9 L 645.2,178.7 L 647.9,175.2 L 650.1,174.3 L 649.3,172.9 L 651.7,168.7 L 651.1,167.4 L 645.5,166.6 L 641.0,164.5 L 648.8,159.5 L 659.3,155.3 L 665.9,149.8 L 670.5,152.3 L 678.8,152.5 L 677.3,148.4 L 692.1,145.1 L 695.9,140.7 L 702.1,145.3 Z" fill="#E4E0D4" stroke="#B0A898" stroke-width="0.5" stroke-linejoin="round"/>
<path d="M 659.3,181.4 L 659.9,180.7 L 664.2,181.0 L 667.9,177.5 L 674.7,177.1 L 678.8,176.6 L 680.2,174.7 L 688.4,183.9 L 690.8,188.9 L 690.9,197.9 L 687.3,202.2 L 678.6,203.7 L 670.9,206.9 L 662.3,207.6 L 661.2,203.3 L 663.0,197.5 L 658.7,189.4 L 665.9,188.1 L 659.3,181.4 Z" fill="#C8DEC8" stroke="#B0A898" stroke-width="0.5" stroke-linejoin="round"/>
<path d="M 290.4,91.7 L 300.5,90.3 L 318.9,83.6 L 333.5,80.0 L 341.8,82.3 L 351.8,82.5 L 358.2,86.1 L 367.8,86.4 L 381.7,88.3 L 391.0,82.9 L 387.1,78.3 L 397.1,70.3 L 407.8,73.5 L 416.5,74.4 L 427.8,76.4 L 429.7,82.2 L 443.3,85.5 L 452.4,84.1 L 464.5,83.0 L 474.1,84.1 L 483.5,87.8 L 489.4,91.8 L 498.3,91.7 L 510.4,93.0 L 519.2,91.0 L 531.8,89.7 L 545.9,84.3 L 551.6,85.1 L 556.7,87.7 L 568.1,87.1 L 563.4,92.9 L 556.7,100.7 L 559.1,103.9 L 564.6,102.9 L 574.0,104.1 L 581.4,101.2 L 589.1,103.7 L 597.8,109.1 L 596.8,111.9 L 589.2,111.0 L 575.2,112.1 L 568.5,114.3 L 561.5,119.4 L 546.8,122.4 L 537.3,126.6 L 527.4,125.0 L 522.0,124.3 L 516.9,129.3 L 520.0,132.3 L 521.6,134.8 L 514.8,137.5 L 508.0,141.6 L 496.7,144.4 L 482.3,144.7 L 466.8,147.4 L 455.7,151.5 L 451.4,149.1 L 439.8,149.1 L 425.6,144.4 L 416.1,143.2 L 403.4,144.3 L 383.5,142.6 L 373.0,142.8 L 367.3,138.1 L 362.9,131.0 L 357.0,130.1 L 345.4,125.3 L 332.5,124.2 L 321.1,122.8 L 317.6,119.5 L 321.3,110.4 L 314.7,104.1 L 301.0,101.2 L 292.9,97.1 L 290.4,91.7 Z" fill="#E4E0D4" stroke="#B0A898" stroke-width="0.5" stroke-linejoin="round"/>
<path d="M 382.3,255.2 L 383.1,258.2 L 379.7,259.6 L 380.5,264.4 L 373.6,263.0 L 361.2,268.3 L 361.5,272.8 L 356.2,279.3 L 355.7,283.1 L 351.4,289.5 L 343.9,287.7 L 343.5,295.8 L 341.4,298.4 L 342.4,301.7 L 337.7,303.6 L 332.6,291.2 L 330.0,291.3 L 328.4,296.2 L 323.1,292.2 L 326.1,287.8 L 330.4,287.3 L 334.8,280.7 L 329.3,279.4 L 320.4,279.5 L 311.2,278.5 L 310.4,273.1 L 305.8,272.7 L 298.2,269.3 L 294.8,274.6 L 301.7,278.7 L 295.7,281.6 L 293.6,284.4 L 299.5,286.5 L 297.9,291.2 L 301.2,297.1 L 302.7,303.5 L 301.3,306.3 L 294.8,306.2 L 283.0,307.8 L 283.5,313.7 L 278.4,318.3 L 264.6,323.5 L 253.8,332.6 L 246.6,337.5 L 237.1,342.6 L 237.0,346.2 L 232.3,348.1 L 223.6,350.9 L 219.1,351.3 L 216.2,357.2 L 218.2,367.4 L 218.7,373.8 L 214.7,381.2 L 214.6,394.4 L 209.7,394.8 L 205.3,400.7 L 208.2,403.3 L 199.5,405.5 L 196.2,410.8 L 192.4,413.0 L 183.3,405.7 L 178.8,394.9 L 175.2,387.0 L 171.8,383.3 L 166.7,375.9 L 164.3,366.1 L 162.7,361.3 L 153.9,350.6 L 150.0,335.5 L 147.1,325.6 L 147.1,316.2 L 145.3,308.9 L 131.3,313.5 L 124.5,312.6 L 112.0,303.2 L 116.6,300.4 L 113.8,297.3 L 102.5,290.7 L 108.9,285.5 L 130.0,285.6 L 128.1,278.9 L 122.7,274.9 L 121.6,269.0 L 115.3,265.5 L 125.9,257.3 L 137.1,257.9 L 147.1,249.8 L 153.1,241.9 L 162.4,234.1 L 162.3,228.5 L 170.5,224.0 L 162.7,220.2 L 159.4,214.9 L 156.0,208.1 L 160.7,204.8 L 175.3,206.7 L 186.0,205.5 L 195.2,199.0 L 205.6,208.1 L 204.6,214.4 L 208.4,218.4 L 208.1,222.4 L 201.2,221.3 L 203.9,229.9 L 213.3,234.8 L 226.7,240.3 L 220.6,243.8 L 216.8,251.1 L 226.1,254.0 L 235.2,257.8 L 247.7,262.2 L 260.9,263.2 L 266.4,267.1 L 273.8,267.9 L 285.4,269.7 L 293.4,269.6 L 294.5,266.5 L 293.2,261.5 L 294.0,258.2 L 299.8,256.6 L 300.6,262.7 L 300.8,264.2 L 309.5,267.2 L 315.6,266.0 L 323.7,266.5 L 331.5,266.3 L 332.2,261.5 L 328.3,259.0 L 336.0,258.0 L 344.8,252.3 L 355.8,247.3 L 363.9,249.2 L 370.7,245.9 L 375.2,250.8 L 372.0,254.0 L 382.3,255.2 Z" fill="#C8DEC8" stroke="#B0A898" stroke-width="0.5" stroke-linejoin="round"/>
<path d="M 337.7,303.6 L 337.5,309.1 L 334.1,308.0 L 334.7,314.2 L 332.0,310.2 L 331.4,306.2 L 329.6,302.5 L 325.6,297.9 L 316.8,297.6 L 317.6,300.8 L 314.6,305.2 L 310.5,303.6 L 309.1,305.0 L 306.4,304.2 L 302.7,303.5 L 301.2,297.1 L 297.9,291.2 L 299.5,286.5 L 293.6,284.4 L 295.7,281.6 L 301.7,278.7 L 294.8,274.6 L 298.2,269.3 L 305.8,272.7 L 310.4,273.1 L 311.2,278.5 L 320.4,279.5 L 329.3,279.4 L 334.8,280.7 L 330.4,287.3 L 326.1,287.8 L 323.1,292.2 L 328.4,296.2 L 330.0,291.3 L 332.6,291.2 L 337.7,303.6 Z" fill="#E4E0D4" stroke="#B0A898" stroke-width="0.5" stroke-linejoin="round"/>
<path d="M 328.3,259.0 L 332.2,261.5 L 331.5,266.3 L 323.7,266.5 L 315.6,266.0 L 309.5,267.2 L 300.8,264.2 L 300.6,262.7 L 307.0,256.9 L 312.2,254.9 L 319.0,256.7 L 324.1,256.9 L 328.3,259.0 Z" fill="#E4E0D4" stroke="#B0A898" stroke-width="0.5" stroke-linejoin="round"/>
<path d="M 294.0,258.2 L 293.2,261.5 L 294.5,266.5 L 293.4,269.6 L 285.4,269.7 L 273.8,267.9 L 266.4,267.1 L 260.9,263.2 L 247.7,262.2 L 235.2,257.8 L 226.1,254.0 L 216.8,251.1 L 220.6,243.8 L 226.7,240.3 L 230.6,238.4 L 238.3,240.8 L 248.0,245.9 L 253.4,247.0 L 256.7,250.7 L 264.1,252.2 L 271.9,255.7 L 282.8,257.4 L 294.0,258.2 Z" fill="#E4E0D4" stroke="#B0A898" stroke-width="0.5" stroke-linejoin="round"/>
<path d="M 195.2,199.0 L 186.0,205.5 L 175.3,206.7 L 160.7,204.8 L 156.0,208.1 L 159.4,214.9 L 162.7,220.2 L 170.5,224.0 L 162.3,228.5 L 162.4,234.1 L 153.1,241.9 L 147.1,249.8 L 137.1,257.9 L 125.9,257.3 L 115.3,265.5 L 121.6,269.0 L 122.7,274.9 L 128.1,278.9 L 130.0,285.6 L 108.9,285.5 L 102.5,290.7 L 95.5,288.8 L 92.6,283.2 L 85.2,277.3 L 67.5,278.7 L 51.9,278.9 L 38.4,280.0 L 42.0,270.9 L 55.8,266.9 L 55.0,263.3 L 50.5,262.1 L 50.2,255.2 L 41.0,251.8 L 37.1,247.1 L 32.4,243.0 L 48.5,247.0 L 58.1,245.8 L 63.8,246.8 L 65.8,245.1 L 72.4,245.8 L 84.9,242.6 L 85.3,235.9 L 90.6,231.5 L 97.8,231.6 L 98.8,229.4 L 106.1,228.4 L 109.7,229.1 L 113.5,226.9 L 112.9,222.2 L 117.0,217.5 L 123.1,215.6 L 119.3,210.4 L 128.5,210.7 L 131.1,207.9 L 130.7,204.9 L 135.5,201.6 L 134.4,197.8 L 132.1,194.5 L 137.7,191.1 L 148.0,189.4 L 159.0,188.5 L 163.9,187.1 L 169.5,186.2 L 176.6,189.9 L 179.5,195.8 L 195.2,199.0 Z" fill="#E4E0D4" stroke="#B0A898" stroke-width="0.5" stroke-linejoin="round"/>
<path d="M 86.6,184.4 L 91.9,184.5 L 99.2,186.1 L 102.1,187.1 L 109.1,184.6 L 112.3,186.1 L 115.4,182.5 L 121.1,182.7 L 122.6,181.6 L 123.6,178.4 L 127.7,175.7 L 132.9,177.5 L 131.9,179.9 L 134.8,180.2 L 133.9,186.8 L 137.7,189.3 L 141.1,187.7 L 145.3,186.9 L 151.3,183.4 L 157.9,184.0 L 167.8,184.0 L 169.5,186.2 L 163.9,187.1 L 159.0,188.5 L 148.0,189.4 L 137.7,191.1 L 132.1,194.5 L 134.4,197.8 L 135.5,201.6 L 130.7,204.9 L 131.1,207.9 L 128.5,210.7 L 119.3,210.4 L 123.1,215.6 L 117.0,217.5 L 112.9,222.2 L 113.5,226.9 L 109.7,229.1 L 106.1,228.4 L 98.8,229.4 L 97.8,231.6 L 90.6,231.5 L 85.3,235.9 L 84.9,242.6 L 72.4,245.8 L 65.8,245.1 L 63.8,246.8 L 58.1,245.8 L 48.5,247.0 L 32.4,243.0 L 41.1,236.0 L 40.3,231.0 L 33.0,229.7 L 32.3,224.7 L 29.1,218.5 L 33.3,214.3 L 29.1,213.1 L 31.7,207.4 L 35.6,197.8 L 45.4,200.7 L 52.7,199.7 L 54.7,196.2 L 62.2,195.0 L 67.6,192.6 L 69.6,186.4 L 77.7,184.9 L 79.2,182.1 L 83.7,184.2 L 86.6,184.4 Z" fill="#E4E0D4" stroke="#B0A898" stroke-width="0.5" stroke-linejoin="round"/>
<path d="M 99.2,186.1 L 104.6,178.3 L 102.5,172.5 L 95.4,170.6 L 97.9,167.2 L 105.9,167.6 L 110.5,163.3 L 113.6,158.3 L 126.4,156.5 L 124.4,160.1 L 125.8,162.2 L 129.7,162.0 L 126.2,164.4 L 115.8,163.1 L 114.9,167.6 L 125.3,167.0 L 137.1,169.5 L 155.3,168.4 L 157.7,175.6 L 160.9,174.8 L 166.7,176.5 L 166.4,179.6 L 167.8,184.0 L 157.9,184.0 L 151.3,183.4 L 145.3,186.9 L 141.1,187.7 L 137.7,189.3 L 133.9,186.8 L 134.8,180.2 L 131.9,179.9 L 132.9,177.5 L 127.7,175.7 L 123.6,178.4 L 122.6,181.6 L 121.1,182.7 L 115.4,182.5 L 112.3,186.1 L 109.1,184.6 L 102.1,187.1 L 99.2,186.1 Z" fill="#E4E0D4" stroke="#B0A898" stroke-width="0.5" stroke-linejoin="round"/>
<path d="M 129.2,146.3 L 131.4,142.9 L 137.7,141.8 L 153.5,144.5 L 155.0,139.9 L 160.4,138.3 L 174.1,141.6 L 177.6,140.7 L 193.5,140.9 L 207.8,141.7 L 212.6,144.5 L 218.5,145.7 L 217.1,147.4 L 202.0,151.6 L 198.6,154.7 L 186.3,155.7 L 182.7,160.6 L 172.5,159.6 L 165.9,161.1 L 156.7,164.8 L 158.0,166.6 L 155.3,168.4 L 137.1,169.5 L 125.3,167.0 L 114.9,167.6 L 115.8,163.1 L 126.2,164.4 L 129.7,162.0 L 137.0,162.8 L 149.3,157.2 L 138.0,153.1 L 131.1,155.1 L 124.0,152.1 L 132.1,147.1 L 129.2,146.3 Z" fill="#E4E0D4" stroke="#B0A898" stroke-width="0.5" stroke-linejoin="round"/>
<path d="M -48.0,150.1 L -43.7,147.5 L -32.8,145.9 L -26.3,148.1 L -19.6,154.1 L -14.7,153.8 L -3.9,153.7 L -5.5,149.7 L 2.8,147.1 L 10.8,142.6 L 23.8,146.7 L 24.8,152.9 L 28.5,154.5 L 38.9,154.1 L 42.1,155.5 L 46.8,163.5 L 57.8,168.9 L 64.0,172.6 L 74.1,176.4 L 86.8,179.7 L 86.6,184.4 L 83.7,184.2 L 79.2,182.1 L 77.7,184.9 L 69.6,186.4 L 67.6,192.6 L 62.2,195.0 L 54.7,196.2 L 52.7,199.7 L 45.4,200.7 L 35.6,197.8 L 34.8,191.2 L 27.6,190.9 L 16.7,184.1 L 9.0,183.2 L -1.6,179.3 L -8.5,178.5 L -12.7,180.0 L -19.1,179.8 L -25.9,184.2 L -34.4,185.7 L -36.1,180.2 L -34.7,172.1 L -42.2,169.5 L -39.8,164.1 L -46.1,163.7 L -44.0,157.1 L -35.0,159.0 L -26.5,156.5 L -33.5,151.9 L -36.3,147.4 L -44.0,149.4 L -45.0,155.1 L -48.0,150.1 Z" fill="#E4E0D4" stroke="#B0A898" stroke-width="0.5" stroke-linejoin="round"/>
<path d="M -85.7,242.3 L -91.1,238.2 L -91.2,234.0 L -94.2,234.0 L -92.6,228.4 L -97.6,222.5 L -109.4,218.2 L -116.0,210.8 L -113.8,204.8 L -108.9,202.1 L -109.7,197.6 L -116.0,195.2 L -122.2,185.9 L -122.2,185.9 L -127.4,179.7 L -125.6,177.3 L -128.6,168.4 L -122.0,166.2 L -120.5,169.1 L -115.6,172.7 L -109.0,173.7 L -105.5,173.5 L -94.2,167.8 L -90.6,167.2 L -87.8,169.5 L -91.1,173.3 L -85.1,177.4 L -82.7,177.0 L -79.7,182.7 L -70.6,184.4 L -63.9,188.3 L -50.3,189.6 L -35.3,187.5 L -34.4,185.7 L -25.9,184.2 L -19.1,179.8 L -12.7,180.0 L -8.5,178.5 L -1.6,179.3 L 9.0,183.2 L 16.7,184.1 L 27.6,190.9 L 34.8,191.2 L 35.6,197.8 L 31.7,207.4 L 29.1,213.1 L 33.3,214.3 L 29.1,218.5 L 32.3,224.7 L 33.0,229.7 L 40.3,231.0 L 41.1,236.0 L 32.4,243.0 L 37.1,247.1 L 41.0,251.8 L 50.2,255.2 L 50.5,262.1 L 55.0,263.3 L 55.8,266.9 L 42.0,270.9 L 38.4,280.0 L 20.3,277.6 L 9.8,275.8 L -1.0,274.8 L -5.1,265.3 L -9.7,263.9 L -17.1,265.3 L -26.7,269.1 L -38.5,266.5 L -48.2,260.5 L -57.4,258.3 L -63.8,250.9 L -70.9,240.5 L -76.1,241.8 L -82.2,239.2 L -85.7,242.3 Z" fill="#E4E0D4" stroke="#B0A898" stroke-width="0.5" stroke-linejoin="round"/>
<path d="M 1004.3,556.4 L 1007.0,559.1 L 1000.3,559.1 L 996.7,554.3 L 1002.4,556.1 L 1004.3,556.4 Z M 1000.1,549.6 L 998.7,551.0 L 991.6,544.3 L 989.6,539.6 L 992.8,539.6 L 996.3,545.8 L 1000.1,549.6 Z M 992.2,551.7 L 988.4,551.9 L 982.6,551.1 L 980.5,549.9 L 981.1,546.8 L 987.5,548.0 L 990.6,549.6 L 992.2,551.7 Z M 980.5,537.3 L 982.8,539.7 L 983.2,541.3 L 975.7,538.0 L 970.4,535.2 L 966.8,532.6 L 968.3,531.8 L 972.7,533.7 L 980.5,537.3 Z M 956.5,529.5 L 960.4,532.1 L 958.5,532.5 L 954.3,530.7 L 950.3,527.5 L 950.8,526.2 L 956.5,529.5 Z" fill="#E4E0D4" stroke="#B0A898" stroke-width="0.5" stroke-linejoin="round"/>
<path d="M 865.8,792.2 L 871.6,792.7 L 872.3,802.0 L 869.0,804.6 L 868.0,810.9 L 864.6,808.8 L 858.0,814.2 L 856.0,813.8 L 850.1,813.5 L 844.1,806.9 L 842.8,801.7 L 837.3,795.0 L 837.5,791.4 L 843.8,792.1 L 853.1,794.8 L 858.3,793.7 L 865.8,792.2 Z M 659.0,725.4 L 648.9,729.4 L 640.5,731.2 L 638.7,735.3 L 635.1,738.4 L 627.0,738.6 L 621.0,739.3 L 612.5,737.9 L 605.6,738.7 L 599.0,739.1 L 593.3,743.2 L 590.5,742.9 L 585.7,745.1 L 581.0,747.5 L 574.0,747.2 L 567.6,747.2 L 557.4,742.3 L 552.3,740.8 L 552.5,736.3 L 557.2,735.3 L 558.9,733.5 L 558.5,730.7 L 559.7,725.3 L 558.6,720.7 L 553.5,712.8 L 552.0,708.4 L 552.4,704.0 L 548.6,698.9 L 548.3,696.6 L 544.1,693.5 L 542.9,687.4 L 537.4,681.3 L 536.1,678.0 L 540.3,681.3 L 537.0,674.1 L 541.8,676.4 L 544.6,679.4 L 544.5,675.4 L 539.7,669.3 L 538.8,666.8 L 536.6,664.5 L 537.6,660.0 L 539.6,658.1 L 540.9,654.2 L 539.9,649.7 L 543.8,644.1 L 544.6,650.0 L 548.6,644.6 L 556.4,642.0 L 561.1,638.7 L 568.4,635.9 L 572.8,635.3 L 575.4,636.2 L 583.0,633.3 L 588.8,632.5 L 590.3,630.8 L 592.8,630.1 L 598.1,630.2 L 608.2,628.0 L 613.4,624.5 L 615.9,620.4 L 621.5,616.4 L 622.0,613.3 L 622.2,609.1 L 628.9,602.5 L 633.0,609.2 L 637.0,607.6 L 633.6,604.0 L 636.6,600.2 L 640.9,601.9 L 642.0,596.0 L 647.3,592.1 L 649.6,589.1 L 654.4,587.7 L 654.6,585.6 L 658.8,586.5 L 659.0,584.5 L 663.2,583.4 L 667.8,582.4 L 674.9,585.9 L 680.3,590.5 L 686.3,590.6 L 692.4,591.3 L 690.3,587.0 L 694.9,580.8 L 699.3,578.8 L 697.8,576.8 L 701.9,572.4 L 707.7,569.7 L 712.7,570.6 L 720.7,569.1 L 720.5,565.1 L 713.5,562.6 L 718.6,561.4 L 725.0,563.4 L 730.1,566.6 L 738.2,568.6 L 740.9,567.8 L 746.9,570.2 L 752.5,567.9 L 756.1,568.6 L 758.3,567.1 L 762.7,571.0 L 760.2,575.1 L 756.5,578.3 L 753.2,578.5 L 754.3,581.6 L 751.5,585.5 L 748.1,589.3 L 748.8,591.5 L 756.4,595.8 L 763.8,598.3 L 768.8,601.0 L 775.7,605.6 L 778.4,605.6 L 783.4,607.6 L 784.9,610.0 L 794.1,612.6 L 800.4,610.0 L 802.3,605.8 L 804.2,602.3 L 805.4,598.1 L 808.3,591.9 L 807.0,588.1 L 807.7,585.9 L 806.6,581.4 L 807.8,575.6 L 809.7,574.0 L 808.2,571.4 L 810.5,567.3 L 812.3,563.0 L 812.6,560.8 L 816.1,557.9 L 818.9,561.7 L 819.5,566.6 L 821.9,567.5 L 822.3,570.8 L 825.8,574.7 L 826.5,579.1 L 826.2,581.9 L 829.7,588.0 L 835.8,585.1 L 839.0,588.4 L 843.6,591.4 L 842.6,594.9 L 844.7,601.5 L 846.1,605.4 L 848.5,606.4 L 851.1,613.0 L 850.2,617.1 L 853.3,622.3 L 863.7,626.4 L 870.5,630.1 L 876.9,633.5 L 875.7,635.3 L 881.2,640.2 L 884.9,648.6 L 888.7,646.9 L 892.6,650.3 L 895.0,649.1 L 896.6,657.3 L 903.4,662.1 L 907.9,665.1 L 915.4,671.4 L 918.1,677.6 L 918.4,682.1 L 917.7,686.9 L 922.3,693.5 L 921.7,700.4 L 920.1,704.0 L 917.5,710.9 L 917.7,715.4 L 915.8,720.9 L 911.5,728.0 L 904.4,731.8 L 900.9,737.8 L 897.7,741.7 L 894.9,748.4 L 891.2,752.3 L 888.7,758.1 L 887.5,763.4 L 888.0,765.9 L 882.5,768.6 L 871.7,768.9 L 862.9,772.1 L 858.5,775.1 L 852.7,778.4 L 844.7,775.0 L 838.8,773.6 L 840.3,769.6 L 835.1,771.0 L 826.7,776.7 L 818.4,774.6 L 812.9,773.3 L 807.4,772.8 L 798.1,770.5 L 791.9,765.7 L 790.1,759.8 L 787.9,755.9 L 783.2,752.7 L 774.0,751.8 L 777.1,748.0 L 774.8,742.3 L 770.1,747.6 L 761.6,749.1 L 766.6,744.8 L 768.0,740.3 L 771.7,736.5 L 771.0,730.7 L 763.2,737.3 L 757.2,740.0 L 753.5,746.2 L 746.0,743.0 L 746.3,738.9 L 740.3,733.2 L 735.2,730.3 L 737.0,728.5 L 724.7,723.8 L 718.0,723.6 L 708.7,719.8 L 691.5,720.5 L 679.1,723.3 L 668.2,725.9 L 659.0,725.4 Z" fill="#E4E0D4" stroke="#B0A898" stroke-width="0.5" stroke-linejoin="round"/>
<path d="M 233.2,416.4 L 231.7,424.5 L 227.7,426.7 L 219.3,428.5 L 214.8,422.3 L 213.1,411.2 L 217.4,398.6 L 224.1,402.9 L 228.5,408.3 L 233.2,416.4 Z" fill="#E4E0D4" stroke="#B0A898" stroke-width="0.5" stroke-linejoin="round"/>
<path d="M 499.0,333.4 L 491.1,331.0 L 490.8,324.4 L 495.5,320.8 L 506.0,318.6 L 511.6,318.8 L 513.7,321.8 L 509.5,325.2 L 507.3,329.7 L 499.0,333.4 Z M 218.5,145.7 L 217.7,141.2 L 224.3,139.2 L 215.7,125.7 L 234.7,122.6 L 239.6,120.9 L 246.5,107.0 L 265.6,109.5 L 270.9,106.0 L 271.4,98.2 L 279.3,97.5 L 286.7,92.3 L 290.4,91.7 L 292.9,97.1 L 301.0,101.2 L 314.7,104.1 L 321.3,110.4 L 317.6,119.5 L 321.1,122.8 L 332.5,124.2 L 345.4,125.3 L 357.0,130.1 L 362.9,131.0 L 367.3,138.1 L 373.0,142.8 L 383.5,142.6 L 403.4,144.3 L 416.1,143.2 L 425.6,144.4 L 439.8,149.1 L 451.4,149.1 L 455.7,151.5 L 466.8,147.4 L 482.3,144.7 L 496.7,144.4 L 508.0,141.6 L 514.8,137.5 L 521.6,134.8 L 520.0,132.3 L 516.9,129.3 L 522.0,124.3 L 527.4,125.0 L 537.3,126.6 L 546.8,122.4 L 561.5,119.4 L 568.5,114.3 L 575.2,112.1 L 589.2,111.0 L 596.8,111.9 L 597.8,109.1 L 589.1,103.7 L 581.4,101.2 L 574.0,104.1 L 564.6,102.9 L 559.1,103.9 L 556.7,100.7 L 563.4,92.9 L 568.1,87.1 L 579.6,90.0 L 593.2,85.1 L 593.1,81.7 L 601.7,73.4 L 607.1,70.9 L 607.0,66.6 L 601.7,64.8 L 609.6,60.9 L 621.6,59.5 L 634.3,59.3 L 648.7,61.6 L 657.1,64.5 L 663.0,72.3 L 666.6,75.7 L 670.0,80.4 L 673.5,88.1 L 690.2,90.5 L 701.6,96.1 L 705.5,103.4 L 720.1,103.4 L 728.4,100.3 L 744.3,98.0 L 739.2,105.0 L 735.5,107.9 L 732.2,116.4 L 725.7,124.0 L 714.1,122.6 L 705.8,125.3 L 708.4,132.0 L 707.0,141.2 L 702.1,141.4 L 702.1,145.3 L 695.9,140.7 L 692.1,145.1 L 677.3,148.4 L 678.8,152.5 L 670.5,152.3 L 665.9,149.8 L 659.3,155.3 L 648.8,159.5 L 641.0,164.5 L 627.5,166.8 L 620.5,170.4 L 610.1,172.5 L 615.2,168.9 L 613.2,165.9 L 620.8,160.7 L 615.7,156.6 L 607.4,159.3 L 596.5,164.7 L 590.6,169.8 L 581.2,170.1 L 576.3,173.8 L 581.4,179.0 L 589.2,180.3 L 589.6,183.8 L 597.1,186.1 L 607.9,180.5 L 616.4,183.5 L 622.6,183.7 L 624.2,187.8 L 610.6,190.0 L 606.1,194.2 L 596.8,198.1 L 591.9,203.5 L 602.2,207.8 L 606.0,215.4 L 611.8,222.6 L 618.3,228.5 L 618.2,234.3 L 612.1,236.4 L 614.4,240.6 L 620.1,243.0 L 618.6,249.3 L 616.2,255.5 L 610.8,256.2 L 603.8,264.6 L 596.0,274.8 L 587.1,284.1 L 573.9,291.3 L 560.6,297.8 L 549.7,298.7 L 543.9,302.1 L 540.5,299.6 L 535.1,303.5 L 521.7,307.4 L 511.5,308.6 L 508.3,316.8 L 502.9,317.2 L 500.4,311.6 L 502.7,308.6 L 489.8,306.1 L 485.3,307.4 L 475.6,305.3 L 471.0,302.2 L 472.6,297.7 L 463.8,296.3 L 459.2,293.4 L 451.0,297.5 L 441.6,298.4 L 434.0,298.4 L 428.8,300.3 L 423.9,301.4 L 425.3,310.3 L 420.2,310.1 L 419.3,308.3 L 419.0,305.1 L 412.0,307.3 L 407.8,305.9 L 400.7,303.0 L 403.5,296.5 L 397.4,295.0 L 395.1,287.8 L 385.0,289.1 L 386.2,279.9 L 395.2,273.4 L 395.6,267.0 L 395.4,261.1 L 391.2,259.2 L 388.0,254.6 L 382.3,255.2 L 372.0,254.0 L 375.2,250.8 L 370.7,245.9 L 363.9,249.2 L 355.8,247.3 L 344.8,252.3 L 336.0,258.0 L 328.3,259.0 L 324.1,256.9 L 319.0,256.7 L 312.2,254.9 L 307.0,256.9 L 300.6,262.7 L 299.8,256.6 L 294.0,258.2 L 282.8,257.4 L 271.9,255.7 L 264.1,252.2 L 256.7,250.7 L 253.4,247.0 L 248.0,245.9 L 238.3,240.8 L 230.6,238.4 L 226.7,240.3 L 213.3,234.8 L 203.9,229.9 L 201.2,221.3 L 208.1,222.4 L 208.4,218.4 L 204.6,214.4 L 205.6,208.1 L 195.2,199.0 L 179.5,195.8 L 176.6,189.9 L 169.5,186.2 L 167.8,184.0 L 166.4,179.6 L 166.7,176.5 L 160.9,174.8 L 157.7,175.6 L 155.3,168.4 L 158.0,166.6 L 156.7,164.8 L 165.9,161.1 L 172.5,159.6 L 182.7,160.6 L 186.3,155.7 L 198.6,154.7 L 202.0,151.6 L 217.1,147.4 L 218.5,145.7 Z" fill="#C8DEC8" stroke="#B0A898" stroke-width="0.5" stroke-linejoin="round"/>
<path d="M 617.1,285.3 L 611.3,297.7 L 607.2,304.1 L 602.1,297.6 L 601.0,291.8 L 606.7,284.2 L 614.4,278.3 L 618.7,280.6 L 617.1,285.3 Z" fill="#E4E0D4" stroke="#B0A898" stroke-width="0.5" stroke-linejoin="round"/>
<path d="M 608.0,376.2 L 603.1,370.2 L 611.3,370.5 L 614.7,373.3 L 612.1,380.0 L 608.0,376.2 Z M 624.8,397.3 L 627.2,395.2 L 628.3,390.3 L 633.6,389.9 L 632.0,395.1 L 639.1,387.6 L 638.2,395.0 L 634.8,397.6 L 631.8,402.5 L 628.8,404.8 L 622.8,399.4 L 624.8,397.3 Z M 661.2,409.5 L 662.2,414.7 L 662.8,419.0 L 659.5,426.1 L 656.0,418.2 L 651.5,422.2 L 654.6,427.9 L 651.8,431.5 L 640.5,427.0 L 637.8,421.4 L 640.7,417.7 L 634.7,414.0 L 631.6,417.3 L 627.1,417.0 L 620.0,421.3 L 618.4,419.0 L 622.2,412.5 L 628.2,410.3 L 633.5,407.3 L 636.9,410.9 L 644.2,408.7 L 645.7,405.3 L 652.5,405.1 L 652.0,399.0 L 659.7,402.7 L 660.5,406.6 L 661.2,409.5 Z M 585.6,402.5 L 572.9,409.9 L 577.6,404.4 L 584.5,399.6 L 590.3,394.3 L 595.3,386.5 L 597.0,392.9 L 590.7,397.2 L 585.6,402.5 Z M 622.4,333.2 L 620.9,336.5 L 624.2,342.0 L 621.6,348.5 L 616.0,351.1 L 614.4,357.3 L 616.6,363.5 L 621.7,364.4 L 625.9,363.5 L 637.9,367.8 L 637.0,372.0 L 640.1,373.9 L 639.1,377.5 L 631.7,373.6 L 628.1,369.6 L 625.6,372.4 L 619.5,367.8 L 610.8,368.9 L 606.0,367.2 L 606.5,364.0 L 609.5,362.0 L 606.7,360.2 L 605.4,363.0 L 600.7,358.5 L 599.2,355.2 L 598.9,347.7 L 602.8,350.3 L 603.7,338.1 L 606.9,331.1 L 612.7,331.1 L 618.6,333.3 L 621.6,331.3 L 622.4,333.2 Z M 619.6,386.2 L 618.1,382.5 L 623.8,384.9 L 630.0,384.9 L 629.8,388.1 L 625.3,391.4 L 619.2,393.8 L 618.9,390.1 L 619.6,386.2 Z M 652.8,380.4 L 655.5,389.0 L 648.1,387.0 L 648.3,389.6 L 650.7,394.4 L 646.1,396.1 L 645.7,390.7 L 642.8,390.3 L 641.3,385.6 L 647.0,386.2 L 646.8,383.2 L 641.0,377.3 L 650.2,377.5 L 652.8,380.4 Z" fill="#E4E0D4" stroke="#B0A898" stroke-width="0.5" stroke-linejoin="round"/>
<path d="M 408.8,424.7 L 410.5,423.3 L 418.3,426.7 L 419.1,430.7 L 425.4,429.8 L 428.6,426.6 L 430.8,427.3 L 436.4,432.0 L 440.5,437.2 L 441.0,442.4 L 440.0,446.0 L 440.9,448.6 L 441.6,453.2 L 445.0,455.4 L 448.8,462.2 L 448.6,464.9 L 441.8,465.4 L 432.7,459.6 L 421.4,453.5 L 420.2,449.5 L 414.7,444.3 L 413.4,437.9 L 409.9,433.6 L 410.9,428.0 L 408.8,424.7 Z M 579.7,442.8 L 571.3,441.5 L 560.3,441.4 L 557.0,450.3 L 553.3,453.0 L 548.4,463.8 L 540.5,465.5 L 531.5,463.3 L 526.9,464.0 L 521.3,467.9 L 515.1,467.3 L 508.9,468.9 L 502.4,464.5 L 500.8,459.3 L 507.8,462.0 L 515.2,460.5 L 517.2,454.0 L 521.3,452.5 L 532.8,450.8 L 539.6,444.7 L 544.4,439.7 L 548.7,443.8 L 550.7,441.1 L 555.3,441.4 L 555.9,436.4 L 556.3,432.6 L 563.7,427.2 L 568.6,421.1 L 572.4,421.1 L 577.4,425.0 L 577.8,428.4 L 584.1,430.5 L 592.1,432.9 L 591.5,435.9 L 585.0,436.3 L 586.7,440.1 L 579.7,442.8 Z" fill="#E4E0D4" stroke="#B0A898" stroke-width="0.5" stroke-linejoin="round"/>
<path d="M 556.3,432.6 L 555.9,436.4 L 555.3,441.4 L 550.7,441.1 L 548.7,443.8 L 544.4,439.7 L 548.2,436.8 L 556.3,432.6 Z" fill="#E4E0D4" stroke="#B0A898" stroke-width="0.5" stroke-linejoin="round"/>
<path d="M 810.1,170.3 L 801.2,178.1 L 801.4,186.2 L 797.8,192.4 L 799.4,196.3 L 794.4,201.7 L 782.2,205.4 L 765.3,205.9 L 751.6,214.8 L 745.2,211.8 L 744.8,206.0 L 728.1,207.7 L 716.7,211.3 L 705.5,211.5 L 715.2,217.2 L 708.8,230.4 L 702.6,233.7 L 697.9,230.7 L 700.3,223.7 L 694.2,221.4 L 690.3,216.1 L 699.4,213.7 L 704.4,208.8 L 714.1,204.8 L 721.1,199.4 L 740.2,197.1 L 750.5,198.7 L 760.5,184.9 L 766.9,188.6 L 781.0,180.8 L 786.5,177.8 L 792.5,168.3 L 790.9,159.6 L 794.9,154.7 L 805.1,153.2 L 810.4,164.0 L 810.1,170.3 Z M 836.3,133.1 L 843.1,129.9 L 845.2,138.6 L 831.0,140.7 L 822.6,148.4 L 807.5,143.1 L 802.2,151.6 L 791.6,151.7 L 790.2,144.0 L 795.0,138.0 L 805.3,137.6 L 808.1,126.8 L 810.9,120.8 L 822.2,128.9 L 829.5,131.5 L 836.3,133.1 Z M 718.8,214.8 L 724.1,210.1 L 729.5,211.0 L 733.5,207.8 L 740.5,209.4 L 741.8,212.1 L 736.4,216.8 L 732.4,214.3 L 727.5,216.1 L 724.9,220.7 L 718.7,218.4 L 718.8,214.8 Z" fill="#C8DEC8" stroke="#B0A898" stroke-width="0.5" stroke-linejoin="round"/>
<text x="148.8" y="521.6" text-anchor="middle" dominant-baseline="middle" font-family="Helvetica,Arial,sans-serif" font-size="9" fill="#4A6880" font-style="italic" opacity="0.85">Oceano Índico</text>
<text x="292.8" y="373.9" text-anchor="middle" dominant-baseline="middle" font-family="Helvetica,Arial,sans-serif" font-size="9" fill="#4A6880" font-style="italic" opacity="0.85">Baía de Bengala</text>
<text x="542.4" y="381.6" text-anchor="middle" dominant-baseline="middle" font-family="Helvetica,Arial,sans-serif" font-size="9" fill="#4A6880" font-style="italic" opacity="0.85">Mar do Sul da China</text>
<text x="609.6" y="222.3" text-anchor="middle" dominant-baseline="middle" font-family="Helvetica,Arial,sans-serif" font-size="9" fill="#4A6880" font-style="italic" opacity="0.85">Mar Amarelo</text>
<text x="763.2" y="179.5" text-anchor="middle" dominant-baseline="middle" font-family="Helvetica,Arial,sans-serif" font-size="9" fill="#4A6880" font-style="italic" opacity="0.85">Mar do Japão</text>
<text x="763.2" y="190.5" text-anchor="middle" dominant-baseline="middle" font-family="Helvetica,Arial,sans-serif" font-size="9" fill="#4A6880" font-style="italic" opacity="0.85">(Mar do Leste)</text>
<text x="868.8" y="101.7" text-anchor="middle" dominant-baseline="middle" font-family="Helvetica,Arial,sans-serif" font-size="9" fill="#4A6880" font-style="italic" opacity="0.85">Oceano Pacífico</text>
<text x="674.9" y="173.3" font-family="Helvetica,Arial,sans-serif" font-size="8" font-weight="normal" text-anchor="middle" dominant-baseline="middle" fill="white" stroke="white" stroke-width="3" stroke-linejoin="round" opacity="0.75">Pen. Coreana</text>
<text x="674.9" y="173.3" font-family="Helvetica,Arial,sans-serif" font-size="8" font-weight="normal" text-anchor="middle" dominant-baseline="middle" fill="#3A4A30">Pen. Coreana</text>
<text x="206.4" y="370.0" font-family="Helvetica,Arial,sans-serif" font-size="8" font-weight="normal" text-anchor="middle" dominant-baseline="middle" fill="white" stroke="white" stroke-width="3" stroke-linejoin="round" opacity="0.75">Subcontinente</text>
<text x="206.4" y="370.0" font-family="Helvetica,Arial,sans-serif" font-size="8" font-weight="normal" text-anchor="middle" dominant-baseline="middle" fill="#3A4A30">Subcontinente</text>
<text x="206.4" y="379.6" font-family="Helvetica,Arial,sans-serif" font-size="8" font-weight="normal" text-anchor="middle" dominant-baseline="middle" fill="white" stroke="white" stroke-width="3" stroke-linejoin="round" opacity="0.75">Indiano</text>
<text x="206.4" y="379.6" font-family="Helvetica,Arial,sans-serif" font-size="8" font-weight="normal" text-anchor="middle" dominant-baseline="middle" fill="#3A4A30">Indiano</text>
<text x="100.8" y="101.7" font-family="Helvetica,Arial,sans-serif" font-size="9" font-weight="normal" text-anchor="middle" dominant-baseline="middle" fill="white" stroke="white" stroke-width="3" stroke-linejoin="round" opacity="0.75">Cazaquistão</text>
<text x="100.8" y="101.7" font-family="Helvetica,Arial,sans-serif" font-size="9" font-weight="normal" text-anchor="middle" dominant-baseline="middle" fill="#2A2228">Cazaquistão</text>
<text x="67.1" y="153.3" font-family="Helvetica,Arial,sans-serif" font-size="9" font-weight="normal" text-anchor="middle" dominant-baseline="middle" fill="white" stroke="white" stroke-width="3" stroke-linejoin="round" opacity="0.75">Uzbequistão</text>
<text x="67.1" y="153.3" font-family="Helvetica,Arial,sans-serif" font-size="9" font-weight="normal" text-anchor="middle" dominant-baseline="middle" fill="#2A2228">Uzbequistão</text>
<text x="848.6" y="526.4" font-family="Helvetica,Arial,sans-serif" font-size="9" font-weight="normal" text-anchor="middle" dominant-baseline="middle" fill="white" stroke="white" stroke-width="3" stroke-linejoin="round" opacity="0.75">Papua Nova Guiné</text>
<text x="848.6" y="526.4" font-family="Helvetica,Arial,sans-serif" font-size="9" font-weight="normal" text-anchor="middle" dominant-baseline="middle" fill="#2A2228">Papua Nova Guiné</text>
<text x="571.2" y="490.5" font-family="Helvetica,Arial,sans-serif" font-size="11" font-weight="bold" text-anchor="middle" dominant-baseline="middle" fill="white" stroke="white" stroke-width="3" stroke-linejoin="round" opacity="0.75">Indonésia</text>
<text x="571.2" y="490.5" font-family="Helvetica,Arial,sans-serif" font-size="11" font-weight="bold" text-anchor="middle" dominant-baseline="middle" fill="#2A2228">Indonésia</text>
<text x="659.1" y="543.6" font-family="Helvetica,Arial,sans-serif" font-size="9" font-weight="normal" text-anchor="middle" dominant-baseline="middle" fill="white" stroke="white" stroke-width="3" stroke-linejoin="round" opacity="0.75">Timor-Leste</text>
<text x="659.1" y="543.6" font-family="Helvetica,Arial,sans-serif" font-size="9" font-weight="normal" text-anchor="middle" dominant-baseline="middle" fill="#2A2228">Timor-Leste</text>
<text x="455.8" y="377.5" font-family="Helvetica,Arial,sans-serif" font-size="9" font-weight="normal" text-anchor="middle" dominant-baseline="middle" fill="white" stroke="white" stroke-width="3" stroke-linejoin="round" opacity="0.75">Camboja</text>
<text x="455.8" y="377.5" font-family="Helvetica,Arial,sans-serif" font-size="9" font-weight="normal" text-anchor="middle" dominant-baseline="middle" fill="#2A2228">Camboja</text>
<text x="422.2" y="373.4" font-family="Helvetica,Arial,sans-serif" font-size="9" font-weight="normal" text-anchor="middle" dominant-baseline="middle" fill="white" stroke="white" stroke-width="3" stroke-linejoin="round" opacity="0.75">Tailândia</text>
<text x="422.2" y="373.4" font-family="Helvetica,Arial,sans-serif" font-size="9" font-weight="normal" text-anchor="middle" dominant-baseline="middle" fill="#2A2228">Tailândia</text>
<text x="444.9" y="333.6" font-family="Helvetica,Arial,sans-serif" font-size="9" font-weight="normal" text-anchor="middle" dominant-baseline="middle" fill="white" stroke="white" stroke-width="3" stroke-linejoin="round" opacity="0.75">Laos</text>
<text x="444.9" y="333.6" font-family="Helvetica,Arial,sans-serif" font-size="9" font-weight="normal" text-anchor="middle" dominant-baseline="middle" fill="#2A2228">Laos</text>
<text x="376.7" y="326.2" font-family="Helvetica,Arial,sans-serif" font-size="9" font-weight="normal" text-anchor="middle" dominant-baseline="middle" fill="white" stroke="white" stroke-width="3" stroke-linejoin="round" opacity="0.75">Mianmar</text>
<text x="376.7" y="326.2" font-family="Helvetica,Arial,sans-serif" font-size="9" font-weight="normal" text-anchor="middle" dominant-baseline="middle" fill="#2A2228">Mianmar</text>
<text x="463.2" y="350.7" font-family="Helvetica,Arial,sans-serif" font-size="9" font-weight="normal" text-anchor="middle" dominant-baseline="middle" fill="white" stroke="white" stroke-width="3" stroke-linejoin="round" opacity="0.75">Vietnã</text>
<text x="463.2" y="350.7" font-family="Helvetica,Arial,sans-serif" font-size="9" font-weight="normal" text-anchor="middle" dominant-baseline="middle" fill="#2A2228">Vietnã</text>
<text x="662.4" y="160.1" font-family="Helvetica,Arial,sans-serif" font-size="9" font-weight="normal" text-anchor="middle" dominant-baseline="middle" fill="white" stroke="white" stroke-width="3" stroke-linejoin="round" opacity="0.75">Coreia do Norte</text>
<text x="662.4" y="160.1" font-family="Helvetica,Arial,sans-serif" font-size="9" font-weight="normal" text-anchor="middle" dominant-baseline="middle" fill="#2A2228">Coreia do Norte</text>
<text x="672.0" y="195.0" font-family="Helvetica,Arial,sans-serif" font-size="11" font-weight="bold" text-anchor="middle" dominant-baseline="middle" fill="white" stroke="white" stroke-width="3" stroke-linejoin="round" opacity="0.75">Coreia do Sul</text>
<text x="672.0" y="195.0" font-family="Helvetica,Arial,sans-serif" font-size="11" font-weight="bold" text-anchor="middle" dominant-baseline="middle" fill="#2A2228">Coreia do Sul</text>
<text x="446.4" y="113.4" font-family="Helvetica,Arial,sans-serif" font-size="9" font-weight="normal" text-anchor="middle" dominant-baseline="middle" fill="white" stroke="white" stroke-width="3" stroke-linejoin="round" opacity="0.75">Mongólia</text>
<text x="446.4" y="113.4" font-family="Helvetica,Arial,sans-serif" font-size="9" font-weight="normal" text-anchor="middle" dominant-baseline="middle" fill="#2A2228">Mongólia</text>
<text x="206.4" y="303.9" font-family="Helvetica,Arial,sans-serif" font-size="11" font-weight="bold" text-anchor="middle" dominant-baseline="middle" fill="white" stroke="white" stroke-width="3" stroke-linejoin="round" opacity="0.75">Índia</text>
<text x="206.4" y="303.9" font-family="Helvetica,Arial,sans-serif" font-size="11" font-weight="bold" text-anchor="middle" dominant-baseline="middle" fill="#2A2228">Índia</text>
<text x="315.6" y="291.8" font-family="Helvetica,Arial,sans-serif" font-size="9" font-weight="normal" text-anchor="middle" dominant-baseline="middle" fill="white" stroke="white" stroke-width="3" stroke-linejoin="round" opacity="0.75">Bangladesh</text>
<text x="315.6" y="291.8" font-family="Helvetica,Arial,sans-serif" font-size="9" font-weight="normal" text-anchor="middle" dominant-baseline="middle" fill="#2A2228">Bangladesh</text>
<text x="316.4" y="261.1" font-family="Helvetica,Arial,sans-serif" font-size="9" font-weight="normal" text-anchor="middle" dominant-baseline="middle" fill="white" stroke="white" stroke-width="3" stroke-linejoin="round" opacity="0.75">Butão</text>
<text x="316.4" y="261.1" font-family="Helvetica,Arial,sans-serif" font-size="9" font-weight="normal" text-anchor="middle" dominant-baseline="middle" fill="#2A2228">Butão</text>
<text x="255.7" y="254.0" font-family="Helvetica,Arial,sans-serif" font-size="9" font-weight="normal" text-anchor="middle" dominant-baseline="middle" fill="white" stroke="white" stroke-width="3" stroke-linejoin="round" opacity="0.75">Nepal</text>
<text x="255.7" y="254.0" font-family="Helvetica,Arial,sans-serif" font-size="9" font-weight="normal" text-anchor="middle" dominant-baseline="middle" fill="#2A2228">Nepal</text>
<text x="113.8" y="238.5" font-family="Helvetica,Arial,sans-serif" font-size="9" font-weight="normal" text-anchor="middle" dominant-baseline="middle" fill="white" stroke="white" stroke-width="3" stroke-linejoin="round" opacity="0.75">Paquistão</text>
<text x="113.8" y="238.5" font-family="Helvetica,Arial,sans-serif" font-size="9" font-weight="normal" text-anchor="middle" dominant-baseline="middle" fill="#2A2228">Paquistão</text>
<text x="99.3" y="211.4" font-family="Helvetica,Arial,sans-serif" font-size="9" font-weight="normal" text-anchor="middle" dominant-baseline="middle" fill="white" stroke="white" stroke-width="3" stroke-linejoin="round" opacity="0.75">Afeganistão</text>
<text x="99.3" y="211.4" font-family="Helvetica,Arial,sans-serif" font-size="9" font-weight="normal" text-anchor="middle" dominant-baseline="middle" fill="#2A2228">Afeganistão</text>
<text x="131.6" y="172.9" font-family="Helvetica,Arial,sans-serif" font-size="9" font-weight="normal" text-anchor="middle" dominant-baseline="middle" fill="white" stroke="white" stroke-width="3" stroke-linejoin="round" opacity="0.75">Tadjiquistão</text>
<text x="131.6" y="172.9" font-family="Helvetica,Arial,sans-serif" font-size="9" font-weight="normal" text-anchor="middle" dominant-baseline="middle" fill="#2A2228">Tadjiquistão</text>
<text x="166.7" y="153.9" font-family="Helvetica,Arial,sans-serif" font-size="9" font-weight="normal" text-anchor="middle" dominant-baseline="middle" fill="white" stroke="white" stroke-width="3" stroke-linejoin="round" opacity="0.75">Quirguistão</text>
<text x="166.7" y="153.9" font-family="Helvetica,Arial,sans-serif" font-size="9" font-weight="normal" text-anchor="middle" dominant-baseline="middle" fill="#2A2228">Quirguistão</text>
<text x="19.4" y="171.6" font-family="Helvetica,Arial,sans-serif" font-size="9" font-weight="normal" text-anchor="middle" dominant-baseline="middle" fill="white" stroke="white" stroke-width="3" stroke-linejoin="round" opacity="0.75">Turcomenistão</text>
<text x="19.4" y="171.6" font-family="Helvetica,Arial,sans-serif" font-size="9" font-weight="normal" text-anchor="middle" dominant-baseline="middle" fill="#2A2228">Turcomenistão</text>
<text x="223.1" y="413.5" font-family="Helvetica,Arial,sans-serif" font-size="9" font-weight="normal" text-anchor="middle" dominant-baseline="middle" fill="white" stroke="white" stroke-width="3" stroke-linejoin="round" opacity="0.75">Sri Lanka</text>
<text x="223.1" y="413.5" font-family="Helvetica,Arial,sans-serif" font-size="9" font-weight="normal" text-anchor="middle" dominant-baseline="middle" fill="#2A2228">Sri Lanka</text>
<text x="446.4" y="195.0" font-family="Helvetica,Arial,sans-serif" font-size="11" font-weight="bold" text-anchor="middle" dominant-baseline="middle" fill="white" stroke="white" stroke-width="3" stroke-linejoin="round" opacity="0.75">China</text>
<text x="446.4" y="195.0" font-family="Helvetica,Arial,sans-serif" font-size="11" font-weight="bold" text-anchor="middle" dominant-baseline="middle" fill="#2A2228">China</text>
<text x="609.9" y="291.2" font-family="Helvetica,Arial,sans-serif" font-size="9" font-weight="normal" text-anchor="middle" dominant-baseline="middle" fill="white" stroke="white" stroke-width="3" stroke-linejoin="round" opacity="0.75">Taiwan</text>
<text x="609.9" y="291.2" font-family="Helvetica,Arial,sans-serif" font-size="9" font-weight="normal" text-anchor="middle" dominant-baseline="middle" fill="#2A2228">Taiwan</text>
<text x="619.5" y="354.3" font-family="Helvetica,Arial,sans-serif" font-size="9" font-weight="normal" text-anchor="middle" dominant-baseline="middle" fill="white" stroke="white" stroke-width="3" stroke-linejoin="round" opacity="0.75">Filipinas</text>
<text x="619.5" y="354.3" font-family="Helvetica,Arial,sans-serif" font-size="9" font-weight="normal" text-anchor="middle" dominant-baseline="middle" fill="#2A2228">Filipinas</text>
<text x="546.5" y="445.0" font-family="Helvetica,Arial,sans-serif" font-size="9" font-weight="normal" text-anchor="middle" dominant-baseline="middle" fill="white" stroke="white" stroke-width="3" stroke-linejoin="round" opacity="0.75">Malásia</text>
<text x="546.5" y="445.0" font-family="Helvetica,Arial,sans-serif" font-size="9" font-weight="normal" text-anchor="middle" dominant-baseline="middle" fill="#2A2228">Malásia</text>
<text x="550.3" y="438.2" font-family="Helvetica,Arial,sans-serif" font-size="9" font-weight="normal" text-anchor="middle" dominant-baseline="middle" fill="white" stroke="white" stroke-width="3" stroke-linejoin="round" opacity="0.75">Brunei</text>
<text x="550.3" y="438.2" font-family="Helvetica,Arial,sans-serif" font-size="9" font-weight="normal" text-anchor="middle" dominant-baseline="middle" fill="#2A2228">Brunei</text>
<text x="772.8" y="187.3" font-family="Helvetica,Arial,sans-serif" font-size="11" font-weight="bold" text-anchor="middle" dominant-baseline="middle" fill="white" stroke="white" stroke-width="3" stroke-linejoin="round" opacity="0.75">Japão</text>
<text x="772.8" y="187.3" font-family="Helvetica,Arial,sans-serif" font-size="11" font-weight="bold" text-anchor="middle" dominant-baseline="middle" fill="#2A2228">Japão</text>
</g>
<rect x="24" y="24" width="912" height="552" fill="none" stroke="#90A4B8" stroke-width="1"/>
<text x="934" y="595" text-anchor="end" font-family="Helvetica,Arial,sans-serif" font-size="7" fill="#909098" opacity="0.85">Natural Earth · domínio público</text>
</svg>